<svg viewBox="0 0 115.35 84.52" xmlns="http://www.w3.org/2000/svg" xmlns:xlink="http://www.w3.org/1999/xlink"><linearGradient id="a" gradientUnits="userSpaceOnUse" x1="64.72" x2="87.49" y1="56.15" y2="56.15"><stop offset="0" stop-color="#fbfbfb"/><stop offset=".22" stop-color="#f5f5f5"/><stop offset=".52" stop-color="#e4e3e4"/><stop offset=".86" stop-color="#c8c7c8"/><stop offset="1" stop-color="#bab9ba"/></linearGradient><linearGradient id="b" x1="69.41" x2="92.19" xlink:href="#a" y1="11.4" y2="11.4"/><linearGradient id="c" x1="80.37" x2="103.15" xlink:href="#a" y1="36.12" y2="36.12"/><linearGradient id="d" x1="45.71" x2="71.45" xlink:href="#a" y1="26.71" y2="26.71"/><linearGradient id="e" x1="99.08" x2="115.35" xlink:href="#a" y1="18.5" y2="18.5"/><linearGradient id="f" x1="19.04" x2="41.8" xlink:href="#a" y1="73.14" y2="73.14"/><linearGradient id="g" x1="20.6" x2="43.36" xlink:href="#a" y1="27.78" y2="27.78"/><linearGradient id="h" x1="34.66" x2="57.46" xlink:href="#a" y1="53.13" y2="53.13"/><linearGradient id="i" x1="0" x2="25.76" xlink:href="#a" y1="43.73" y2="43.73"/><linearGradient id="j" x1="5.17" x2="21.45" xlink:href="#a" y1="13.31" y2="13.31"/><g opacity=".24"><path d="m80.65 44.77v6.85h6.84v9.07h-6.84v6.84h-9.09v-6.84h-6.84v-9.07h6.84v-6.85z" fill="url(#a)"/><path d="m85.34 0v6.84h6.85v9.09h-6.85v6.87h-9.08v-6.87h-6.85v-9.09h6.85v-6.84z" fill="url(#b)"/><path d="m96.29 24.72v6.85h6.86v9.09h-6.86v6.86h-9.07v-6.86h-6.85v-9.09h6.85v-6.85z" fill="url(#c)"/><path d="m70 22.2v9.05h-6.89v6.85h-9.06v-6.85h-6.85v-9h6.85v-6.91h9.06v6.86zm1.49-1.53h-6.88v-6.86h-12v6.86h-6.9v12.07h6.85v6.86h12v-6.86h6.84v-12.07z" fill="url(#d)"/><path d="m99.08 10.37h16.26v16.26h-16.26z" fill="url(#e)"/><path d="m34.95 61.76v6.87h6.85v9.05h-6.85v6.84h-9.06v-6.84h-6.85v-9.05h6.85v-6.87z" fill="url(#f)"/><path d="m36.51 16.39v6.87h6.85v9.06h-6.85v6.85h-9.1v-6.85h-6.81v-9.06h6.81v-6.87z" fill="url(#g)"/><path d="m50.6 41.74v6.86h6.86v9.07h-6.86v6.84h-9.09v-6.84h-6.85v-9.07h6.85v-6.86z" fill="url(#h)"/><path d="m24.26 39.24v9h-6.84v6.86h-9.07v-6.84h-6.86v-9h6.86v-6.89h9.07v6.87zm1.5-1.56h-6.83v-6.85h-12.08v6.85h-6.85v12.09h6.85v6.86h12.08v-6.86h6.83z" fill="url(#i)"/><path d="m5.17 5.17h16.28v16.28h-16.28z" fill="url(#j)"/></g></svg>