<svg height="46" viewBox="0 0 123 46" width="123" xmlns="http://www.w3.org/2000/svg"><g fill="#458bc9" transform="matrix(-1 0 0 1 121 2)"><path d="m10.05224 38.7071313 1.5652296.0161494-.3908619-1.515728c-.2254897-.8744291-.3418227-1.7328733-.3418227-2.5827089 0-5.7673281 4.7543792-10.4664882 10.6030739-10.4664882 5.8483797 0 10.6027079 4.6992103 10.6027079 10.4664882 0 .9341691-.1352556 1.8682995-.3972447 2.7960337l-.4268993 1.5117005 1.570756.0143711c20.5309359.1878409 39.13107.285774 53.0254556.2434657l1.6169389-.0049236-.4731088-1.5461836c-.2981305-.9743308-.4517357-1.9855931-.4517357-3.0126554 0-5.7675088 4.7538302-10.4661264 10.6030738-10.4661264 5.8477594 0 10.6027084 4.699321 10.6027084 10.4661264 0 .8635651-.118987 1.733827-.349058 2.6118028l-.434359 1.6575563 1.706175-.1585157c.174932-.0162524.301773-.0288951.413651-.0416957 8.204401-1.0131834 11.361404-5.7166609 11.088192-11.9523817-.091716-2.0932892-.879379-3.0037343-2.382323-3.3532759-.059789-.013783-.059789-.013783-.114562-.0262052-.475018-.1078367-.38204-.018983-.414256-.6264683-.057388-1.0821335-.586697-2.267449-1.486537-3.5904557-.499844-.7349058-1.108252-1.5001314-1.802285-2.2849085-.677892-.7665256-1.401137-1.5113987-2.124224-2.2074965-.035854-.0345152-.071351-.0685658-.106477-.1021418 1.146553-1.4661446 1.421996-2.5798294.473221-3.4690074-.749596-.7025112-1.80494-.6655792-3.379343-.2891068-.346542.0828654-.708027.1833259-1.07893.2976146-.23635.0728283-.46865.1487952-.693509.2259264-1.031993-1.0699036-2.777832-2.28796372-5.16757-3.68892544-1.004094-.58864105-2.1089594-1.20030836-3.2984565-1.82958955-1.9814099-1.04822785-4.1008598-2.09540705-6.219856-3.09298864-.7413309-.34900391-1.4298722-.66698506-2.0481739-.94777881-.0586288-.02662553-.1146421-.05201912-.1679713-.07615656-.0389746-.23854437-.08484-.475385-.1385422-.70429489-.1486663-.63370217-.3322334-1.13009056-.6243004-1.51202863-.6484145-.84793601-1.7529182-.90238891-2.51537-.07086723l-.0235863.0244443c-.2489542.24685612-.842808.59087112-1.6365285.94563759-.475623.21258753-.990714.41629706-1.5065125.60258283-.140229.0506451-.2658824.09482505-.3735245.13186601-11.6040294-2.65759901-20.8664402-2.6238174-29.3917961-.95848857-1.298753.25369623-4.3839272.9628038-4.7166423 1.0225605-1.5641497.28089743-4.2032571 1.81010083-7.8308353 4.33751086-.4809144.33506315-.9743565.68474369-1.478686 1.04752465-1.5971281 1.14886706-3.2342088 2.37828123-4.8230638 3.60753208-.5559791.4301449-1.066375.8296663-1.5200723 1.1884216-.0964048.0762309-.1829489.1448348-.2591414.2053641-12.4056242.5039217-20.8360491 2.7423458-26.0062353 6.2123811-2.15141344 1.4439481-3.60752313 3.0209884-4.48311559 4.6259251-.36597653.6708248-.59067655 1.2623512-.71273456 1.7441423-1.75585454 1.1615221-2.78494992 2.8039149-3.16602015 4.7601389-.31849072 1.634972-.16817964 3.3396031.26926425 4.9856093.1641491.6176574.33115881 1.0900424.45090491 1.3728038l.05838569.1378685.09047164.1192959c1.02498041 1.351539 2.60163092 2.2204836 4.55684201 2.720934 1.69897578.4348651 3.44775105.5466493 4.94466736.483825.0914949-.0038399.16538745-.0077948.22029058-.0112736.10344096.001154.26962785.002944.49426146.0052617zm-5.06410695-2.8028596c-1.40794963-.3603749-2.48806351-.9363198-3.14630951-1.728564-.07738666-.2050832-.18075924-.5180192-.28592105-.9137202-.35205305-1.324699-.4719124-2.6839865-.23303002-3.9102892.2862231-1.4693262 1.06411812-2.6241371 2.48827115-3.4344515l.55649436-.3166341.0468486-.6385517c.01599236-.2179777.15470686-.7210472.53827443-1.4241159.68827841-1.2615952 1.87888931-2.5510869 3.71373801-3.7825686 4.80867048-3.2273995 12.94182758-5.3655426 25.15413818-5.8222675l.3972681-.0148573.3098198-.2491073c.0988021-.0794407.2876297-.2300829.555285-.4417278.4472687-.353672.9510275-.7479981 1.5000566-1.172766 1.5683114-1.2133569 3.183793-2.42655051 4.7559439-3.55745072.4948266-.35594512.978474-.6986846 1.4491834-1.02663774 3.2961934-2.29652731 5.8066243-3.75117036 6.8831007-3.94448912.4036325-.0724937 3.5129496-.78715035 4.7525199-1.02928595 8.2883904-1.61904037 17.3065017-1.63684857 28.7189578 1.01699506l.3213405.07472426.3143769-.1000526c.1582328-.05035866.4252644-.14025319.7657739-.26323161.5673124-.20489055 1.1353323-.42953252 1.6706128-.66878495.5937896-.26540403 1.1072002-.52903612 1.5335941-.800552.034024.17008409.0638918.34813192.0893521.52667377.0223493.15672554.0362265.27603141.0421454.33730197l.067498.69872022.642134.28360154c.1365333.06030057.3956721.17625997.7598431.34164351.6086537.27641224 1.2872913.58981969 2.018307.93396745 2.0877082.98285177 4.1749627 2.01412388 6.1198102 3.04300908 1.1603303.61385102 2.2351624 1.20889148 3.2069776 1.77860934 2.647021 1.55179149 4.431601 2.86720419 5.016121 3.71427139l.541813.7851778.887132-.350802c.067389-.0266479.19834-.0764162.378499-.1415101.303053-.1094972.627382-.2191144.958031-.3209996.324583-.1000159.637459-.1869676.930347-.2570031.175593-.0419879.341043-.077128.494327-.1050348-.179977.2355951-.410157.5084647-.691884.8157424l-.828299.9034215.920744.8089997c.040926.035959.122676.1091617.239356.215883.197279.180442.417825.3870538.655719.6160675.679794.6544202 1.35943 1.3543807 1.990894 2.0684081.631418.7139756 1.178559 1.4021419 1.615609 2.0447235.674941.9923447 1.045448 1.8220467 1.074391 2.3678098.09541 1.7991002.843224 2.5137452 2.279571 2.8398186l.102219.023369c.472778.1099548.484597.123616.528284 1.1207165.208517 4.759125-1.858769 8.1631048-7.719913 9.2698813.061579-.4967945.093012-.9940663.093012-1.4917004 0-7.098652-5.835747-12.8661264-13.0027084-12.8661264-7.1684914 0-13.0030738 5.7668175-13.0030738 12.8661264 0 .7307821.0630614 1.4552009.1869138 2.1677879-13.3645401.0303349-30.8024903-.0615903-50.0050683-.2339989.1018911-.6417986.1539925-1.2876183.1539925-1.9355974 0-7.0990663-5.835069-12.8664882-13.0027079-12.8664882-7.1679425 0-13.00307385 5.7673601-13.00307385 12.8664882 0 .5679093.04123604 1.13564.12177364 1.7041124-1.13810057.0021261-2.41336582-.1162407-3.61842564-.4246845z"/><path d="m21.5 25.8c-4.8050454 0-8.7 3.8945553-8.7 8.6997217 0 .8582618.1498785 1.6986969.4327541 2.5969323 1.1325063 3.6045089 4.4486497 6.103346 8.2672459 6.103346 3.7526433 0 7.025769-2.4134852 8.2133869-5.9301407.3176906-.9450562.4866131-1.8509151.4866131-2.7715289 0-4.8037464-3.8954825-8.6983304-8.7-8.6983304zm0 2.4c3.479158 0 6.3 2.8201913 6.3 6.2983304 0 .640448-.1218367 1.293806-.3609827 2.0052129-.8615503 2.5511332-3.228527 4.2964567-5.9390173 4.2964567-2.7578019 0-5.1557369-1.806933-5.9778393-4.4234962-.2144046-.6808158-.3221607-1.2850517-.3221607-1.8767821 0-3.4796279 2.8203829-6.2997217 6.3-6.2997217z"/><path d="m97.4983307 25.8c-4.8046657 0-8.6983307 3.8943874-8.6983307 8.6997217 0 1.0124205.1942251 2.0071148.5593195 2.9972463 1.2519876 3.3985996 4.471839 5.703032 8.1406805 5.703032 3.768334 0 7.050245-2.4338446 8.225429-5.9732441.309793-.9347977.474571-1.8237844.474571-2.7284255-.003228-4.8042888-3.898842-8.6983304-8.7016693-8.6983304zm0 2.4c3.4778293 0 6.2993323 2.8203636 6.3016693 6.2991366 0 .6260438-.118709 1.2664841-.352515 1.9719911-.853003 2.5690617-3.226015 4.3288723-5.947485 4.3288723-2.6513485 0-4.9802436-1.6667792-5.8887573-4.132997-.271294-.735746-.4112427-1.4524721-.4112427-2.1672813 0-3.4799506 2.8192481-6.2997217 6.2983307-6.2997217z"/></g></svg>