<svg enable-background="new 0 0 512 512" height="512" viewBox="0 0 512 512" width="512" xmlns="http://www.w3.org/2000/svg"><g fill="#458bc9"><path d="m256 0c-102.245 0-185.427 83.182-185.427 185.426 0 126.888 165.939 313.167 173.004 321.035 6.636 7.391 18.222 7.378 24.846 0 7.065-7.868 173.004-194.147 173.004-321.035-.002-102.244-83.183-185.426-185.427-185.426zm0 469.729c-55.847-66.338-152.035-197.217-152.035-284.301 0-83.834 68.202-152.036 152.035-152.036s152.035 68.202 152.035 152.035c-.001 87.088-96.174 217.943-152.035 284.302z"/><path d="m256 92.134c-51.442 0-93.292 41.851-93.292 93.293s41.851 93.293 93.292 93.293 93.291-41.851 93.291-93.293-41.85-93.293-93.291-93.293zm0 153.194c-33.03 0-59.9-26.871-59.9-59.901s26.871-59.901 59.9-59.901 59.9 26.871 59.9 59.901-26.871 59.901-59.9 59.901z"/></g></svg>