<svg enable-background="new 0 0 512.008 512.008" height="512" viewBox="0 0 512.008 512.008" width="512" xmlns="http://www.w3.org/2000/svg"><g fill="#458bc9"><path d="m469.834 223.277v-148.51c0-4.037-2.601-7.617-6.441-8.863l-201.379-65.444c-2.039-.666-4.147-.585-6.013.093-1.883-.672-3.985-.753-6.024-.093l-201.373 65.444c-3.841 1.245-6.441 4.819-6.441 8.863l.012 148.157c-.081 2.166-5.74 217.592 209.008 288.609.944.319 1.94.475 2.931.475h3.783c.991 0 1.987-.156 2.931-.475 214.741-71.017 209.082-286.449 209.006-288.256zm-213.45 270.09h-.765c-199.815-66.979-195.123-261.482-194.821-270.09v-141.744l194.932-63.348c.093-.029.18-.064.272-.093.081.029.174.064.261.093l194.937 63.353.012 142.098c.075 2.016 5.352 202.595-194.828 269.731z"/><path d="m411.665 101.251-151.122-50.854c-1.309-.434-2.665-.539-3.922-.434-1.263-.098-2.601 0-3.922.434l-151.105 50.853c-3.783 1.28-6.343 4.831-6.343 8.834l.012 115.718c.052 1.662 7.606 167.197 157.993 225.453 1.083.417 2.23.626 3.365.626s2.282-.209 3.365-.626c150.393-58.256 157.958-223.79 158.021-225.783v-115.388c-.004-4.002-2.559-7.553-6.342-8.833zm-155.044 331.306c-135.523-54.908-142.683-205.88-142.735-207.079v-108.698l142.735-48.038 142.752 48.038.006 108.362c-.063 1.529-7.235 152.507-142.758 207.415z"/><path d="m363.292 187.183c-3.962-3.313-9.842-2.757-13.126 1.182l-107.84 129.163-69.563-73.05c-3.574-3.742-9.453-3.858-13.172-.33-3.73 3.551-3.875 9.453-.33 13.172l76.769 80.621c1.767 1.848 4.205 2.896 6.754 2.896.098 0 .197 0 .301-.012 2.659-.081 5.15-1.303 6.853-3.337l114.537-137.186c3.294-3.949 2.767-9.823-1.183-13.119z"/></g></svg>