<svg enable-background="new 0 0 512 512" height="512" viewBox="0 0 512 512" width="512" xmlns="http://www.w3.org/2000/svg"><g fill="#458bc9"><path d="m488.468 104.209h-464.936c-12.975 0-23.532 10.557-23.532 23.534v70.567c0 6.681 3.44 12.96 8.979 16.386 14.456 8.941 23.086 24.382 23.086 41.305s-8.63 32.364-23.087 41.305c-5.538 3.425-8.978 9.704-8.978 16.385v70.567c0 12.976 10.557 23.532 23.532 23.532h464.936c12.976 0 23.532-10.557 23.532-23.532v-256.515c0-12.977-10.557-23.534-23.532-23.534zm8.532 280.049c0 4.705-3.827 8.532-8.532 8.532h-369.258v-.516c0-4.142-3.357-7.5-7.5-7.5s-7.5 3.358-7.5 7.5v.516h-80.678c-4.705 0-8.532-3.828-8.532-8.532v-70.567c0-1.525.717-2.916 1.869-3.629 18.907-11.694 30.195-31.904 30.195-54.062s-11.288-42.368-30.195-54.062c-1.152-.714-1.869-2.104-1.869-3.63v-70.567c0-4.705 3.827-8.532 8.532-8.532h80.678v.516c0 4.142 3.357 7.5 7.5 7.5s7.5-3.358 7.5-7.5v-.516h369.258c4.705 0 8.532 3.828 8.532 8.532z"/><path d="m111.71 240.485c-4.143 0-7.5 3.358-7.5 7.5v16.032c0 4.142 3.357 7.5 7.5 7.5s7.5-3.358 7.5-7.5v-16.032c0-4.143-3.357-7.5-7.5-7.5z"/><path d="m111.71 144.292c-4.143 0-7.5 3.358-7.5 7.5v16.032c0 4.142 3.357 7.5 7.5 7.5s7.5-3.358 7.5-7.5v-16.032c0-4.143-3.357-7.5-7.5-7.5z"/><path d="m111.71 192.387c-4.143 0-7.5 3.358-7.5 7.5v16.032c0 4.142 3.357 7.5 7.5 7.5s7.5-3.358 7.5-7.5v-16.032c0-4.142-3.357-7.5-7.5-7.5z"/><path d="m111.71 288.581c-4.143 0-7.5 3.358-7.5 7.5v16.032c0 4.142 3.357 7.5 7.5 7.5s7.5-3.358 7.5-7.5v-16.032c0-4.143-3.357-7.5-7.5-7.5z"/><path d="m111.71 336.677c-4.143 0-7.5 3.358-7.5 7.5v16.032c0 4.142 3.357 7.5 7.5 7.5s7.5-3.358 7.5-7.5v-16.032c0-4.142-3.357-7.5-7.5-7.5z"/><path d="m401.57 230.137c-2.474-7.615-9.235-12.886-17.222-13.427l-44.25-3-16.526-41.156c-2.984-7.43-10.085-12.23-18.092-12.23s-15.107 4.801-18.09 12.23l-16.527 41.156-44.25 3c-7.987.542-14.747 5.812-17.221 13.426-2.475 7.615-.104 15.852 6.041 20.985l34.035 28.437-10.821 43.011c-1.953 7.764.97 15.822 7.447 20.527s15.043 4.996 21.824.739l37.563-23.582 37.562 23.581c3.196 2.007 6.788 3.003 10.372 3.003 4.019 0 8.027-1.253 11.452-3.741 6.478-4.706 9.4-12.764 7.447-20.528l-10.82-43.011 34.034-28.436c6.145-5.133 8.516-13.37 6.042-20.984zm-15.66 9.473-37.647 31.456c-2.209 1.846-3.167 4.793-2.465 7.585l11.969 47.577c.669 2.66-.978 4.196-1.717 4.733-.74.537-2.711 1.627-5.032.17l-41.55-26.085c-2.438-1.53-5.537-1.53-7.975 0l-41.551 26.085c-2.324 1.459-4.294.367-5.032-.17-.739-.537-2.386-2.073-1.717-4.732l11.97-47.577c.702-2.792-.255-5.74-2.465-7.585l-37.648-31.457c-2.104-1.759-1.675-3.97-1.393-4.839s1.234-2.91 3.971-3.095l48.947-3.319c2.872-.195 5.379-2.017 6.452-4.688l18.282-45.526c1.021-2.544 3.257-2.819 4.17-2.819.914 0 3.15.275 4.172 2.82l18.281 45.525c1.073 2.671 3.58 4.493 6.452 4.688l48.947 3.319c2.736.186 3.688 2.227 3.972 3.096.283.869.712 3.078-1.393 4.838z"/></g></svg>