<svg viewBox="0 0 306.15 31.41" xmlns="http://www.w3.org/2000/svg"><g fill="#98a1a7"><path d="m193.39 21.72a2.75 2.75 0 0 0 1.34-2.33c0-3.77 0-7.54 0-11.32a8.71 8.71 0 0 0 -.24-1.36l8.45-5.92a10.17 10.17 0 0 0 2.19 1.29 11.48 11.48 0 0 0 2.64.24c-.06 2.68-3 4.11-6.36 3.08v18.9a10.42 10.42 0 0 0 4.19-1c1.26-.6 2.47-1.33 3.84-2.07a5.61 5.61 0 0 1 -.26.79 10.54 10.54 0 0 1 -8.84 5.76 14.87 14.87 0 0 1 -7-1.09 10.69 10.69 0 0 1 -6.44-7.11 13.79 13.79 0 0 1 1.37-11.75 13.6 13.6 0 0 1 7.12-5.39 1.7 1.7 0 0 1 .31-.06 1.48 1.48 0 0 1 .3.08c-.2.2-.34.38-.51.52-5.31 4.25-5.86 10.59-3.72 16a21.17 21.17 0 0 0 1.62 2.74zm7.36 2.6v-.83c0-5.71 0-11.42 0-17.14a2.68 2.68 0 0 0 -1.14-2.49 1.49 1.49 0 0 0 -.93 1.62c0 3.36-.05 6.72 0 10.07a5.07 5.07 0 0 1 -2.33 4.67c-.67.45-1.32.93-2 1.4l-.54.41a10.37 10.37 0 0 0 6.94 2.29z"/><path d="m208.21 4.74c0-.19 0-.44.08-.55 1-1.05 2.05-2.08 3.11-3.09a.76.76 0 0 1 .66-.07 4.4 4.4 0 0 1 2.66 4.22v7 .82l1.57-1.55c.61-.6 1.19-1.22 1.83-1.78a1 1 0 0 1 .78-.2 4.6 4.6 0 0 1 3.81 4.83v6.74a10.14 10.14 0 0 1 -5.1 9.39l-1.41.83a1.44 1.44 0 0 1 -.42.08 3.87 3.87 0 0 1 .38-.58 7.44 7.44 0 0 0 2.33-5.51c.06-3.46 0-6.93 0-10.39a2.58 2.58 0 0 0 -1.71-2.61c-.18-.07-.44.06-.67.11 0 0-.09.1-.14.14a3.08 3.08 0 0 0 -1.3 3c.11 2.17 0 4.36 0 6.54a2 2 0 0 0 1.55 2.18c-.92.88-1.74 1.68-2.6 2.46a.68.68 0 0 1 -.56 0 3.94 3.94 0 0 1 -2.55-4c0-5.51 0-11 0-16.54a4 4 0 0 0 -.28-1.58c-.4-.89-.84-.93-1.52-.26l-.33.31z"/><path d="m250.28 13.21a1.93 1.93 0 0 1 -.21-.17 1.81 1.81 0 0 1 -.21-.28c1.08-1 2.17-2.11 3.28-3.15a.63.63 0 0 1 .52-.09 3.73 3.73 0 0 1 2.85 2.92 3.6 3.6 0 0 0 .12.44l.18.13c1-1 2-2.09 3-3.18a.91.91 0 0 1 1.09-.26 4.6 4.6 0 0 1 3.65 4.85v8a2.58 2.58 0 0 0 .54 1.38.59.59 0 0 0 1-.06c.17-.23.37-.43.58-.68l.45.39a1.68 1.68 0 0 1 -.18.23c-1 1-2 1.92-2.92 2.91a.6.6 0 0 1 -.79.15 4.3 4.3 0 0 1 -2.9-4.42c0-2.47 0-4.93 0-7.4a2.75 2.75 0 0 0 -1.59-2.64.69.69 0 0 0 -.85.12 3.38 3.38 0 0 0 -1.39 3.19c.13 2.13.06 4.28 0 6.41a2 2 0 0 0 1.46 2.26c-.89.88-1.71 1.71-2.55 2.51a.46.46 0 0 1 -.4 0 3.69 3.69 0 0 1 -2.57-3.24c-.08-1.28-.07-2.57-.08-3.86 0-1.74 0-3.48 0-5.23a3.76 3.76 0 0 0 -.13-1.16c-.29-.94-1-1.11-1.71-.45z"/><path d="m236.45 14.14c1.7-.94 3.46-1.89 5.2-2.87.8-.45 1.54-1 2.35-1.43a1.34 1.34 0 0 1 .94-.13 5.19 5.19 0 0 1 4.06 5.43c0 2-.14 4 .05 6 .11 1.13-.32 1.47-1.18 1.92-2.1 1.11-4.13 2.35-6.16 3.57a1.28 1.28 0 0 1 -1.15.15 5.15 5.15 0 0 1 -4-5.43c0-1.85 0-3.7 0-5.56.01-.54-.07-1.09-.11-1.65zm8.36 10.3a4.57 4.57 0 0 0 0-.49c0-2.75 0-5.5 0-8.25a3.69 3.69 0 0 0 -4.05-3.61 2.35 2.35 0 0 0 0 .37v8.5a3.6 3.6 0 0 0 4.05 3.48z"/><path d="m286.68 3.87c-.68.13-.77 1.13-1.68.89 1.28-1.3 2.46-2.52 3.67-3.71a.7.7 0 0 1 .62 0 4.45 4.45 0 0 1 2.71 4.44v16.22a8.1 8.1 0 0 0 0 .85 1.69 1.69 0 0 0 .17.62c.4.83 1 .91 1.64.3.21-.19.41-.73.91-.12l-2.63 2.64c-1.08 1.08-1.14 1.09-2.41.23a3.85 3.85 0 0 1 -1.8-3.42c0-5.56 0-11.12 0-16.67a2.28 2.28 0 0 0 -1.2-2.27z"/><path d="m295.09 14.27 7.55-4.67 3.51 5.71-3.15 2.06c-1 .67-2.08 1.36-3.14 2a.87.87 0 0 0 -.47.9 3.08 3.08 0 0 0 1.52 2.73 5.33 5.33 0 0 0 .57.31c1.91.94 1.93.93 3.42-.56a2 2 0 0 1 .42-.4.55.55 0 0 1 .56.05c-1.43 1.46-2.85 2.92-4.29 4.37a.47.47 0 0 1 -.4.08 31.37 31.37 0 0 1 -3.76-1.63 4.46 4.46 0 0 1 -2.2-4c-.05-1.74 0-3.49 0-5.23-.04-.56-.11-1.17-.14-1.72zm7.29 2.88-2.86-4.85h-.1v6.7z"/><path d="m237 10.21a4 4 0 0 1 -2 3.25 3.61 3.61 0 0 1 -4.45-.7c0 .26-.07.42-.07.58v8.37a1.93 1.93 0 0 0 .89 1.91c.89.49 1 .49 1.72-.22.41-.42.41-.42.72-.07-1.11 1.14-2.21 2.29-3.35 3.4a.77.77 0 0 1 -.62.09 4.37 4.37 0 0 1 -3.5-4.71c0-2.31 0-4.63 0-6.94a6.16 6.16 0 0 0 -.17-1.61c-.29-1-.89-1.12-1.6-.41l-.55.52-.37-.42c1.25-1.24 2.45-2.45 3.67-3.62a.73.73 0 0 1 .63-.09 3.4 3.4 0 0 1 2.26 2.27c.07.18.11.37.24.81l3-3.35c.96 1.39 2.07 1.8 3.55.94z"/><path d="m283.18 9.61c1.24 1.14 1.58 1.21 3.3.64a3.44 3.44 0 0 1 -1.57 3.12c-1.88 1.27-3.56.93-5.06-1v.83 6.34a4 4 0 0 0 4 4.45.78.78 0 0 0 .54-.23c.56-.52 1.08-1.07 1.66-1.66l.4.34-.24-.06-4.21 4.39a.65.65 0 0 1 -.4.16 6.54 6.54 0 0 1 -5.74-4.54 10.24 10.24 0 0 1 -.21-2.07c0-1.62 0-3.23 0-4.84a10.47 10.47 0 0 0 -.13-1.16z"/><path d="m275.08 23.1c0 .19 0 .44-.11.55-1 1-2 2.05-3.06 3a.71.71 0 0 1 -.6.12 4.1 4.1 0 0 1 -2.9-4.13c0-2.7 0-5.41 0-8.11a2.27 2.27 0 0 0 -1.41-2.17l-1 1.3-.3-.14c0-.18 0-.43.1-.54 1.15-1.19 2.32-2.36 3.46-3.52a4.77 4.77 0 0 1 3.26 4.42v8.24a1.85 1.85 0 0 0 .69 1.61c.36.27.68.37 1-.07a6.75 6.75 0 0 1 .56-.64z"/><path d="m271.64 4.76-2.32 2.24-2.47-2.28c.91-.79 1.77-1.55 2.68-2.36z"/><path d="m71.32.92a5 5 0 0 1 -3.79 3.42 8.59 8.59 0 0 1 -3.67-.34 7.86 7.86 0 0 0 -3.72-.47 1.52 1.52 0 0 0 -1.22.88.88.88 0 0 0 .49 1.23c.21.12.52.47.47.59a.5.5 0 0 1 -.86.14 2.91 2.91 0 0 1 -.85-1.25 4.23 4.23 0 0 1 4-5.12 7 7 0 0 1 3.06.58c.69.26 1.37.54 2.06.82a3.73 3.73 0 0 0 3.61-.34 2 2 0 0 1 .28-.16s.04.01.14.02z"/><path d="m14.8 8.64c1.24.35 2.32.59 3.36.95 2.36.8 4.07 2.25 4.46 4.87a6.48 6.48 0 0 1 -.84 4.54 23.84 23.84 0 0 1 -2.14 3c-1.73 2-3.53 4-5.33 6l-.38-.29c-3.31-2.77-7-3-10.95-1.65a3.08 3.08 0 0 0 -2.21 2.23 1.85 1.85 0 0 0 .93 2.19c.21.13.27.47.41.71-.3.06-.7.27-.86.15a2.86 2.86 0 0 1 -.88-1.08 6.49 6.49 0 0 1 1.79-6.87 9.1 9.1 0 0 1 5.63-2.16 11.75 11.75 0 0 1 8.88 2.77.68.68 0 0 0 .21.1c1.3-1.59 2.57-3.19 2.84-5.33a4.46 4.46 0 0 0 -2.66-4.92 27.85 27.85 0 0 0 -4.45-1.22c-.21-.05-.52.28-.79.43l.06.21c.64.14 1.3.24 1.93.42a19.21 19.21 0 0 1 2.59.87 3.85 3.85 0 0 1 2.33 4.2 5.27 5.27 0 0 1 -1.36 3.15 8.76 8.76 0 0 0 -.07-1.17 3.48 3.48 0 0 0 -1.73-2.42 16.56 16.56 0 0 0 -5.82-1.83c-.13 0-.36.18-.49.32-.63.66-1.22 1.37-1.87 2a2.59 2.59 0 0 1 -2.28.75 1.4 1.4 0 0 1 -.72-.44c-.06-.07.08-.51.19-.53a1.09 1.09 0 0 1 .84.05 1 1 0 0 0 1.41-.09c.73-.67 1.4-1.4 2.2-2.21a18.63 18.63 0 0 1 -2.3-.59 14.79 14.79 0 0 1 -3-1.43 3.18 3.18 0 0 1 -1-3.83 7.25 7.25 0 0 1 .7-1.09c1.06 2.07 3 2.59 4.84 3.09.71.19 1.45.31 2.17.47s.73.15 1.17-.59c-.61-.14-1.19-.25-1.77-.4-.84-.29-1.84-.5-2.7-.83a4.92 4.92 0 0 1 -2.59-7.55 6.76 6.76 0 0 1 5.1-3.16 11.75 11.75 0 0 1 8.24 1.78l.54.32c.58-.29.66-1.21 1.56-1.06zm1.3-2.84a11.61 11.61 0 0 0 -4.62-3.59 6.75 6.75 0 0 0 -3.63-.5 2.44 2.44 0 0 0 -2.19 1.78 2.3 2.3 0 0 0 .89 2.72 7.33 7.33 0 0 0 2.19 1.12c1.67.47 3.38.8 5.08 1.16a.64.64 0 0 0 .53-.21c.65-.81 1.18-1.66 1.75-2.48z"/><path d="m62.32 21.22a1.39 1.39 0 0 1 .21-.21 3.4 3.4 0 0 0 1.59-3.17c0-1.26 0-2.52 0-3.77a2.13 2.13 0 0 0 -2.93 1.37 3.77 3.77 0 0 1 -.43-.49 2.78 2.78 0 0 1 2.12-4.32c1.34-.12 1.34-.12 1.2-1.45 0-.46-.16-.9-.25-1.42a57.19 57.19 0 0 0 14-7.15 4.41 4.41 0 0 0 5.27 1.45 5.22 5.22 0 0 1 -2.35 3.5 4.49 4.49 0 0 1 -4.07.15v4.87h2.71c-.52 1.12-1 2.13-1.46 3.12a.71.71 0 0 1 -.48.24 5.09 5.09 0 0 1 -.8 0v12.54a2.27 2.27 0 0 1 0 .52c0 .1-.18.25-.24.23a.45.45 0 0 1 -.29-.25 2.24 2.24 0 0 1 0-.58v-12.4h-2.12v2c0 1.33 0 2.66-.09 4a6 6 0 0 1 -2.33 4.51c-1.59 1.25-3.27 2.38-4.91 3.57l-1.05-.83c-2.45-1.93-5.16-1.9-7.93-1a2.5 2.5 0 0 0 -1.83 2.75 1.51 1.51 0 0 0 .91 1.46c.34.15.69.41.4.78a.94.94 0 0 1 -.89.06 2.9 2.9 0 0 1 -.86-1.3c-1.11-3.56 1-7 4.84-7.88a9.17 9.17 0 0 1 9.09 2.54v-18.53c-1 .12-1.28.36-1.28 1.41 0 2.45-.06 4.89 0 7.33a5.6 5.6 0 0 1 -3.87 5.87c-.59.24-1.2.45-1.8.68zm11.68-17.63v7h2c0-1.66 0-3.27 0-4.88a.5.5 0 0 0 -.12-.29z"/><path d="m110.73 13.11c1-1 2.06-1.95 3-3a1.34 1.34 0 0 1 1.71-.37c2.24.84 3.26 2.28 3.28 4.86s0 5.28 0 7.91a1.58 1.58 0 0 0 .54 1.41c.36.27.71.41 1-.07a6.94 6.94 0 0 1 .59-.65l.43.34c0 .08-.07.14-.11.19-1 1-2 1.95-3 2.95a.62.62 0 0 1 -.8.15 4.21 4.21 0 0 1 -2.88-4.36c0-2.37 0-4.75 0-7.12a3 3 0 0 0 -1.62-3 .68.68 0 0 0 -.85.12 3.31 3.31 0 0 0 -1.37 3.13c.13 2.11.06 4.23 0 6.34a2.06 2.06 0 0 0 1.48 2.38c-.9.88-1.7 1.69-2.54 2.47-.1.1-.41.07-.57 0a3.81 3.81 0 0 1 -2.51-3.77c0-2.9 0-5.8 0-8.69a1.88 1.88 0 0 0 -.57-1.6c-.4-.33-.76-.46-1.15 0-.17.22-.39.69-.84.11.86-.86 1.71-1.73 2.56-2.59s1.11-1 2.31-.26a3.49 3.49 0 0 1 1.75 2.55c.07.22.11.34.16.57z"/><path d="m43.82 24.41c-.87.85-1.64 1.62-2.44 2.36a.7.7 0 0 1 -.61.11 3.65 3.65 0 0 1 -2.53-3.41c-.05-2.83 0-5.67-.05-8.5a5.58 5.58 0 0 0 -.07-1.23 2.33 2.33 0 0 0 -.52-1 .66.66 0 0 0 -1.14.05c-.17.22-.39.7-.83.1l2.73-2.76c.77-.77.79-.78 1.78-.29 1.26.61 1.84 1.44 2.22 3.21l1.22-1.2a24.35 24.35 0 0 0 1.76-1.76 1.26 1.26 0 0 1 1.66-.33 4.49 4.49 0 0 1 3.31 4.57v8a3.53 3.53 0 0 0 .12 1 .9.9 0 0 0 1.63.39c.23-.22.46-.76.84-.14-1.06 1.08-2.1 2.16-3.17 3.21a.63.63 0 0 1 -.57.09 4.21 4.21 0 0 1 -3-4.2c0-2.6 0-5.19 0-7.79a2.56 2.56 0 0 0 -1.67-2.5c-.18-.08-.44 0-.67.09-1.4 1.31-1.4 1.31-1.4 3.23v6.28a2.11 2.11 0 0 0 1.4 2.42z"/><path d="m167.47 14.28c2.28-1.31 4.62-2.53 6.82-4a2.38 2.38 0 0 1 2.71-.08 4.94 4.94 0 0 1 3 4.68v5.37c0 .73.08 1.47.12 2.15-2.2 1.27-4.5 2.44-6.61 3.88a2.72 2.72 0 0 1 -3.22.06 5 5 0 0 1 -2.71-4.65c0-2 0-4 0-6-.01-.49-.08-.96-.11-1.41zm4.29-2.1v9.11a2.86 2.86 0 0 0 1.85 2.71c.53.23 1.11.35 1.67.54s.59 0 .59-.46c0-2.77 0-5.53 0-8.3a3.68 3.68 0 0 0 -4.11-3.6z"/><path d="m104.84 23.82c-1 1-2 2-3 3a.81.81 0 0 1 -.68.1 4.29 4.29 0 0 1 -2.85-3.07c-1.3 1-2.57 1.89-3.79 2.86a1 1 0 0 1 -1.23.1 4.51 4.51 0 0 1 -.8-7.54 11.08 11.08 0 0 1 4.88-2.06l.83-.21c0-1.46.26-3-1.32-3.84a9.74 9.74 0 0 0 -2.12-.58c-.91-.23-1.25.61-1.86 1l-.38-.33c1.22-1.22 2.41-2.42 3.62-3.61a.59.59 0 0 1 .4-.15c2.79.09 5.39 1.74 5.78 4.73a14.89 14.89 0 0 1 .05 1.77v6.53a3 3 0 0 0 .55 1.47c.34.5.72.2 1-.15s.54-.69.92-.02zm-6.63-6.27a4.75 4.75 0 0 0 -3 2.1 3.69 3.69 0 0 0 -.11 3.46 3.08 3.08 0 0 0 1.34 1.23c.21.11.71-.33 1.08-.53a1.77 1.77 0 0 0 .47-.34.73.73 0 0 0 .21-.47c.01-1.76.01-3.56.01-5.45z"/><path d="m146.42 20.34a12.37 12.37 0 0 1 -1.36-.57 13.16 13.16 0 0 1 -1.91-1.22 2.65 2.65 0 0 1 -.87-2.11c0-1-.06-2-.09-2.88l6.75-3.92a3 3 0 0 0 2.47 1.11 30.57 30.57 0 0 0 3-.69c-1.44 2.1-2.8 4.12-4.2 6.17l1 .4a3.32 3.32 0 0 1 2.35 3.46c0 1.1 0 2.21.08 3.36-1.12.57-2.37 1.18-3.6 1.82-.52.27-1 .56-1.52.88-.77.51-1.37 1-2.42.25s-3.1-.15-3.86.85a1.17 1.17 0 0 0 .17 1.88c.15.13.15.43.22.65-.25.07-.59.28-.73.18a1.49 1.49 0 0 1 -.56-.8 3.37 3.37 0 0 1 .71-3c1.11-1.54 2.26-3.05 3.39-4.57zm0-8.29v2.51c0 1.63.32 2.06 1.85 2.56a.53.53 0 0 0 .71-.22c.73-1 1.48-2 2.21-3.08.28-.39.55-.8.83-1.2-2.31 1.45-3.82 1.46-5.64-.57zm1.58 7.22-3.39 4.62c1.73-.8 3.33-.92 4.84.5 0-1.32 0-2.55 0-3.78-.1-.82-.72-1.16-1.45-1.34z"/><path d="m24.19 13.24c1.19-1.2 2.36-2.37 3.54-3.53a.67.67 0 0 1 .45-.2 5.71 5.71 0 0 1 5.66 4.16 7.35 7.35 0 0 1 .16 1.62v7.13a3.31 3.31 0 0 0 .53 1.58c.29.49.69.32 1-.07.2-.21.42-.75.87-.13-1 1-2 2.07-3.09 3.07a.75.75 0 0 1 -.64 0 4.22 4.22 0 0 1 -2.8-3c-.47.34-.89.64-1.3.95l-2.24 1.69c-.89.67-1 .67-1.94 0a4.48 4.48 0 0 1 -.24-7.35 11 11 0 0 1 4.78-2l.93-.18c-.07-.79-.07-1.55-.21-2.29a2.1 2.1 0 0 0 -1.3-1.61 11.77 11.77 0 0 0 -1.35-.42 1.75 1.75 0 0 0 -2.08.62c-.22.27-.47.47-.73-.04zm5.67 4.32a4.75 4.75 0 0 0 -2.86 1.77 3.77 3.77 0 0 0 -.21 4 1.32 1.32 0 0 0 2.23.52 3.36 3.36 0 0 0 .52-.39.87.87 0 0 0 .28-.53c.05-1.73.04-3.49.04-5.37z"/><path d="m79 13.3c1.18-1.17 2.33-2.3 3.45-3.46a.73.73 0 0 1 .92-.19 3.51 3.51 0 0 1 2.14 2.24c.06.18.11.36.19.63l3.08-3c1.36 1.25 1.36 1.25 3.6.78a4.3 4.3 0 0 1 -1.92 3.13 3.59 3.59 0 0 1 -4.55-.56 1.63 1.63 0 0 0 -.11.4v8.63a2 2 0 0 0 1.35 2 .78.78 0 0 0 1.07-.25 8.48 8.48 0 0 1 .63-.72l.29.44c-1.12 1.14-2.23 2.3-3.37 3.43a.8.8 0 0 1 -.65.06 4.36 4.36 0 0 1 -3.46-4.68c0-2.31 0-4.62 0-6.93a3.91 3.91 0 0 0 -.13-1.42 2.84 2.84 0 0 0 -.9-1.11c-.09-.06-.57.33-.83.56s-.53.6-.8.02z"/><path d="m155.89 14.39 7.63-4.7a2.4 2.4 0 0 0 3.28.61 3.58 3.58 0 0 1 -1.8 3.32 3.83 3.83 0 0 1 -1.66.51 3.62 3.62 0 0 1 -1.74-.37 7.88 7.88 0 0 1 -1.4-1.16v.67 6.54a4 4 0 0 0 3.92 4.28.9.9 0 0 0 .61-.25c.54-.51 1-1.06 1.54-1.59.46.21.48.39.17.69-1.32 1.27-2.62 2.56-3.94 3.82a.86.86 0 0 1 -.56.22 6.32 6.32 0 0 1 -5.79-5.09 8.59 8.59 0 0 1 -.09-1.43c0-1.44 0-2.88 0-4.32-.06-.62-.14-1.24-.17-1.75z"/><path d="m132.25 22.14.3.31c-1.13 1.2-2.28 2.27-3.25 3.49a2.28 2.28 0 0 1 -3 .68 5.94 5.94 0 0 1 -4.3-5.93c0-1.61 0-3.23 0-4.84 0-.51-.08-1-.12-1.45l7.65-4.71a2.43 2.43 0 0 0 3.3.61 3.87 3.87 0 0 1 -2.08 3.48c-1.5.78-2.69.49-4.54-1.19a5.27 5.27 0 0 0 -.07.58v6.74a4 4 0 0 0 4 4.18.93.93 0 0 0 .6-.28c.45-.51.95-1.07 1.51-1.67z"/><path d="m141.69 23.08.38.36c-1.11 1.13-2.19 2.25-3.29 3.33a.71.71 0 0 1 -.62.12 4 4 0 0 1 -2.85-4c0-2.68 0-5.36 0-8a2.48 2.48 0 0 0 -.81-2.11c-.32-.25-.55-.29-.83 0a3 3 0 0 1 -.65.64c-.12.09-.34 0-.51 0v-.21c1.18-1.18 2.36-2.37 3.56-3.54a.6.6 0 0 1 .55-.07 4.81 4.81 0 0 1 2.86 4.46v7.92a2 2 0 0 0 .69 1.75c.36.26.68.39 1-.07a8.1 8.1 0 0 1 .52-.58z"/><path d="m138.54 4.85-2.37 2.25-2.44-2.23 2.45-2.57z"/></g></svg>