<svg class="brands__image brands__image--huffpost" xmlns="http://www.w3.org/2000/svg" viewBox="0 0 855.23 100">
  <path d="M110.57 98h31.24l16.74-95.86h-31.23l-6.18 34.32H94.06l6.18-34.32H69L52.26 98h31.23l6.3-35.87h27.07zm65.68-96l-9.5 53.32a60.67 60.67 0 0 0-1.19 12c0 28.27 24.7 32.54 39.55 32.54 31.11 0 44.53-10.33 49.4-38.24L265 1.9h-31.27L224.82 52C222 67.7 220 75.89 208.31 75.89c-7.6 0-11.28-4-11.28-12.35a64.54 64.54 0 0 1 1.43-12l9-49.64h-31.21zm253.8 96h31.23l4.4-24.7h14.72c27.2 0 42.28-14.73 42.28-41.57 0-18.88-13.06-29.69-36-29.69h-39.89zm48.69-48.34h-9l4.16-22.56h8.43c6.89 0 10.57 3.44 10.57 9.74-.03 7.93-5.37 12.8-14.16 12.8zM583.37 0c-34 0-54.27 22-54.27 58.91 0 25.65 16.15 41.09 43.23 41.09 34 0 54.27-22 54.27-58.91C626.72 15.32 610.57 0 583.37 0zm-9.14 75.18c-8.08 0-12.83-5.82-12.83-15.56a53.39 53.39 0 0 1 1.07-10.57c2.38-12.59 6.41-24.11 19.12-24.11 8.08 0 12.83 5.82 12.83 15.56a53.39 53.39 0 0 1-1.07 10.57c-2.35 12.47-6.41 24.11-19.12 24.11zm161 22.8h31.24l12.35-70.19h23.52l4.51-25.65H727l-4.51 25.65h24.94zm-51.74-60.45c-9.86-3.09-13.89-4.39-13.89-9 0-3.08 2-6.77 7.95-6.77a10 10 0 0 1 9.5 6.18l27.56-7.48C711.4 6.89 699.76 0 679.69 0 641.92 0 639 25.3 639 33c0 15.67 8.32 25.29 26.37 30.28 4.75 1.31 10.21 2.73 10.21 8 0 4.16-3.08 6.77-8.43 6.77-4.87 0-10.09-2.85-11.87-7.84L628 77.55c3 14.26 16.39 22.33 37.41 22.33 16 0 42.87-4.27 42.87-33.25.15-14.49-8.04-23.99-24.79-29.1zM34.8 98L51.66 2.14H0V98zM820.31 2.14L803.56 98h51.67V2.14zM282.78 2L266 98h31.24l5-28.27h26.26l4.28-24.1h-26.25l3-17.82h36.7L350.71 2zm82 0L348 98h31.24l4.87-28.27h26.36l4.28-24.1h-26.27l3-17.82h36.7L432.66 2z" fill="#99a3ad"></path>
</svg>