<svg viewBox="0 0 744.66 100" xmlns="http://www.w3.org/2000/svg"><path d="m20.37 28.26c-7.21 6.53-9.83 21.32 3.17 30l51.88 35.6-25.16-57.66c-5.26-13.6-19.69-16.57-29.89-7.94m44.63-28.02c-8.4.17-21.06 10.21-15.43 25.55l26 61.35 9.14-64.53c2.14-16.04-10-23.44-19.71-22.37m23.79 19.91h4.92s2.63 0 3 1.24c-1.93 1.58-7.2 1.78-6.5 10.22l8.27 55.53 25.82-61.52c5.28-13.74-5.81-25.21-15.65-25.56-.46 0-.92-.06-1.4-.06-8.83 0-19 6.42-18.46 20.15m34.47 16.57-24.44 56.94 51.86-35.78c12-8.48 10-22 3.34-28.74a18.61 18.61 0 0 0 -13.42-5.59c-6.44 0-13.34 3.42-17.34 13.17m21.61 29.28-48.7 34h60c12.3 0 20.21-12.69 16.7-24.33-2.36-7.31-9.32-13.06-17.41-13.07a19 19 0 0 0 -10.59 3.4m-125.87 34h59.06l-48.72-34c-11.25-7.25-23.91-3-28.47 9-3.87 13.72 5.79 25 18.13 25m169.67-50.43c0 17.88 14.62 50.43 70.44 50.43 51.46 0 67.71-23.61 67.71-34.44h-39.82s-1.89 14.3-24.36 14.3-28.57-18.77-28.57-29.62 6.08-28.57 28.57-28.57 24.36 12.45 24.36 12.45h39.84c-.02-10.84-11.94-34.12-67.73-34.12s-70.44 34.66-70.44 49.57m417.83 0c0 17.88 14.64 50.43 70.44 50.43 51.46 0 67.72-23.61 67.72-34.44h-39.82s-1.9 14.3-24.38 14.3-28.58-18.77-28.58-29.62 6.12-28.57 28.58-28.57 24.38 12.45 24.38 12.45h39.82c0-10.84-11.92-34.12-67.72-34.12s-70.44 34.66-70.44 49.57m-170.79-47.9v60.53l-46.37-60.53h-52.16v95.88h35.76v-61.23l45.56 61.23h53v-95.88zm143.85 44.91c6.51 0 20.12-7.56 20.12-22.2 0-20.85-38.82-22.71-44.78-22.71h-71.52v95.88h71.52c34.4 0 48.22-10.87 48.22-29s-23.56-21.97-23.56-21.97zm-58.79-26.26h28.71c4.87 0 8.81 3.2 8.81 7.14s-3.94 7.12-8.81 7.12v.05h-28.71zm29.52 54.32v.13h-29.79v-17.6h29.79c6.37 0 11.51 3.91 11.51 8.73s-5.14 8.74-11.51 8.74z" fill="#99a3ad"/></svg>