<svg viewBox="0 0 545 167" xmlns="http://www.w3.org/2000/svg"><g fill="#339fd7"><circle cx="2.5" cy="18.5" r="2.5"/><circle cx="29.5" cy="18.5" r="2.5"/><circle cx="56.5" cy="18.5" r="2.5"/><circle cx="83.5" cy="18.5" r="2.5"/><circle cx="110.5" cy="18.5" r="2.5"/><circle cx="137.5" cy="18.5" r="2.5"/><circle cx="164.5" cy="18.5" r="2.5"/><circle cx="191.5" cy="18.5" r="2.5"/><circle cx="218.5" cy="18.5" r="2.5"/><circle cx="245.5" cy="18.5" r="2.5"/><circle cx="272.5" cy="18.5" r="2.5"/><circle cx="299.5" cy="18.5" r="2.5"/><circle cx="326.5" cy="18.5" r="2.5"/><circle cx="353.5" cy="18.5" r="2.5"/><circle cx="380.5" cy="18.5" r="2.5"/><circle cx="407.5" cy="18.5" r="2.5"/><circle cx="434.5" cy="18.5" r="2.5"/><circle cx="461.5" cy="18.5" r="2.5"/><circle cx="488.5" cy="18.5" r="2.5"/><circle cx="515.5" cy="18.5" r="2.5"/><circle cx="542.5" cy="18.5" r="2.5"/><circle cx="2.5" cy="45.5" r="2.5"/><circle cx="29.5" cy="45.5" r="2.5"/><circle cx="56.5" cy="45.5" r="2.5"/><circle cx="83.5" cy="45.5" r="2.5"/><circle cx="110.5" cy="45.5" r="2.5"/><circle cx="137.5" cy="45.5" r="2.5"/><circle cx="164.5" cy="45.5" r="2.5"/><circle cx="191.5" cy="45.5" r="2.5"/><circle cx="218.5" cy="45.5" r="2.5"/><circle cx="245.5" cy="45.5" r="2.5"/><circle cx="272.5" cy="45.5" r="2.5"/><circle cx="299.5" cy="45.5" r="2.5"/><circle cx="326.5" cy="45.5" r="2.5"/><circle cx="353.5" cy="45.5" r="2.5"/><circle cx="380.5" cy="45.5" r="2.5"/><circle cx="407.5" cy="45.5" r="2.5"/><circle cx="434.5" cy="45.5" r="2.5"/><circle cx="461.5" cy="45.5" r="2.5"/><circle cx="488.5" cy="45.5" r="2.5"/><circle cx="515.5" cy="45.5" r="2.5"/><circle cx="542.5" cy="45.5" r="2.5"/><circle cx="2.5" cy="72.5" r="2.5"/><circle cx="29.5" cy="72.5" r="2.5"/><circle cx="56.5" cy="72.5" r="2.5"/><circle cx="83.5" cy="72.5" r="2.5"/><circle cx="110.5" cy="72.5" r="2.5"/><circle cx="137.5" cy="72.5" r="2.5"/><circle cx="164.5" cy="72.5" r="2.5"/><circle cx="191.5" cy="72.5" r="2.5"/><circle cx="218.5" cy="72.5" r="2.5"/><circle cx="245.5" cy="72.5" r="2.5"/><circle cx="272.5" cy="72.5" r="2.5"/><circle cx="299.5" cy="72.5" r="2.5"/><circle cx="326.5" cy="72.5" r="2.5"/><circle cx="353.5" cy="72.5" r="2.5"/><circle cx="380.5" cy="72.5" r="2.5"/><circle cx="407.5" cy="72.5" r="2.5"/><circle cx="434.5" cy="72.5" r="2.5"/><circle cx="461.5" cy="72.5" r="2.5"/><circle cx="488.5" cy="72.5" r="2.5"/><circle cx="515.5" cy="72.5" r="2.5"/><circle cx="542.5" cy="72.5" r="2.5"/><circle cx="2.5" cy="99.5" r="2.5"/><circle cx="29.5" cy="99.5" r="2.5"/><circle cx="56.5" cy="99.5" r="2.5"/><circle cx="83.5" cy="99.5" r="2.5"/><circle cx="110.5" cy="99.5" r="2.5"/><circle cx="137.5" cy="99.5" r="2.5"/><circle cx="164.5" cy="99.5" r="2.5"/><circle cx="191.5" cy="99.5" r="2.5"/><circle cx="218.5" cy="99.5" r="2.5"/><circle cx="245.5" cy="99.5" r="2.5"/><circle cx="272.5" cy="99.5" r="2.5"/><circle cx="299.5" cy="99.5" r="2.5"/><circle cx="326.5" cy="99.5" r="2.5"/><circle cx="353.5" cy="99.5" r="2.5"/><circle cx="380.5" cy="99.5" r="2.5"/><circle cx="407.5" cy="99.5" r="2.5"/><circle cx="434.5" cy="99.5" r="2.5"/><circle cx="461.5" cy="99.5" r="2.5"/><circle cx="488.5" cy="99.5" r="2.5"/><circle cx="515.5" cy="99.5" r="2.5"/><circle cx="542.5" cy="99.5" r="2.5"/><circle cx="2.5" cy="126.5" r="2.5"/><circle cx="29.5" cy="126.5" r="2.5"/><circle cx="56.5" cy="126.5" r="2.5"/><circle cx="83.5" cy="126.5" r="2.5"/><circle cx="110.5" cy="126.5" r="2.5"/><circle cx="137.5" cy="126.5" r="2.5"/><circle cx="164.5" cy="126.5" r="2.5"/><circle cx="191.5" cy="126.5" r="2.5"/><circle cx="218.5" cy="126.5" r="2.5"/><circle cx="245.5" cy="126.5" r="2.5"/><circle cx="272.5" cy="126.5" r="2.5"/><circle cx="299.5" cy="126.5" r="2.5"/><circle cx="326.5" cy="126.5" r="2.5"/><circle cx="353.5" cy="126.5" r="2.5"/><circle cx="380.5" cy="126.5" r="2.5"/><circle cx="407.5" cy="126.5" r="2.5"/><circle cx="434.5" cy="126.5" r="2.5"/><circle cx="461.5" cy="126.5" r="2.5"/><circle cx="488.5" cy="126.5" r="2.5"/><circle cx="515.5" cy="126.5" r="2.5"/><circle cx="542.5" cy="126.5" r="2.5"/><circle cx="2.5" cy="153.5" r="2.5"/><circle cx="29.5" cy="153.5" r="2.5"/><circle cx="56.5" cy="153.5" r="2.5"/><circle cx="83.5" cy="153.5" r="2.5"/><circle cx="110.5" cy="153.5" r="2.5"/><circle cx="137.5" cy="153.5" r="2.5"/><circle cx="164.5" cy="153.5" r="2.5"/><circle cx="191.5" cy="153.5" r="2.5"/><circle cx="218.5" cy="153.5" r="2.5"/><circle cx="245.5" cy="153.5" r="2.5"/><circle cx="272.5" cy="153.5" r="2.5"/><circle cx="299.5" cy="153.5" r="2.5"/><circle cx="326.5" cy="153.5" r="2.5"/><circle cx="353.5" cy="153.5" r="2.5"/><circle cx="380.5" cy="153.5" r="2.5"/><circle cx="407.5" cy="153.5" r="2.5"/><circle cx="434.5" cy="153.5" r="2.5"/><circle cx="461.5" cy="153.5" r="2.5"/><circle cx="488.5" cy="153.5" r="2.5"/><circle cx="515.5" cy="153.5" r="2.5"/><circle cx="542.5" cy="153.5" r="2.5"/></g></svg>