<svg viewBox="0 0 516 144" xmlns="http://www.w3.org/2000/svg"><g fill="#339fd7"><path d="m19 9h-8v-8a1 1 0 0 0 -2 0v8h-8a1 1 0 0 0 0 2h8v8a1 1 0 0 0 2 0v-8h8a1 1 0 0 0 0-2z"/><path d="m50 9h-8v-8a1 1 0 0 0 -2 0v8h-8a1 1 0 0 0 0 2h8v8a1 1 0 0 0 2 0v-8h8a1 1 0 0 0 0-2z"/><path d="m81 9h-8v-8a1 1 0 0 0 -2 0v8h-8a1 1 0 0 0 0 2h8v8a1 1 0 0 0 2 0v-8h8a1 1 0 0 0 0-2z"/><path d="m112 9h-8v-8a1 1 0 0 0 -2 0v8h-8a1 1 0 0 0 0 2h8v8a1 1 0 0 0 2 0v-8h8a1 1 0 0 0 0-2z"/><path d="m143 9h-8v-8a1 1 0 0 0 -2 0v8h-8a1 1 0 0 0 0 2h8v8a1 1 0 0 0 2 0v-8h8a1 1 0 0 0 0-2z"/><path d="m174 9h-8v-8a1 1 0 0 0 -2 0v8h-8a1 1 0 0 0 0 2h8v8a1 1 0 0 0 2 0v-8h8a1 1 0 0 0 0-2z"/><path d="m205 9h-8v-8a1 1 0 0 0 -2 0v8h-8a1 1 0 0 0 0 2h8v8a1 1 0 0 0 2 0v-8h8a1 1 0 0 0 0-2z"/><path d="m236 9h-8v-8a1 1 0 0 0 -2 0v8h-8a1 1 0 0 0 0 2h8v8a1 1 0 0 0 2 0v-8h8a1 1 0 0 0 0-2z"/><path d="m267 9h-8v-8a1 1 0 0 0 -2 0v8h-8a1 1 0 0 0 0 2h8v8a1 1 0 0 0 2 0v-8h8a1 1 0 0 0 0-2z"/><path d="m298 9h-8v-8a1 1 0 0 0 -2 0v8h-8a1 1 0 0 0 0 2h8v8a1 1 0 0 0 2 0v-8h8a1 1 0 0 0 0-2z"/><path d="m329 9h-8v-8a1 1 0 0 0 -2 0v8h-8a1 1 0 0 0 0 2h8v8a1 1 0 0 0 2 0v-8h8a1 1 0 0 0 0-2z"/><path d="m360 9h-8v-8a1 1 0 0 0 -2 0v8h-8a1 1 0 0 0 0 2h8v8a1 1 0 0 0 2 0v-8h8a1 1 0 0 0 0-2z"/><path d="m391 9h-8v-8a1 1 0 0 0 -2 0v8h-8a1 1 0 0 0 0 2h8v8a1 1 0 0 0 2 0v-8h8a1 1 0 0 0 0-2z"/><path d="m422 9h-8v-8a1 1 0 0 0 -2 0v8h-8a1 1 0 0 0 0 2h8v8a1 1 0 0 0 2 0v-8h8a1 1 0 0 0 0-2z"/><path d="m453 9h-8v-8a1 1 0 0 0 -2 0v8h-8a1 1 0 0 0 0 2h8v8a1 1 0 0 0 2 0v-8h8a1 1 0 0 0 0-2z"/><path d="m484 9h-8v-8a1 1 0 0 0 -2 0v8h-8a1 1 0 0 0 0 2h8v8a1 1 0 0 0 2 0v-8h8a1 1 0 0 0 0-2z"/><path d="m19 40h-8v-8a1 1 0 0 0 -2 0v8h-8a1 1 0 0 0 0 2h8v8a1 1 0 0 0 2 0v-8h8a1 1 0 0 0 0-2z"/><path d="m50 40h-8v-8a1 1 0 0 0 -2 0v8h-8a1 1 0 0 0 0 2h8v8a1 1 0 0 0 2 0v-8h8a1 1 0 0 0 0-2z"/><path d="m81 40h-8v-8a1 1 0 0 0 -2 0v8h-8a1 1 0 0 0 0 2h8v8a1 1 0 0 0 2 0v-8h8a1 1 0 0 0 0-2z"/><path d="m112 40h-8v-8a1 1 0 0 0 -2 0v8h-8a1 1 0 0 0 0 2h8v8a1 1 0 0 0 2 0v-8h8a1 1 0 0 0 0-2z"/><path d="m143 40h-8v-8a1 1 0 0 0 -2 0v8h-8a1 1 0 0 0 0 2h8v8a1 1 0 0 0 2 0v-8h8a1 1 0 0 0 0-2z"/><path d="m174 40h-8v-8a1 1 0 0 0 -2 0v8h-8a1 1 0 0 0 0 2h8v8a1 1 0 0 0 2 0v-8h8a1 1 0 0 0 0-2z"/><path d="m205 40h-8v-8a1 1 0 0 0 -2 0v8h-8a1 1 0 0 0 0 2h8v8a1 1 0 0 0 2 0v-8h8a1 1 0 0 0 0-2z"/><path d="m236 40h-8v-8a1 1 0 0 0 -2 0v8h-8a1 1 0 0 0 0 2h8v8a1 1 0 0 0 2 0v-8h8a1 1 0 0 0 0-2z"/><path d="m267 40h-8v-8a1 1 0 0 0 -2 0v8h-8a1 1 0 0 0 0 2h8v8a1 1 0 0 0 2 0v-8h8a1 1 0 0 0 0-2z"/><path d="m298 40h-8v-8a1 1 0 0 0 -2 0v8h-8a1 1 0 0 0 0 2h8v8a1 1 0 0 0 2 0v-8h8a1 1 0 0 0 0-2z"/><path d="m329 40h-8v-8a1 1 0 0 0 -2 0v8h-8a1 1 0 0 0 0 2h8v8a1 1 0 0 0 2 0v-8h8a1 1 0 0 0 0-2z"/><path d="m360 40h-8v-8a1 1 0 0 0 -2 0v8h-8a1 1 0 0 0 0 2h8v8a1 1 0 0 0 2 0v-8h8a1 1 0 0 0 0-2z"/><path d="m391 40h-8v-8a1 1 0 0 0 -2 0v8h-8a1 1 0 0 0 0 2h8v8a1 1 0 0 0 2 0v-8h8a1 1 0 0 0 0-2z"/><path d="m422 40h-8v-8a1 1 0 0 0 -2 0v8h-8a1 1 0 0 0 0 2h8v8a1 1 0 0 0 2 0v-8h8a1 1 0 0 0 0-2z"/><path d="m453 40h-8v-8a1 1 0 0 0 -2 0v8h-8a1 1 0 0 0 0 2h8v8a1 1 0 0 0 2 0v-8h8a1 1 0 0 0 0-2z"/><path d="m484 40h-8v-8a1 1 0 0 0 -2 0v8h-8a1 1 0 0 0 0 2h8v8a1 1 0 0 0 2 0v-8h8a1 1 0 0 0 0-2z"/><path d="m19 71h-8v-8a1 1 0 0 0 -2 0v8h-8a1 1 0 0 0 0 2h8v8a1 1 0 0 0 2 0v-8h8a1 1 0 0 0 0-2z"/><path d="m50 71h-8v-8a1 1 0 0 0 -2 0v8h-8a1 1 0 0 0 0 2h8v8a1 1 0 0 0 2 0v-8h8a1 1 0 0 0 0-2z"/><path d="m81 71h-8v-8a1 1 0 0 0 -2 0v8h-8a1 1 0 0 0 0 2h8v8a1 1 0 0 0 2 0v-8h8a1 1 0 0 0 0-2z"/><path d="m112 71h-8v-8a1 1 0 0 0 -2 0v8h-8a1 1 0 0 0 0 2h8v8a1 1 0 0 0 2 0v-8h8a1 1 0 0 0 0-2z"/><path d="m143 71h-8v-8a1 1 0 0 0 -2 0v8h-8a1 1 0 0 0 0 2h8v8a1 1 0 0 0 2 0v-8h8a1 1 0 0 0 0-2z"/><path d="m174 71h-8v-8a1 1 0 0 0 -2 0v8h-8a1 1 0 0 0 0 2h8v8a1 1 0 0 0 2 0v-8h8a1 1 0 0 0 0-2z"/><path d="m205 71h-8v-8a1 1 0 0 0 -2 0v8h-8a1 1 0 0 0 0 2h8v8a1 1 0 0 0 2 0v-8h8a1 1 0 0 0 0-2z"/><path d="m236 71h-8v-8a1 1 0 0 0 -2 0v8h-8a1 1 0 0 0 0 2h8v8a1 1 0 0 0 2 0v-8h8a1 1 0 0 0 0-2z"/><path d="m267 71h-8v-8a1 1 0 0 0 -2 0v8h-8a1 1 0 0 0 0 2h8v8a1 1 0 0 0 2 0v-8h8a1 1 0 0 0 0-2z"/><path d="m298 71h-8v-8a1 1 0 0 0 -2 0v8h-8a1 1 0 0 0 0 2h8v8a1 1 0 0 0 2 0v-8h8a1 1 0 0 0 0-2z"/><path d="m329 71h-8v-8a1 1 0 0 0 -2 0v8h-8a1 1 0 0 0 0 2h8v8a1 1 0 0 0 2 0v-8h8a1 1 0 0 0 0-2z"/><path d="m360 71h-8v-8a1 1 0 0 0 -2 0v8h-8a1 1 0 0 0 0 2h8v8a1 1 0 0 0 2 0v-8h8a1 1 0 0 0 0-2z"/><path d="m391 71h-8v-8a1 1 0 0 0 -2 0v8h-8a1 1 0 0 0 0 2h8v8a1 1 0 0 0 2 0v-8h8a1 1 0 0 0 0-2z"/><path d="m422 71h-8v-8a1 1 0 0 0 -2 0v8h-8a1 1 0 0 0 0 2h8v8a1 1 0 0 0 2 0v-8h8a1 1 0 0 0 0-2z"/><path d="m453 71h-8v-8a1 1 0 0 0 -2 0v8h-8a1 1 0 0 0 0 2h8v8a1 1 0 0 0 2 0v-8h8a1 1 0 0 0 0-2z"/><path d="m484 71h-8v-8a1 1 0 0 0 -2 0v8h-8a1 1 0 0 0 0 2h8v8a1 1 0 0 0 2 0v-8h8a1 1 0 0 0 0-2z"/><path d="m19 102h-8v-8a1 1 0 0 0 -2 0v8h-8a1 1 0 0 0 0 2h8v8a1 1 0 0 0 2 0v-8h8a1 1 0 0 0 0-2z"/><path d="m50 102h-8v-8a1 1 0 0 0 -2 0v8h-8a1 1 0 0 0 0 2h8v8a1 1 0 0 0 2 0v-8h8a1 1 0 0 0 0-2z"/><path d="m81 102h-8v-8a1 1 0 0 0 -2 0v8h-8a1 1 0 0 0 0 2h8v8a1 1 0 0 0 2 0v-8h8a1 1 0 0 0 0-2z"/><path d="m112 102h-8v-8a1 1 0 0 0 -2 0v8h-8a1 1 0 0 0 0 2h8v8a1 1 0 0 0 2 0v-8h8a1 1 0 0 0 0-2z"/><path d="m143 102h-8v-8a1 1 0 0 0 -2 0v8h-8a1 1 0 0 0 0 2h8v8a1 1 0 0 0 2 0v-8h8a1 1 0 0 0 0-2z"/><path d="m174 102h-8v-8a1 1 0 0 0 -2 0v8h-8a1 1 0 0 0 0 2h8v8a1 1 0 0 0 2 0v-8h8a1 1 0 0 0 0-2z"/><path d="m205 102h-8v-8a1 1 0 0 0 -2 0v8h-8a1 1 0 0 0 0 2h8v8a1 1 0 0 0 2 0v-8h8a1 1 0 0 0 0-2z"/><path d="m236 102h-8v-8a1 1 0 0 0 -2 0v8h-8a1 1 0 0 0 0 2h8v8a1 1 0 0 0 2 0v-8h8a1 1 0 0 0 0-2z"/><path d="m267 102h-8v-8a1 1 0 0 0 -2 0v8h-8a1 1 0 0 0 0 2h8v8a1 1 0 0 0 2 0v-8h8a1 1 0 0 0 0-2z"/><path d="m298 102h-8v-8a1 1 0 0 0 -2 0v8h-8a1 1 0 0 0 0 2h8v8a1 1 0 0 0 2 0v-8h8a1 1 0 0 0 0-2z"/><path d="m329 102h-8v-8a1 1 0 0 0 -2 0v8h-8a1 1 0 0 0 0 2h8v8a1 1 0 0 0 2 0v-8h8a1 1 0 0 0 0-2z"/><path d="m360 102h-8v-8a1 1 0 0 0 -2 0v8h-8a1 1 0 0 0 0 2h8v8a1 1 0 0 0 2 0v-8h8a1 1 0 0 0 0-2z"/><path d="m391 102h-8v-8a1 1 0 0 0 -2 0v8h-8a1 1 0 0 0 0 2h8v8a1 1 0 0 0 2 0v-8h8a1 1 0 0 0 0-2z"/><path d="m422 102h-8v-8a1 1 0 0 0 -2 0v8h-8a1 1 0 0 0 0 2h8v8a1 1 0 0 0 2 0v-8h8a1 1 0 0 0 0-2z"/><path d="m453 102h-8v-8a1 1 0 0 0 -2 0v8h-8a1 1 0 0 0 0 2h8v8a1 1 0 0 0 2 0v-8h8a1 1 0 0 0 0-2z"/><path d="m484 102h-8v-8a1 1 0 0 0 -2 0v8h-8a1 1 0 0 0 0 2h8v8a1 1 0 0 0 2 0v-8h8a1 1 0 0 0 0-2z"/><path d="m19 133h-8v-8a1 1 0 0 0 -2 0v8h-8a1 1 0 0 0 0 2h8v8a1 1 0 0 0 2 0v-8h8a1 1 0 0 0 0-2z"/><path d="m50 133h-8v-8a1 1 0 0 0 -2 0v8h-8a1 1 0 0 0 0 2h8v8a1 1 0 0 0 2 0v-8h8a1 1 0 0 0 0-2z"/><path d="m81 133h-8v-8a1 1 0 0 0 -2 0v8h-8a1 1 0 0 0 0 2h8v8a1 1 0 0 0 2 0v-8h8a1 1 0 0 0 0-2z"/><path d="m112 133h-8v-8a1 1 0 0 0 -2 0v8h-8a1 1 0 0 0 0 2h8v8a1 1 0 0 0 2 0v-8h8a1 1 0 0 0 0-2z"/><path d="m143 133h-8v-8a1 1 0 0 0 -2 0v8h-8a1 1 0 0 0 0 2h8v8a1 1 0 0 0 2 0v-8h8a1 1 0 0 0 0-2z"/><path d="m174 133h-8v-8a1 1 0 0 0 -2 0v8h-8a1 1 0 0 0 0 2h8v8a1 1 0 0 0 2 0v-8h8a1 1 0 0 0 0-2z"/><path d="m205 133h-8v-8a1 1 0 0 0 -2 0v8h-8a1 1 0 0 0 0 2h8v8a1 1 0 0 0 2 0v-8h8a1 1 0 0 0 0-2z"/><path d="m236 133h-8v-8a1 1 0 0 0 -2 0v8h-8a1 1 0 0 0 0 2h8v8a1 1 0 0 0 2 0v-8h8a1 1 0 0 0 0-2z"/><path d="m267 133h-8v-8a1 1 0 0 0 -2 0v8h-8a1 1 0 0 0 0 2h8v8a1 1 0 0 0 2 0v-8h8a1 1 0 0 0 0-2z"/><path d="m298 133h-8v-8a1 1 0 0 0 -2 0v8h-8a1 1 0 0 0 0 2h8v8a1 1 0 0 0 2 0v-8h8a1 1 0 0 0 0-2z"/><path d="m329 133h-8v-8a1 1 0 0 0 -2 0v8h-8a1 1 0 0 0 0 2h8v8a1 1 0 0 0 2 0v-8h8a1 1 0 0 0 0-2z"/><path d="m360 133h-8v-8a1 1 0 0 0 -2 0v8h-8a1 1 0 0 0 0 2h8v8a1 1 0 0 0 2 0v-8h8a1 1 0 0 0 0-2z"/><path d="m391 133h-8v-8a1 1 0 0 0 -2 0v8h-8a1 1 0 0 0 0 2h8v8a1 1 0 0 0 2 0v-8h8a1 1 0 0 0 0-2z"/><path d="m422 133h-8v-8a1 1 0 0 0 -2 0v8h-8a1 1 0 0 0 0 2h8v8a1 1 0 0 0 2 0v-8h8a1 1 0 0 0 0-2z"/><path d="m453 133h-8v-8a1 1 0 0 0 -2 0v8h-8a1 1 0 0 0 0 2h8v8a1 1 0 0 0 2 0v-8h8a1 1 0 0 0 0-2z"/><path d="m484 133h-8v-8a1 1 0 0 0 -2 0v8h-8a1 1 0 0 0 0 2h8v8a1 1 0 0 0 2 0v-8h8a1 1 0 0 0 0-2z"/><path d="m515 9h-8v-8a1 1 0 0 0 -2 0v8h-8a1 1 0 0 0 0 2h8v8a1 1 0 0 0 2 0v-8h8a1 1 0 0 0 0-2z"/><path d="m515 40h-8v-8a1 1 0 0 0 -2 0v8h-8a1 1 0 0 0 0 2h8v8a1 1 0 0 0 2 0v-8h8a1 1 0 0 0 0-2z"/><path d="m515 71h-8v-8a1 1 0 0 0 -2 0v8h-8a1 1 0 0 0 0 2h8v8a1 1 0 0 0 2 0v-8h8a1 1 0 0 0 0-2z"/><path d="m515 102h-8v-8a1 1 0 0 0 -2 0v8h-8a1 1 0 0 0 0 2h8v8a1 1 0 0 0 2 0v-8h8a1 1 0 0 0 0-2z"/><path d="m515 133h-8v-8a1 1 0 0 0 -2 0v8h-8a1 1 0 0 0 0 2h8v8a1 1 0 0 0 2 0v-8h8a1 1 0 0 0 0-2z"/></g></svg>