<svg fill="none" height="100" viewBox="0 0 90 100" width="90" xmlns="http://www.w3.org/2000/svg"><path d="m88.0714 13.9955c-.1795-1.2893-1.1072-2.3499-2.3612-2.6985l-40.192-11.177391c-.573-.1594785-1.1782-.1594785-1.7517 0l-40.19194 11.177391c-1.25404.3486-2.18171 1.4087-2.36124 2.6985-.233114 1.6763-5.55123 41.2826 8.08938 60.9856 13.6245 19.6794 33.7235 24.7226 34.5723 24.9278.2523.061.5094.0911.7674.0911.2579 0 .515-.0305.7673-.0911.8492-.2052 20.9483-5.2484 34.5723-24.9278 13.6407-19.7025 8.3225-59.3089 8.0894-60.9856zm-17.5103 23.1226-27.415 27.415c-.6379.6379-1.4746.9573-2.3107.9573-.8362 0-1.6728-.319-2.3107-.9573l-16.9505-16.9504c-.613-.6127-.9573-1.4441-.9573-2.3107 0-.8667.3447-1.6981.9573-2.3107l3.3656-3.3656c1.2763-1.2758 3.3456-1.2763 4.6214 0l11.2742 11.2741 21.7387-21.7391c.6126-.6131 1.444-.9573 2.3107-.9573.8666 0 1.698.3442 2.3107.9573l3.3656 3.3656c1.2762 1.2763 1.2762 3.3455 0 4.6218z" fill="#3090d7"/></svg>