<svg width="68" height="66" viewBox="0 0 68 66" fill="none" xmlns="http://www.w3.org/2000/svg">
<g style="mix-blend-mode:multiply">
<rect x="14" y="10" width="54" height="54" rx="10" fill="#729BCD" fill-opacity="0.2"/>
</g>
<g style="mix-blend-mode:multiply">
<rect width="35" height="35" rx="10" fill="#729BCD" fill-opacity="0.1"/>
</g>
<path d="M40.0284 48.312C40.0284 49.944 41.3724 51.24 42.9564 51.24C44.5884 51.24 45.8844 49.944 45.8844 48.312V19.896C45.8844 18.264 44.6364 16.968 42.9564 16.968H42.8604C41.9964 16.968 41.1324 17.16 39.9804 17.496L34.8924 19.128C33.6924 19.464 32.9244 20.424 32.9244 21.672C32.9244 23.016 34.1244 24.168 35.5164 24.168C35.8044 24.168 36.2364 24.12 36.5724 24.024L40.0284 22.968V48.312Z" fill="#E7332E"/>
</svg>
