<svg width="68" height="66" viewBox="0 0 68 66" fill="none" xmlns="http://www.w3.org/2000/svg">
<g style="mix-blend-mode:multiply">
<rect x="14" y="10" width="54" height="54" rx="10" fill="#729BCD" fill-opacity="0.2"/>
</g>
<g style="mix-blend-mode:multiply">
<rect width="35" height="35" rx="10" fill="#729BCD" fill-opacity="0.1"/>
</g>
<path d="M28.3453 48.216C28.3453 49.944 29.6893 51 31.5133 51H50.5693C52.0093 51 53.1613 49.848 53.1613 48.408C53.1613 46.968 52.0093 45.816 50.5693 45.816H36.9373L43.8493 40.056C49.8013 35.208 52.5853 32.328 52.5853 27.048V26.952C52.5853 20.952 48.0733 16.92 41.4973 16.92C36.2173 16.92 33.0973 18.936 30.3613 22.344C29.9293 22.872 29.6893 23.544 29.6893 24.168C29.6893 25.656 30.8893 26.856 32.3773 26.856C33.3372 26.856 34.0093 26.424 34.4413 25.944C36.5053 23.448 38.3773 22.2 41.0653 22.2C44.1373 22.2 46.4893 24.12 46.4893 27.432C46.4893 30.456 44.8093 32.616 40.2013 36.504L29.8813 45.288C28.8733 46.104 28.3453 47.064 28.3453 48.216Z" fill="#E7332E"/>
</svg>
