<svg width="68" height="66" viewBox="0 0 68 66" fill="none" xmlns="http://www.w3.org/2000/svg">
<g style="mix-blend-mode:multiply">
<rect x="14" y="10" width="54" height="54" rx="10" fill="#729BCD" fill-opacity="0.2"/>
</g>
<g style="mix-blend-mode:multiply">
<rect width="35" height="35" rx="10" fill="#729BCD" fill-opacity="0.1"/>
</g>
<path d="M41.0921 51.576C48.1001 51.576 52.8521 47.112 52.8521 40.92V40.824C52.8521 34.632 48.0521 32.04 42.9641 31.416L50.8841 23.208C51.8921 22.2 52.5641 21.384 52.5641 19.992C52.5641 18.408 51.3161 17.4 49.6361 17.4H32.4521C31.0121 17.4 29.8601 18.552 29.8601 19.992C29.8601 21.384 31.0121 22.536 32.4521 22.536H44.6441L36.7721 30.936C35.8601 31.848 35.5241 32.568 35.5241 33.336C35.5241 34.728 36.6761 35.88 38.0681 35.88H39.2681C43.9721 35.88 46.9961 37.752 46.9961 41.064V41.16C46.9961 44.232 44.5001 46.248 41.1881 46.248C38.0681 46.248 35.6681 45.144 33.5561 43.032C33.0761 42.6 32.4521 42.264 31.5881 42.264C30.0521 42.264 28.7561 43.56 28.7561 45.096C28.7561 45.96 29.1881 46.776 29.7161 47.208C32.4521 49.848 36.1481 51.576 41.0921 51.576Z" fill="#E7332E"/>
</svg>
