<svg xmlns="http://www.w3.org/2000/svg" id="Capa_1"
                                        enable-background="new 0 0 512 512" height="512" viewBox="0 0 512 512"
                                        width="512">
                                        <g>
                                            <g>
                                                <path clip-rule="evenodd"
                                                    d="m.007 127.496 240.823 17.521 271.163-17.521v-106.646-.292c-.175-11.33-9.49-20.558-20.879-20.558h-470.257c-11.36 0-20.704 9.228-20.85 20.558v.292z"
                                                    fill="#375e7d" fill-rule="evenodd" />
                                            </g>
                                            <g>
                                                <path clip-rule="evenodd"
                                                    d="m491.114 426.613c11.388 0 20.704-9.228 20.879-20.558v-.292-278.88h-511.986v278.88.292c.146 11.33 9.49 20.558 20.85 20.558z"
                                                    fill="#eff6ff" fill-rule="evenodd" />
                                            </g>
                                            <g>
                                                <path clip-rule="evenodd"
                                                    d="m60.979 83.518h133.859c11.038 0 20.09-9.023 20.09-20.091 0-11.038-9.052-20.062-20.09-20.062h-133.859c-11.038 0-20.09 9.023-20.09 20.062 0 11.067 9.052 20.091 20.09 20.091z"
                                                    fill="#eff6ff" fill-rule="evenodd" />
                                            </g>
                                            <g>
                                                <path clip-rule="evenodd"
                                                    d="m133.486 217.526h-33.056c-3.271 0-5.957 2.687-5.957 5.957v203.13 79.4c0 3.3 2.687 5.986 5.957 5.986h214.746c3.271 0 5.957-2.687 5.957-5.986v-33.028z"
                                                    fill="#375e7d" fill-rule="evenodd" />
                                            </g>
                                            <g>
                                                <path clip-rule="evenodd"
                                                    d="m274.236 63.427c0 11.097 8.994 20.091 20.091 20.091 11.067 0 20.061-8.994 20.061-20.091 0-11.068-8.994-20.062-20.061-20.062-11.097 0-20.091 8.994-20.091 20.062z"
                                                    fill="#eb5468" fill-rule="evenodd" />
                                            </g>
                                            <g>
                                                <path clip-rule="evenodd"
                                                    d="m352.583 63.427c0 11.097 8.994 20.091 20.09 20.091 11.067 0 20.061-8.994 20.061-20.091 0-11.068-8.994-20.062-20.061-20.062-11.096 0-20.09 8.994-20.09 20.062z"
                                                    fill="#ffd772" fill-rule="evenodd" />
                                            </g>
                                            <g>
                                                <path clip-rule="evenodd"
                                                    d="m430.93 63.427c0 11.097 8.994 20.091 20.09 20.091 11.067 0 20.061-8.994 20.061-20.091 0-11.068-8.994-20.062-20.061-20.062-11.096 0-20.09 8.994-20.09 20.062z"
                                                    fill="#3bc3a4" fill-rule="evenodd" />
                                            </g>
                                            <g>
                                                <path clip-rule="evenodd"
                                                    d="m372.294 0c25.493 35.481 44.211 78.875 53.497 126.883h86.202v-106.033-.292c-.175-11.33-9.49-20.558-20.879-20.558zm78.727 83.518c-11.096 0-20.09-8.994-20.09-20.091 0-11.068 8.994-20.062 20.09-20.062 11.067 0 20.061 8.994 20.061 20.062 0 11.097-8.994 20.091-20.061 20.091z"
                                                    fill="#2b4d66" fill-rule="evenodd" />
                                            </g>
                                            <g>
                                                <path clip-rule="evenodd"
                                                    d="m511.993 126.883h-86.202c3.241 16.762 5.344 34.079 6.22 51.834 4.263-.73 8.819.438 12.265 3.563l7.417 6.716 7.446 6.746c5.928 5.373 6.395 14.659.993 20.617l-19.214 21.172-12.557 13.842c-9.198 61.47-33.669 116.137-68.214 157.574v17.667h130.968c11.388 0 20.704-9.228 20.879-20.558v-.292-278.881z"
                                                    fill="#d9eeff" fill-rule="evenodd" />
                                            </g>
                                            <g>
                                                <path clip-rule="evenodd"
                                                    d="m321.133 472.986h-123.083c-11.797 15.974-25.493 29.231-40.561 39.014h157.687c3.271 0 5.957-2.687 5.957-5.986z"
                                                    fill="#2b4d66" fill-rule="evenodd" />
                                            </g>
                                            <g>
                                                <path clip-rule="evenodd"
                                                    d="m133.486 217.526v250.233c0 2.891 2.336 5.227 5.198 5.227h182.45 33.815c2.862 0 5.198-2.365 5.198-5.227v-41.146c0-148.697 0-21.931 0-242.903 0-2.862-2.336-5.198-5.198-5.198h-216.265c-2.862 0-5.198 2.336-5.198 5.198z"
                                                    fill="#3bc3a4" fill-rule="evenodd" />
                                            </g>
                                            <g>
                                                <path clip-rule="evenodd"
                                                    d="m253.678 472.986h67.455 33.815c2.862 0 5.198-2.365 5.198-5.227v-41.146-242.903c0-2.862-2.336-5.198-5.198-5.198h-97.912c56.301 81.182 56.009 214.168-3.358 294.474z"
                                                    fill="#00a887" fill-rule="evenodd" />
                                            </g>
                                            <g>
                                                <path clip-rule="evenodd"
                                                    d="m155.329 43.365c11.038 0 20.09 9.023 20.09 20.062 0 11.068-9.052 20.091-20.09 20.091h39.509c11.038 0 20.09-9.023 20.09-20.091 0-11.038-9.052-20.062-20.09-20.062z"
                                                    fill="#d9eeff" fill-rule="evenodd" />
                                            </g>
                                            <g>
                                                <path
                                                    d="m318.827 439.391h-23.157c-4.268 0-7.726-3.459-7.726-7.726s3.459-7.726 7.726-7.726h23.157c4.268 0 7.726 3.459 7.726 7.726s-3.458 7.726-7.726 7.726zm-56.359 0h-87.662c-4.268 0-7.726-3.459-7.726-7.726s3.459-7.726 7.726-7.726h87.662c4.268 0 7.726 3.459 7.726 7.726s-3.459 7.726-7.726 7.726z"
                                                    fill="#d9eeff" />
                                            </g>
                                            <g>
                                                <path
                                                    d="m257.854 395.88h-83.048c-4.268 0-7.726-3.459-7.726-7.726s3.459-7.726 7.726-7.726h83.048c4.268 0 7.726 3.459 7.726 7.726s-3.458 7.726-7.726 7.726z"
                                                    fill="#d9eeff" />
                                            </g>
                                            <g>
                                                <path
                                                    d="m257.854 352.398h-83.048c-4.268 0-7.726-3.459-7.726-7.726s3.459-7.726 7.726-7.726h83.048c4.268 0 7.726 3.459 7.726 7.726s-3.458 7.726-7.726 7.726z"
                                                    fill="#d9eeff" />
                                            </g>
                                            <g>
                                                <path
                                                    d="m266.848 308.887h-42.663c-4.268 0-7.726-3.459-7.726-7.726 0-4.268 3.459-7.726 7.726-7.726h42.663c4.268 0 7.726 3.459 7.726 7.726 0 4.268-3.458 7.726-7.726 7.726zm-75.281 0h-16.762c-4.268 0-7.726-3.459-7.726-7.726 0-4.268 3.459-7.726 7.726-7.726h16.762c4.268 0 7.726 3.459 7.726 7.726.001 4.268-3.458 7.726-7.726 7.726z"
                                                    fill="#d9eeff" />
                                            </g>
                                            <g>
                                                <path clip-rule="evenodd"
                                                    d="m404.416 204.502 12.907 23.975 23.595 9.053 19.214-21.172c5.402-5.957 4.935-15.243-.993-20.617l-7.446-6.746-7.417-6.716c-5.957-5.402-15.214-4.935-20.616.993z"
                                                    fill="#eb5468" fill-rule="evenodd" />
                                            </g>
                                            <g>
                                                <path clip-rule="evenodd"
                                                    d="m311.322 311.265-21.521 52.389c-.993 2.424-1.168 3.913-.526 4.497.613.555 2.073.234 4.409-.993l50.022-26.516c2.249-1.197 4.234-2.249 6.249-3.709l-4.614-29.582-30.953-2.628c-1.256 2.132-2.103 4.206-3.066 6.542z"
                                                    fill="#fed1a3" fill-rule="evenodd" />
                                            </g>
                                            <g>
                                                <path clip-rule="evenodd"
                                                    d="m314.388 304.724 35.567 32.21c1.548-1.11 3.066-2.453 4.701-4.264l5.49-6.045 80.771-89.096-36.502-33.028-44.269 48.797-41.962 46.285c-1.664 1.841-2.832 3.505-3.796 5.141z"
                                                    fill="#ffd772" fill-rule="evenodd" />
                                            </g>
                                            <g>
                                                <path clip-rule="evenodd"
                                                    d="m426.083 224.126 14.834 13.404 19.214-21.172c5.402-5.957 4.935-15.243-.993-20.617l-7.446-6.746-7.417-6.716c-.175-.146-.321-.292-.496-.438l.526.467c5.957 5.402 6.395 14.659 1.022 20.617z"
                                                    fill="#e5384f" fill-rule="evenodd" />
                                            </g>
                                            <g>
                                                <path clip-rule="evenodd"
                                                    d="m335.15 323.501c-2.015 1.489-4.03 2.541-6.249 3.709l-30.837 16.353-8.264 20.091c-.993 2.424-1.168 3.913-.526 4.497.613.555 2.073.234 4.409-.993l50.022-26.516c2.249-1.197 4.234-2.249 6.249-3.709z"
                                                    fill="#ffbc85" fill-rule="evenodd" />
                                            </g>
                                            <g>
                                                <path clip-rule="evenodd"
                                                    d="m335.15 323.501 14.805 13.433c1.548-1.11 3.066-2.453 4.701-4.264l5.49-6.045 68.214-75.254 12.557-13.842-14.834-13.404-80.742 89.066-5.49 6.074c-1.664 1.812-3.182 3.155-4.701 4.236z"
                                                    fill="#fbba58" fill-rule="evenodd" />
                                            </g>
                                            <g>
                                                <path clip-rule="evenodd"
                                                    d="m179.945 260.307h113.038c2.833 0 5.169-2.336 5.169-5.169v-30.166c0-2.833-2.336-5.14-5.169-5.14h-113.038c-2.833 0-5.139 2.307-5.139 5.14v30.166c0 2.833 2.307 5.169 5.139 5.169z"
                                                    fill="#eff6ff" fill-rule="evenodd" />
                                            </g>
                                            <g>
                                                <path clip-rule="evenodd"
                                                    d="m292.983 219.833h-38.4c5.198 12.703 9.49 26.253 12.703 40.474h25.697c2.833 0 5.169-2.336 5.169-5.169v-30.166c0-2.832-2.336-5.139-5.169-5.139z"
                                                    fill="#d9eeff" fill-rule="evenodd" />
                                            </g>
                                        </g>
                                    </svg>