<svg xmlns="http://www.w3.org/2000/svg" height="512" viewBox="0 0 52 58" width="512"><g id="Page-1" fill="none" fill-rule="evenodd"><g id="018---Email"><path id="Path" d="m51.62 23.07-20.84 16.21-3.55 2.76c-.7209166.570082-1.7390834.570082-2.46 0l-3.55-2.76-20.84-16.21c.21495685-.4772448.52453905-.9058971.91-1.26l3.71-3.42 14.51-13.39 4.46-4.12c1.1457224-1.0601261 2.9142776-1.0601261 4.06 0l4.46 4.12 14.51 13.39 3.71 3.42c.3854609.3541029.6950431.7827552.91 1.26z" fill="#f29c1f"/><path id="Path" d="m47 44.446v-37.446c-.0032948-1.10320187-.8967981-1.9967052-2-2h-38c-1.10320187.0032948-1.9967052.89679813-2 2v37.7z" fill="#ecf0f1"/><path id="Path" d="m21.22 39.28-19.8 17.47c-.91030252-.8722066-1.42349486-2.0792928-1.42-3.34v-28.66c-.00138553-.5814622.12850971-1.1557359.38-1.68z" fill="#f0c419"/><path id="Path" d="m50.58 56.75c-.8314096.804025-1.9434135 1.2524136-3.1 1.25h-42.96c-1.15658648.0024136-2.26859036-.445975-3.1-1.25l19.8-17.47 3.55 2.76c.7209166.570082 1.7390834.570082 2.46 0l3.55-2.76z" fill="#f3d55b"/><path id="Path" d="m52 24.75v28.66c.0034949 1.2607072-.5096975 2.4677934-1.42 3.34l-19.8-17.47 20.84-16.21c.2514903.5242641.3813855 1.0985378.38 1.68z" fill="#f0c419"/><path id="Shape" d="m26 10c-6.627417 0-12 5.372583-12 12s5.372583 12 12 12c2.5697615.0091674 5.0733661-.8142575 7.136-2.347.4434846-.3291617.5361617-.9555153.207-1.399-.3291617-.4434846-.9555153-.5361617-1.399-.207-1.7181202 1.2764286-3.803642 1.9616615-5.944 1.953-5.5228475 0-10-4.4771525-10-10s4.4771525-10 10-10 10 4.4771525 10 10v2c0 1.1045695-.8954305 2-2 2s-2-.8954305-2-2v-7c0-.5522847-.4477153-1-1-1s-1 .4477153-1 1v.54c-1.8116436-1.6293148-4.4287139-2.001258-6.6225745-.9412133-2.1938607 1.0600446-3.528817 3.3415552-3.3781467 5.7734306.1506702 2.4318753 1.7570442 4.5311517 4.0649774 5.3122815 2.3079332.7811297 4.8590763.0889827 6.4557438-1.7514988.8772335 1.5977884 2.7265483 2.3969546 4.4913359 1.9408939 1.7647875-.4560608 2.9953748-2.0511428 2.9886641-3.8738939v-2c-.0071648-6.624447-5.375553-11.9928352-12-12zm0 16c-2.209139 0-4-1.790861-4-4s1.790861-4 4-4 4 1.790861 4 4-1.790861 4-4 4z" fill="#e64c3c" fill-rule="nonzero"/></g></g></svg>