<svg xmlns="http://www.w3.org/2000/svg" id="Capa_1"
                                        enable-background="new 0 0 497 497" height="512" viewBox="0 0 497 497"
                                        width="512">
                                        <g>
                                            <path d="m435.078 422 61.922 30c0 16.57-13.43 30-30 30h-31.922z"
                                                fill="#87a9ff" />
                                            <path
                                                d="m0 452c0 16.57 13.43 30 30 30h154.324l64.176-19.25 64.176 19.25h122.402c16.57 0 30-13.43 30-30l-216.578-90z"
                                                fill="#b0d0ff" />
                                            <path
                                                d="m154.324 452 94.176-45 94.176 45c0 16.57-13.43 30-30 30h-128.352c-16.57 0-30-13.43-30-30z"
                                                fill="#87a9ff" />
                                            <path
                                                d="m444.181 306.748c-4.311-11.856-15.579-19.748-28.194-19.748h-32.487v135l81.579 30h31.921z"
                                                fill="#c4e3fa" />
                                            <path
                                                d="m412.259 306.748c-4.311-11.856-15.578-19.748-28.194-19.748h-303.052c-12.615 0-23.883 7.892-28.194 19.748l-52.819 145.252h465.078l-32.727-90-38.182-22.5 21.818-22.5z"
                                                fill="#e3f5ff" />
                                            <path
                                                d="m413.5 15h-30v272h30c16.569 0 30-13.431 30-30v-212c0-16.569-13.432-30-30-30z"
                                                fill="#384f63" />
                                            <path
                                                d="m413.5 257-60-105.847 60-106.153c0-16.569-13.431-30-30-30h-300c-16.569 0-30 13.431-30 30v212c0 16.569 13.431 30 30 30h300c16.568 0 30-13.431 30-30z"
                                                fill="#506480" />
                                            <path
                                                d="m413.5 45.002-29.993-.027c-.001.007-158.507 106.013-158.507 106.013s158.502 106.009 158.5 106.012h29.999c.001 0-.002-211.992.001-211.998z"
                                                fill="#738cff" />
                                            <path d="m83.5 45h300v212h-300z" fill="#87a9ff" />
                                            <path d="m432.351 362-16.364-45h-31.922l-21.818 22.5 38.181 22.5z"
                                                fill="#87a9ff" />
                                            <path d="m400.428 362-16.363-45h-303.052l-16.364 45z" fill="#b0d0ff" />
                                            <path d="m338.352 392h-30l-27.836 15.012 32.16 14.988h30z" fill="#87a9ff" />
                                            <path d="m158.648 392-4.324 30h158.352l-4.324-30z" fill="#b0d0ff" />
                                        </g>
                                    </svg>