<svg xmlns="http://www.w3.org/2000/svg" xmlns:xlink="http://www.w3.org/1999/xlink" viewBox="0 0 247.1 170.57"><defs><style>.cls-1{isolation:isolate;}.cls-2{opacity:0.34;}.cls-10,.cls-11,.cls-12,.cls-13,.cls-14,.cls-15,.cls-16,.cls-17,.cls-18,.cls-3,.cls-4,.cls-5,.cls-6,.cls-7,.cls-8,.cls-9{mix-blend-mode:color-burn;}.cls-3{fill:url(#linear-gradient);}.cls-4{fill:url(#linear-gradient-2);}.cls-5{fill:url(#linear-gradient-3);}.cls-6{fill:url(#linear-gradient-4);}.cls-7{fill:url(#linear-gradient-5);}.cls-8{fill:url(#linear-gradient-6);}.cls-9{fill:url(#linear-gradient-7);}.cls-10{fill:url(#linear-gradient-8);}.cls-11{fill:url(#linear-gradient-9);}.cls-12{fill:url(#linear-gradient-10);}.cls-13{fill:url(#linear-gradient-11);}.cls-14{fill:url(#linear-gradient-12);}.cls-15{fill:url(#linear-gradient-13);}.cls-16{fill:url(#linear-gradient-14);}.cls-17{fill:url(#linear-gradient-15);}.cls-18{fill:url(#linear-gradient-16);}.cls-19{fill:#fafafa;}</style><linearGradient id="linear-gradient" x1="84.54" y1="54.59" x2="132.83" y2="6.3" gradientUnits="userSpaceOnUse"><stop offset="0" stop-color="#bab9ba"/><stop offset="0.14" stop-color="#c8c7c8"/><stop offset="0.48" stop-color="#e4e3e4"/><stop offset="0.78" stop-color="#f5f5f5"/><stop offset="1" stop-color="#fbfbfb"/></linearGradient><linearGradient id="linear-gradient-2" x1="85.95" y1="53.18" x2="129.71" y2="9.42" xlink:href="#linear-gradient"/><linearGradient id="linear-gradient-3" x1="84.54" y1="112.38" x2="132.83" y2="64.09" xlink:href="#linear-gradient"/><linearGradient id="linear-gradient-4" x1="85.95" y1="110.97" x2="129.71" y2="67.22" xlink:href="#linear-gradient"/><linearGradient id="linear-gradient-5" x1="134.56" y1="83.6" x2="182.85" y2="35.31" xlink:href="#linear-gradient"/><linearGradient id="linear-gradient-6" x1="135.97" y1="82.19" x2="179.73" y2="38.43" xlink:href="#linear-gradient"/><linearGradient id="linear-gradient-7" x1="184.58" y1="112.38" x2="232.87" y2="64.09" xlink:href="#linear-gradient"/><linearGradient id="linear-gradient-8" x1="185.99" y1="110.97" x2="229.75" y2="67.22" xlink:href="#linear-gradient"/><linearGradient id="linear-gradient-9" x1="13.17" y1="76.84" x2="85.88" y2="4.12" gradientUnits="userSpaceOnUse"><stop offset="0" stop-color="#fbfbfb"/><stop offset="0.22" stop-color="#f5f5f5"/><stop offset="0.52" stop-color="#e4e3e4"/><stop offset="0.86" stop-color="#c8c7c8"/><stop offset="1" stop-color="#bab9ba"/></linearGradient><linearGradient id="linear-gradient-10" x1="15.29" y1="74.71" x2="81.17" y2="8.83" xlink:href="#linear-gradient-9"/><linearGradient id="linear-gradient-11" x1="13.17" y1="163.86" x2="85.88" y2="91.15" xlink:href="#linear-gradient-9"/><linearGradient id="linear-gradient-12" x1="15.29" y1="161.74" x2="81.17" y2="95.85" xlink:href="#linear-gradient-9"/><linearGradient id="linear-gradient-13" x1="88.49" y1="120.52" x2="161.2" y2="47.81" xlink:href="#linear-gradient-9"/><linearGradient id="linear-gradient-14" x1="90.61" y1="118.4" x2="156.5" y2="52.51" xlink:href="#linear-gradient-9"/><linearGradient id="linear-gradient-15" x1="163.81" y1="163.86" x2="236.52" y2="91.15" xlink:href="#linear-gradient-9"/><linearGradient id="linear-gradient-16" x1="165.93" y1="161.74" x2="231.82" y2="95.85" xlink:href="#linear-gradient-9"/></defs><title>hexagon</title><g class="cls-1"><g id="Layer_2" data-name="Layer 2"><g id="Layer_1-2" data-name="Layer 1"><g class="cls-2"><polygon class="cls-3" points="123.84 3.56 91.81 3.56 75.8 31.3 91.81 59.04 123.84 59.04 139.86 31.3 123.84 3.56"/><polygon class="cls-4" points="123.84 3.56 91.81 3.56 75.8 31.3 91.81 59.04 123.84 59.04 139.86 31.3 123.84 3.56"/><polygon class="cls-5" points="123.84 61.35 91.81 61.35 75.8 89.09 91.81 116.83 123.84 116.83 139.86 89.09 123.84 61.35"/><polygon class="cls-6" points="123.84 61.35 91.81 61.35 75.8 89.09 91.81 116.83 123.84 116.83 139.86 89.09 123.84 61.35"/><polygon class="cls-7" points="173.87 32.57 141.83 32.57 125.82 60.31 141.83 88.05 173.87 88.05 189.88 60.31 173.87 32.57"/><polygon class="cls-8" points="173.87 32.57 141.83 32.57 125.82 60.31 141.83 88.05 173.87 88.05 189.88 60.31 173.87 32.57"/><polygon class="cls-9" points="223.89 61.35 191.86 61.35 175.84 89.09 191.86 116.83 223.89 116.83 239.91 89.09 223.89 61.35"/><polygon class="cls-10" points="223.89 61.35 191.86 61.35 175.84 89.09 191.86 116.83 223.89 116.83 239.91 89.09 223.89 61.35"/><polygon class="cls-11" points="72.35 0 24.12 0 0 41.77 24.12 83.54 72.35 83.54 96.46 41.77 72.35 0"/><polygon class="cls-12" points="72.35 0 24.12 0 0 41.77 24.12 83.54 72.35 83.54 96.46 41.77 72.35 0"/><polygon class="cls-13" points="72.35 87.03 24.12 87.03 0 128.8 24.12 170.57 72.35 170.57 96.46 128.8 72.35 87.03"/><polygon class="cls-14" points="72.35 87.03 24.12 87.03 0 128.8 24.12 170.57 72.35 170.57 96.46 128.8 72.35 87.03"/><polygon class="cls-15" points="147.67 43.69 99.44 43.69 75.32 85.46 99.44 127.23 147.67 127.23 171.78 85.46 147.67 43.69"/><polygon class="cls-16" points="147.67 43.69 99.44 43.69 75.32 85.46 99.44 127.23 147.67 127.23 171.78 85.46 147.67 43.69"/><polygon class="cls-17" points="222.99 87.03 174.76 87.03 150.64 128.8 174.76 170.57 222.99 170.57 247.1 128.8 222.99 87.03"/><polygon class="cls-18" points="222.99 87.03 174.76 87.03 150.64 128.8 174.76 170.57 222.99 170.57 247.1 128.8 222.99 87.03"/><path class="cls-19" d="M50.1,8.19,65.51,34.87,50.1,61.55H19.29L3.89,34.87,19.29,8.19H50.1m.27-.46H19L3.35,34.87,19,62H50.37L66,34.87,50.37,7.73Z"/><path class="cls-19" d="M50.1,8.19,65.51,34.87,50.1,61.55H19.29L3.89,34.87,19.29,8.19H50.1m.27-.46H19L3.35,34.87,19,62H50.37L66,34.87,50.37,7.73Z"/><path class="cls-19" d="M50.1,64.74,65.51,91.42,50.1,118.11H19.29L3.89,91.42l15.4-26.68H50.1m.27-.46H19L3.35,91.42,19,118.57H50.37L66,91.42,50.37,64.28Z"/><path class="cls-19" d="M50.1,64.74,65.51,91.42,50.1,118.11H19.29L3.89,91.42l15.4-26.68H50.1m.27-.46H19L3.35,91.42,19,118.57H50.37L66,91.42,50.37,64.28Z"/><path class="cls-19" d="M99.05,36.58l15.4,26.68L99.05,89.94H68.24L52.83,63.26,68.24,36.58H99.05m.27-.46H68L52.3,63.26,68,90.4H99.32L115,63.26,99.32,36.12Z"/><path class="cls-19" d="M99.05,36.58l15.4,26.68L99.05,89.94H68.24L52.83,63.26,68.24,36.58H99.05m.27-.46H68L52.3,63.26,68,90.4H99.32L115,63.26,99.32,36.12Z"/><path class="cls-19" d="M148,64.74l15.4,26.68L148,118.11H117.19L101.78,91.42l15.41-26.68H148m.26-.46H116.92L101.25,91.42l15.67,27.15h31.34l15.67-27.15L148.26,64.28Z"/><path class="cls-19" d="M148,64.74l15.4,26.68L148,118.11H117.19L101.78,91.42l15.41-26.68H148m.26-.46H116.92L101.25,91.42l15.67,27.15h31.34l15.67-27.15L148.26,64.28Z"/></g></g></g></g></svg>