<svg xmlns="http://www.w3.org/2000/svg" xmlns:xlink="http://www.w3.org/1999/xlink" version="1.1">
                                <title>Menu</title>
                                <g fill="#1c172c">
                                    <path fill="#1c172c"
                                        d="M1,3h14c0.552,0,1-0.447,1-1s-0.448-1-1-1H1C0.448,1,0,1.447,0,2C0,2.553,0.448,3,1,3z">
                                    </path>
                                    <path data-color="color-2"
                                        d="M1,9h14c0.552,0,1-0.447,1-1s-0.448-1-1-1H1C0.448,7,0,7.447,0,8C0,8.553,0.448,9,1,9z">
                                    </path>
                                    <path fill="#1c172c"
                                        d="M1,15h8c0.552,0,1-0.447,1-1s-0.448-1-1-1H1c-0.552,0-1,0.447-1,1C0,14.553,0.448,15,1,15z">
                                    </path>
                                </g>
                            </svg>