<?xml version="1.0" encoding="UTF-8"?>
<svg width="232px" height="404px" viewBox="0 0 232 404" version="1.1" xmlns="http://www.w3.org/2000/svg" xmlns:xlink="http://www.w3.org/1999/xlink">
    <!-- Generator: Sketch 57.1 (83088) - https://sketch.com -->
    <title>Group 8</title>
    <desc>Created with Sketch.</desc>
    <g id="Page-1" stroke="none" stroke-width="1" fill="none" fill-rule="evenodd">
        <g id="Group-8" transform="translate(0.000000, -19.000000)" fill="#F1F1F1">
            <path d="M35,192.419629 L64.2400398,81.3210888 C75.9072562,36.9910975 121.301962,10.5126868 165.631953,22.1799032 C165.733274,22.2065698 165.834544,22.2334282 165.935763,22.2604783 L169.510773,23.2158761 C213.128056,34.872308 239.428534,79.2548592 228.707479,123.11143 L200.683252,237.75 L200.683252,237.75 L35,192.419629 Z" id="Path-3"></path>
            <path d="M30.8015687,204.75 L57.2522517,212.003 L24.2159556,337.06737 L139.464186,368.985413 L173.491252,243.877 L196,250.049615 L166.886584,360.916407 C155.243916,405.252852 109.863878,431.756394 65.5274332,420.113725 L65.1340984,420.009405 L65.1340984,420.009405 L62.0158833,419.174204 C18.4388573,407.502277 -7.83599213,363.160786 2.85403845,319.33255 L30.8015687,204.75 Z M59.4372974,358.804543 C56.7580292,358.138945 54.0452471,359.768949 53.3750944,362.447081 L53.3750944,362.447081 L52.2510291,366.95193 C52.2490966,366.95208 52.2489483,366.952675 52.2488001,366.95327 C51.5812439,369.63279 53.2122631,372.346132 55.892228,373.011904 L55.892228,373.011904 L95.953564,382.992494 C98.6328322,383.658092 101.345614,382.028088 102.015767,379.349955 L102.015767,379.349955 L103.139832,374.845107 C103.141765,374.844957 103.141913,374.844362 103.142061,374.843767 C103.809618,372.164247 102.178598,369.450905 99.4986333,368.785133 L99.4986333,368.785133 Z" id="Combined-Shape"></path>
        </g>
    </g>
</svg>