<svg xmlns="http://www.w3.org/2000/svg" xmlns:xlink="http://www.w3.org/1999/xlink" version="1.1" id="Capa_1" x="0px" y="0px" viewBox="0 0 512 512" style="enable-background:new 0 0 512 512;" xml:space="preserve">
                                    <path style="fill:#FFC477;" d="M408.2,89.405v311.611c0,0.622-0.01,1.244-0.042,1.866c-0.975,21.34-18.592,38.356-40.192,38.356  H141.789c-22.222,0-40.233-18.012-40.233-40.223V40.233c0-19.1,13.304-35.09,31.15-39.207C135.63,0.353,138.668,0,141.789,0h179.66  c6.108,0,12.07,1.39,17.472,4.003c10.869,5.231,13.93,11.842,33.462,31.813c22.471,24.399,27.836,26.9,32.415,37.465  C407.028,78.32,408.2,83.795,408.2,89.405z"/>
                                    <path style="fill:#FFDAAA;" d="M408.2,89.405v311.611c0,0.622-0.01,1.244-0.042,1.866c-2.924,0.674-5.962,1.027-9.084,1.027H172.897  c-22.222,0-40.233-18.012-40.233-40.223V2.903c0-0.633,0.01-1.255,0.041-1.877C135.63,0.353,138.668,0,141.789,0h179.66  c6.108,0,12.07,1.39,17.472,4.003c4.438,2.136,8.493,5.102,11.925,8.773l21.537,23.041l24.658,25.799  c3.287,3.432,5.9,7.383,7.756,11.666C407.028,78.32,408.2,83.795,408.2,89.405z"/>
                                    <path style="fill:#4CBA68;" d="M511.417,228.946v226.198c0,12.578-4.086,24.213-11.012,33.628  C490.066,502.854,473.382,512,454.562,512H306.818c-31.399,0-56.855-25.457-56.855-56.855V228.946  c0-23.466,14.227-43.614,34.52-52.293c6.854-2.935,14.403-4.563,22.336-4.563h147.743  C485.971,172.091,511.417,197.548,511.417,228.946z"/>
                                    <path style="fill:#7CCC92;" d="M511.417,228.946v226.198c0,12.578-4.086,24.213-11.012,33.628  c-6.854,2.935-14.403,4.563-22.336,4.563H330.326c-31.399,0-56.855-25.457-56.855-56.855V210.281  c0-12.578,4.086-24.213,11.012-33.628c6.854-2.935,14.403-4.563,22.336-4.563h147.743  C485.971,172.091,511.417,197.548,511.417,228.946z"/>
                                    <path style="fill:#2C733F;" d="M402.476,377.664v26.566c0,4.697-3.806,8.503-8.493,8.503h-26.577c-4.697,0-8.503-3.806-8.503-8.503  v-26.566c0-4.697,3.806-8.503,8.503-8.503h26.577C398.671,369.161,402.476,372.967,402.476,377.664z"/>
                                    <path style="fill:#1E81CE;" d="M472.345,223.616v28.464c0,10.121-8.202,18.333-18.333,18.333H307.368  c-10.121,0-18.333-8.213-18.333-18.333v-28.464c0-10.121,8.213-18.333,18.333-18.333h146.644  C464.143,205.283,472.345,213.496,472.345,223.616z"/>
                                    <path style="fill:#3D9AE2;" d="M472.345,223.616v28.464c0,10.121-8.202,18.333-18.333,18.333H338.476  c-10.121,0-18.333-8.213-18.333-18.333v-28.464c0-10.121,8.213-18.333,18.333-18.333h115.536  C464.143,205.283,472.345,213.496,472.345,223.616z"/>
                                    <g>
                                        <path style="fill:#2C733F;" d="M332.617,377.664v26.566c0,4.697-3.806,8.503-8.503,8.503h-26.577c-4.687,0-8.503-3.806-8.503-8.503   v-26.566c0-4.697,3.816-8.503,8.503-8.503h26.577C328.812,369.161,332.617,372.967,332.617,377.664z"/>
                                        <path style="fill:#2C733F;" d="M402.476,308.189v26.566c0,4.697-3.806,8.503-8.493,8.503h-26.577c-4.697,0-8.503-3.806-8.503-8.503   v-26.566c0-4.697,3.806-8.503,8.503-8.503h26.577C398.671,299.686,402.476,303.492,402.476,308.189z"/>
                                    </g>
                                    <path style="fill:#EE8700;" d="M473.185,308.189v26.566c0,4.697-3.806,8.503-8.503,8.503h-26.566c-4.697,0-8.503-3.806-8.503-8.503  v-26.566c0-4.697,3.806-8.503,8.503-8.503h26.566C469.38,299.686,473.185,303.492,473.185,308.189z"/>
                                    <g>
                                        <path style="fill:#2C733F;" d="M332.617,308.189v26.566c0,4.697-3.806,8.503-8.503,8.503h-26.577c-4.687,0-8.503-3.806-8.503-8.503   v-26.566c0-4.697,3.816-8.503,8.503-8.503h26.577C328.812,299.686,332.617,303.492,332.617,308.189z"/>
                                        <path style="fill:#2C733F;" d="M402.476,443.728v26.577c0,4.697-3.806,8.503-8.493,8.503h-26.577c-4.697,0-8.503-3.806-8.503-8.503   v-26.577c0-4.687,3.806-8.493,8.503-8.493h26.577C398.671,435.235,402.476,439.041,402.476,443.728z"/>
                                        <path style="fill:#2C733F;" d="M332.617,443.728v26.577c0,4.697-3.806,8.503-8.503,8.503h-26.577c-4.687,0-8.503-3.806-8.503-8.503   v-26.577c0-4.687,3.816-8.493,8.503-8.493h26.577C328.812,435.235,332.617,439.041,332.617,443.728z"/>
                                    </g>
                                    <path style="fill:#EE8700;" d="M473.185,381.791v82.509c0,8.016-6.491,14.507-14.496,14.507h-14.579  c-8.005,0-14.496-6.491-14.496-14.507v-82.509c0-6.979,5.662-12.63,12.63-12.63h18.312  C467.534,369.161,473.185,374.813,473.185,381.791z"/>
                                    <g>
                                        <path style="fill:#317F46;" d="M402.476,377.664v7.901c0,4.697-3.806,8.503-8.493,8.503h-26.577c-4.697,0-8.503-3.806-8.503-8.503   v-7.901c0-4.697,3.806-8.503,8.503-8.503h26.577C398.671,369.161,402.476,372.967,402.476,377.664z"/>
                                        <path style="fill:#317F46;" d="M332.617,377.664v7.901c0,4.697-3.806,8.503-8.503,8.503h-26.577c-4.687,0-8.503-3.806-8.503-8.503   v-7.901c0-4.697,3.816-8.503,8.503-8.503h26.577C328.812,369.161,332.617,372.967,332.617,377.664z"/>
                                        <path style="fill:#317F46;" d="M402.476,308.189v7.901c0,4.697-3.806,8.503-8.493,8.503h-26.577c-4.697,0-8.503-3.806-8.503-8.503   v-7.901c0-4.697,3.806-8.503,8.503-8.503h26.577C398.671,299.686,402.476,303.492,402.476,308.189z"/>
                                    </g>
                                    <path style="fill:#FF9811;" d="M473.185,308.189v7.901c0,4.697-3.806,8.503-8.503,8.503h-26.566c-4.697,0-8.503-3.806-8.503-8.503  v-7.901c0-4.697,3.806-8.503,8.503-8.503h26.566C469.38,299.686,473.185,303.492,473.185,308.189z"/>
                                    <g>
                                        <path style="fill:#317F46;" d="M332.617,308.189v7.901c0,4.697-3.806,8.503-8.503,8.503h-26.577c-4.687,0-8.503-3.806-8.503-8.503   v-7.901c0-4.697,3.816-8.503,8.503-8.503h26.577C328.812,299.686,332.617,303.492,332.617,308.189z"/>
                                        <path style="fill:#317F46;" d="M402.476,443.728v7.912c0,4.697-3.806,8.503-8.493,8.503h-26.577c-4.697,0-8.503-3.806-8.503-8.503   v-7.912c0-4.687,3.806-8.493,8.503-8.493h26.577C398.671,435.235,402.476,439.041,402.476,443.728z"/>
                                        <path style="fill:#317F46;" d="M332.617,443.728v7.912c0,4.697-3.806,8.503-8.503,8.503h-26.577c-4.687,0-8.503-3.806-8.503-8.503   v-7.912c0-4.687,3.816-8.493,8.503-8.493h26.577C328.812,435.235,332.617,439.041,332.617,443.728z"/>
                                    </g>
                                    <path style="fill:#FF9811;" d="M473.185,381.791v63.844c0,8.016-6.491,14.507-14.496,14.507h-14.579  c-8.005,0-14.496-6.491-14.496-14.507v-63.844c0-6.979,5.662-12.63,12.63-12.63h18.312  C467.534,369.161,473.185,374.813,473.185,381.791z"/>
                                    <path style="fill:#FFB655;" d="M404.801,73.28h-50.415c-8.542,0-15.467-6.925-15.467-15.467V4.003  c4.44,2.135,8.495,5.1,11.925,8.767l21.545,23.043l24.655,25.803C400.327,65.046,402.939,68.998,404.801,73.28z"/>
                                    <g>
                                        <path style="fill:#4E901E;" d="M192.446,217.608L192.446,217.608c-9.483-3.484-16.333-6.001-16.333-14.786   c0-8.006,5.317-12.066,15.804-12.066c7.047,0,11.021,2.045,13.657,3.4c1.564,0.804,2.915,1.499,4.394,1.499   c4.268,0,6.629-4.529,6.629-7.661c0-6.479-10.568-9.692-20.016-10.539v-5.842c0-4.064-3.306-7.37-7.37-7.37   c-4.064,0-7.37,3.306-7.37,7.37v6.771c-12.918,3.067-20.016,11.99-20.016,25.21c0,18.101,13.326,23.108,24.035,27.134   c10.486,3.94,18.769,7.052,18.769,19.024c0,9.888-5.491,14.902-16.32,14.902c-9.808,0-13.716-4.212-16.568-7.287   c-1.7-1.833-3.167-3.415-5.477-3.415c-3.744,0-6.76,4.191-6.76,7.661c0,6.128,9.127,14.183,22.338,16.275v5.645   c0,4.064,3.306,7.37,7.37,7.37c4.064,0,7.37-3.306,7.37-7.37v-5.796c14.21-2.674,22.338-13.109,22.338-28.759   C218.917,227.334,204.239,221.942,192.446,217.608z"/>
                                        <path style="fill:#4E901E;" d="M329.56,113.539h19.535c4.295,0,7.777-3.481,7.777-7.777s-3.482-7.777-7.777-7.777H329.56   c-4.295,0-7.777,3.481-7.777,7.777S325.265,113.539,329.56,113.539z"/>
                                        <path style="fill:#4E901E;" d="M160.539,113.539h137.913c4.295,0,7.777-3.481,7.777-7.777s-3.482-7.777-7.777-7.777H160.539   c-4.295,0-7.777,3.481-7.777,7.777S156.244,113.539,160.539,113.539z"/>
                                        <path style="fill:#4E901E;" d="M185.259,152.141c4.295,0,7.777-3.481,7.777-7.777s-3.482-7.777-7.777-7.777h-24.72   c-4.295,0-7.777,3.481-7.777,7.777s3.482,7.777,7.777,7.777H185.259z"/>
                                        <path style="fill:#4E901E;" d="M349.095,136.587H216.367c-4.295,0-7.777,3.481-7.777,7.777s3.482,7.777,7.777,7.777h132.728   c4.295,0,7.777-3.481,7.777-7.777S353.39,136.587,349.095,136.587z"/>
                                    </g>
                                    <path style="fill:#AA6100;" d="M223.427,487.549c0,5.423-2.219,10.338-5.786,13.916c-3.577,3.567-8.493,5.786-13.916,5.786h-120.7  c-10.836,0-19.702-8.866-19.702-19.702c0-5.423,2.219-10.338,5.786-13.916c3.577-3.567,8.493-5.786,13.916-5.786h120.7  C214.562,467.847,223.427,476.713,223.427,487.549z"/>
                                    <path style="fill:#CC7400;" d="M223.427,448.145c0,5.423-2.219,10.338-5.786,13.916c-3.577,3.567-8.493,5.786-13.916,5.786h-120.7  c-10.836,0-19.702-8.866-19.702-19.702c0-5.423,2.219-10.338,5.786-13.916c3.577-3.567,8.493-5.786,13.916-5.786h120.7  C214.562,428.443,223.427,437.309,223.427,448.145z"/>
                                    <path style="fill:#EE8700;" d="M223.427,408.741c0,5.423-2.219,10.338-5.786,13.916c-3.577,3.567-8.493,5.786-13.916,5.786h-120.7  c-10.836,0-19.702-8.866-19.702-19.702c0-5.423,2.219-10.338,5.786-13.916c3.577-3.567,8.493-5.786,13.916-5.786h120.7  C214.562,389.04,223.427,397.905,223.427,408.741z"/>
                                    <path style="fill:#FF9811;" d="M223.427,369.338c0,5.423-2.219,10.338-5.786,13.916c-3.577,3.567-8.493,5.786-13.916,5.786h-120.7  c-10.836,0-19.702-8.866-19.702-19.702c0-3.857,1.13-7.466,3.069-10.515c0.778-1.234,1.69-2.375,2.717-3.401  c3.577-3.567,8.493-5.786,13.916-5.786h120.7C214.562,349.636,223.427,358.502,223.427,369.338z"/>
                                    <path style="fill:#FFA733;" d="M203.722,349.637H83.027c-10.836,0-19.702-8.866-19.702-19.702l0,0  c0-10.836,8.866-19.702,19.702-19.702h120.696c10.836,0,19.702,8.866,19.702,19.702l0,0  C223.424,340.771,214.559,349.637,203.722,349.637z"/>
                                    <path style="fill:#CC7400;" d="M87.306,381.232v128.261H67.679c-17.331,0.745-33.36-5.471-45.377-16.153  C-21.31,454.637,5.236,383.701,62.187,381.232H87.306z"/>
                                    <path style="fill:#FFC477;" d="M154.124,447.684c-1.155,33.169-27.685,60.363-61.395,61.806  c-35.414,1.514-65.351-25.968-66.865-61.382c-0.006-0.144-0.013-0.281-0.013-0.424c-1.28-35.237,26.125-64.939,61.395-66.447  c35.414-1.514,65.351,25.968,66.865,61.389C154.183,444.328,154.189,446.012,154.124,447.684z"/>
                                    <path style="fill:#CC7400;" d="M100.608,492.204c-0.783,0.176-1.561,0.333-2.343,0.47c-25.061,4.413-49.429-11.606-55.122-36.693  c-5.862-25.871,10.353-51.59,36.223-57.459c6.436-1.456,12.866-1.553,18.983-0.47c18.461,3.277,34.07,17.26,38.476,36.693  C142.693,460.615,126.478,486.342,100.608,492.204z"/>
                                    <path style="fill:#EE8700;" d="M100.608,492.204c-0.783,0.176-1.561,0.333-2.343,0.47c-18.454-3.277-34.069-17.266-38.476-36.693  c-5.862-25.871,10.353-51.59,36.223-57.459c0.777-0.176,1.561-0.333,2.337-0.47c18.461,3.277,34.07,17.26,38.476,36.693  C142.693,460.615,126.478,486.342,100.608,492.204z"/>
                                    <path style="fill:#FFA733;" d="M154.124,447.684c-1.155,33.169-27.685,60.363-61.395,61.806  c-35.414,1.514-65.351-25.968-66.865-61.382c-0.006-0.144-0.013-0.281-0.013-0.424H42c0.137,2.748,0.515,5.523,1.143,8.297  c5.869,25.871,31.595,42.092,57.465,36.223c21.523-4.877,36.36-23.494,37.359-44.52L154.124,447.684L154.124,447.684z"/>
                                    <g>
                                        <path style="fill:#AA6100;" d="M95.751,435.611l-1.205-0.445c-6.83-2.51-7.525-3.306-7.525-5.621c0-1.949,0.718-2.509,1.391-2.882   c1.048-0.58,2.693-0.9,4.631-0.9c3.388,0,5.094,0.879,6.614,1.66c1.163,0.598,2.482,1.275,4.198,1.275   c4.436,0,7.416-4.154,7.416-8.034c0-4.729-4.229-7.988-11.988-9.323v-0.488c0-4.333-3.526-7.859-7.859-7.859   c-4.333,0-7.859,3.526-7.859,7.859v1.491c-7.656,2.777-11.988,9.093-11.988,17.663c0,13.227,9.61,16.838,16.629,19.476   c6.692,2.515,9.007,3.616,9.007,8.169c0,2.846-0.766,5.479-6.329,5.479c-4.372,0-5.91-1.658-7.399-3.264   c-1.161-1.253-2.918-3.144-5.805-3.144c-4.289,0-7.494,4.241-7.494,8.033c0,5.373,5.587,10.472,13.38,12.541v0.588   c0,4.333,3.526,7.859,7.859,7.859c4.333,0,7.859-3.526,7.859-7.859v-0.794c8.431-2.711,13.379-9.97,13.379-19.902   C112.658,441.915,101.661,437.814,95.751,435.611z"/>
                                        <path style="fill:#AA6100;" d="M36.428,409.992c-3.154,4.768-5.688,9.979-7.487,15.512H3.895   c1.784-5.618,4.485-11.008,7.476-15.512H36.428z"/>
                                        <path style="fill:#AA6100;" d="M26.304,453.414H1.247c-0.633-5.113-0.686-10.228-0.073-15.512h25.067   C25.64,442.939,25.653,448.175,26.304,453.414z"/>
                                        <path style="fill:#AA6100;" d="M37.307,482.028H12.24c-3.394-4.862-6.062-10.148-7.921-15.512h25.057   C31.309,472.09,33.998,477.292,37.307,482.028z"/>
                                    </g>

                                    </svg>