                                   <svg id="Capa_1" enable-background="new 0 0 512 512" height="512" viewBox="0 0 512 512" width="512" xmlns="http://www.w3.org/2000/svg"><g><path d="m488.443 246.995c-4.249 0-7.692-3.443-7.692-7.692v-41.72c0-2.618-2.125-4.748-4.738-4.748h-15.691c-4.249 0-7.692-3.443-7.692-7.692s3.443-7.692 7.692-7.692h15.691c11.095 0 20.122 9.031 20.122 20.132v41.72c0 4.249-3.443 7.692-7.692 7.692z" fill="#5392f9"/><path d="m96.565 188.232c-29.828 0-55.189-14.143-73.34-40.898-14.543-21.435-23.225-50.147-23.225-76.805 0-15.197 2.829-28.383 8.182-38.135 6.405-11.669 16.415-18.096 28.188-18.096h14.859c4.249 0 7.692 3.443 7.692 7.692s-3.443 7.692-7.692 7.692h-14.859c-6.157 0-10.967 3.308-14.703 10.114-4.052 7.382-6.284 18.297-6.284 30.733 0 23.698 7.691 49.182 20.572 68.168 10.57 15.58 29.664 34.151 60.61 34.151s50.041-18.571 60.61-34.151c12.881-18.987 20.572-44.471 20.572-68.169 0-30.149-11.304-40.847-20.985-40.847h-14.86c-4.249 0-7.692-3.443-7.692-7.692s3.443-7.692 7.692-7.692h14.86c22.093 0 36.369 22.072 36.369 56.23 0 26.658-8.682 55.37-23.225 76.806-18.153 26.757-43.513 40.899-73.341 40.899z" fill="#5392f9"/><path d="m61.945 42.834h-17.409c-1.974 0-3.574-1.6-3.574-3.574v-34.541c0-1.974 1.6-3.574 3.574-3.574h17.409c6.202 0 11.229 5.027 11.229 11.229v19.23c0 6.202-5.028 11.23-11.229 11.23z" fill="#ffa95f"/><path d="m131.186 42.834h17.409c1.974 0 3.574-1.6 3.574-3.574v-34.541c0-1.974-1.6-3.574-3.574-3.574h-17.409c-6.202 0-11.229 5.027-11.229 11.229v19.23c-.001 6.202 5.027 11.23 11.229 11.23z" fill="#ffa95f"/><path d="m127.544 159.1v227.108l95.782 10 95.782-10v-227.108l-92.513-10z" fill="#6cbff8"/><path d="m295.035 159.1v257.597c0 5.05-4.094 9.144-9.144 9.144h24.073c5.05 0 9.144-4.094 9.144-9.144v-257.597l-13.192-12.629z" fill="#5fa7ee"/><path d="m309.964 119.466h-173.276c-5.05 0-9.144 4.094-9.144 9.144v30.49h191.564v-30.49c0-5.05-4.094-9.144-9.144-9.144z" fill="#407194"/><path d="m309.964 425.841h-173.276c-5.05 0-9.144-4.094-9.144-9.144v-30.49h191.564v30.49c0 5.051-4.094 9.144-9.144 9.144z" fill="#407194"/><path d="m319.108 416.697v-30.49h-24.073v30.49c0 5.05-4.094 9.144-9.144 9.144h24.073c5.05 0 9.144-4.094 9.144-9.144z" fill="#4071f7"/><path d="m319.108 159.1v-30.49c0-5.05-4.094-9.144-9.144-9.144h-24.072c5.05.001 9.143 4.094 9.143 9.144v30.49z" fill="#365f7e"/><path d="m506.803 510.854h-268.423c-2.87 0-5.197-2.327-5.197-5.197v-172.728c0-2.87 2.327-5.197 5.197-5.197h268.423c2.87 0 5.197 2.327 5.197 5.197v172.728c0 2.871-2.327 5.197-5.197 5.197z" fill="#ddebfd"/><path d="m506.803 327.732h-23.551c2.87 0 5.197 2.327 5.197 5.197v172.728c0 2.87-2.327 5.197-5.197 5.197h23.551c2.87 0 5.197-2.327 5.197-5.197v-172.728c0-2.87-2.327-5.197-5.197-5.197z" fill="#bed9fd"/><path d="m432.014 131.731c-10.13 0-18.341 8.212-18.341 18.341v18.341h36.682v-18.341c.001-10.129-8.211-18.341-18.341-18.341z" fill="#ffa95f"/><path d="m410.874 335.204c4.144 21.741 10.028 40.874 17.505 52.399 1.711 2.637 5.56 2.637 7.27 0 7.477-11.526 13.361-30.658 17.505-52.399l-21.14-10z" fill="#ffa95f"/><path d="m433.815 335.204c-2.598 16.804-6.039 32.049-10.268 43.427 1.529 3.336 3.137 6.36 4.832 8.972 1.711 2.637 5.56 2.637 7.27 0 7.477-11.526 13.361-30.658 17.505-52.399l-9.123-10.811z" fill="#ff8b5a"/><path d="m403.706 171.752v86.591c0 24.105 2.462 52.166 7.169 76.861h42.279c4.707-24.695 7.169-52.755 7.169-76.861v-86.591c0-1.844-1.495-3.338-3.338-3.338h-49.941c-1.844 0-3.338 1.494-3.338 3.338z" fill="#407194"/><path d="m433.815 335.204h19.339c4.707-24.695 7.169-52.755 7.169-76.861v-86.591c0-1.844-1.495-3.338-3.338-3.338h-20.06c1.494 0 2.706 1.495 2.706 3.338v86.591c0 24.11-1.999 52.169-5.816 76.861z" fill="#365f7e"/><path d="m197.283 260.802-23.434-.003c-11.282 0-20.46 9.178-20.46 20.46v61.299c0 2.798-2.276 5.076-5.076 5.076h-105.563c-8.443 0-15.312-6.868-15.312-15.311s6.869-15.312 15.312-15.312h28.86c16.92 0 30.685-13.765 30.685-30.685 0-16.926-13.765-30.696-30.685-30.696h-30.306c-7.646 0-13.865-6.219-13.865-13.865s6.22-13.866 13.865-13.866h48.521c7.957 0 14.43-6.473 14.43-14.429v-25.565c-2.529.214-5.091.328-7.69.328-2.6 0-5.164-.114-7.694-.328v24.611h-47.567c-16.128 0-29.249 13.121-29.249 29.25 0 16.128 13.121 29.249 29.249 29.249h30.307c8.437 0 15.301 6.87 15.301 15.313 0 8.437-6.865 15.302-15.301 15.302h-28.861c-16.925 0-30.695 13.77-30.695 30.695s13.77 30.695 30.695 30.695h105.563c11.281 0 20.459-9.178 20.459-20.459v-61.301c0-2.799 2.277-5.077 5.076-5.077l23.433.003h.001c4.248 0 7.691-3.443 7.692-7.691s-3.442-7.692-7.691-7.693z" fill="#407194"/><path d="m326.725 375.437h-41.617c-4.249 0-7.692-3.443-7.692-7.692s3.443-7.692 7.692-7.692h41.617c4.249 0 7.692 3.443 7.692 7.692s-3.444 7.692-7.692 7.692z" fill="#6cbff8"/><path d="m460.071 426.985h-174.963c-4.249 0-7.692-3.443-7.692-7.692s3.443-7.692 7.692-7.692h174.963c4.249 0 7.692 3.443 7.692 7.692s-3.444 7.692-7.692 7.692z" fill="#5392f9"/><path d="m460.071 478.533h-174.963c-4.249 0-7.692-3.443-7.692-7.692s3.443-7.692 7.692-7.692h174.963c4.249 0 7.692 3.443 7.692 7.692s-3.444 7.692-7.692 7.692z" fill="#5392f9"/><ellipse cx="223.326" cy="268.496" fill="#ddebfd" rx="31.171" ry="31.171" transform="matrix(.987 -.16 .16 .987 -40.125 39.24)"/></g></svg>
