<svg enable-background="new 0 0 512.006 512.006" height="512" viewBox="0 0 512.006 512.006" width="512" xmlns="http://www.w3.org/2000/svg"><g fill="#fff"><path d="m502.05 407.127-56.761-37.844-50.459-33.633c-9.738-6.479-22.825-4.355-30.014 4.873l-31.223 40.139c-6.707 8.71-18.772 11.213-28.39 5.888-21.186-11.785-46.239-22.881-101.517-78.23s-66.445-80.331-78.23-101.517c-5.325-9.618-2.822-21.683 5.888-28.389l40.139-31.223c9.227-7.188 11.352-20.275 4.873-30.014l-32.6-48.905-38.877-58.316c-6.617-9.926-19.863-12.906-30.093-6.771l-44.836 26.898c-12.117 7.139-21.024 18.667-24.876 32.194-12.261 44.703-14.733 143.316 143.307 301.356s256.644 155.56 301.347 143.298c13.527-3.851 25.055-12.758 32.194-24.876l26.898-44.835c6.136-10.231 3.156-23.476-6.77-30.093z"/><path d="m291.309 79.447c82.842.092 149.977 67.226 150.069 150.069 0 4.875 3.952 8.828 8.828 8.828 4.875 0 8.828-3.952 8.828-8.828-.102-92.589-75.135-167.622-167.724-167.724-4.875 0-8.828 3.952-8.828 8.828-.001 4.874 3.951 8.827 8.827 8.827z"/><path d="m291.309 132.412c53.603.063 97.04 43.501 97.103 97.103 0 4.875 3.952 8.828 8.828 8.828 4.875 0 8.828-3.952 8.828-8.828-.073-63.349-51.409-114.686-114.759-114.759-4.875 0-8.828 3.952-8.828 8.828s3.952 8.828 8.828 8.828z"/><path d="m291.309 185.378c24.365.029 44.109 19.773 44.138 44.138 0 4.875 3.952 8.828 8.828 8.828 4.875 0 8.828-3.952 8.828-8.828-.039-34.111-27.682-61.754-61.793-61.793-4.875 0-8.828 3.952-8.828 8.828-.001 4.875 3.951 8.827 8.827 8.827z"/></g></svg>