<svg height="69" viewBox="0 0 75 69" width="75" xmlns="http://www.w3.org/2000/svg"><g fill="#458bc9"><path d="m28.774982 39.8622995h-4.6396119v-4.6941406c0-.6846053-.5484526-1.2395875-1.2250032-1.2395875h-5.2325134c-.6765506 0-1.2250031.5549822-1.2250031 1.2395875v4.6941406h-4.639612c-.6765505 0-1.2250031.5549823-1.2250031 1.2395875v5.2955177c0 .6846052.5484526 1.2395874 1.2250031 1.2395874h4.639612v4.694849c0 .6846053.5484525 1.2395875 1.2250031 1.2395875h5.2325134c.6765506 0 1.2250032-.5549822 1.2250032-1.2395875v-4.694849h4.6396119c.6765505 0 1.2250081-.5549822 1.2250081-1.2395874v-5.291976c.000925-.3293723-.1277268-.6455768-.3575603-.8788111s-.5419494-.3643194-.8674478-.3643181zm-1.2250032 5.2955177h-4.6396119c-.6765505 0-1.2250031.5549822-1.2250031 1.2395875v4.6955573h-2.7825072v-4.6955573c0-.6846053-.5484525-1.2395875-1.2250031-1.2395875h-4.6396119v-2.8163427h4.6396119c.6765506 0 1.2250031-.5549822 1.2250031-1.2395875v-4.6941406h2.7825072v4.6976823c0 .6846052.5484526 1.2395875 1.2250031 1.2395875h4.6396119z"/><path d="m73.0822977 57.544404-5.3304286-5.2481026-5.3304285-5.2481026c-2.5116873-2.4652772-6.5299661-2.4190393-8.9850908.1033905l-.2251233.2315948c-2.1494587 2.212764-2.4158255 5.659043-.6322614 8.1802576h-12.201823v-27.3467914c.0012429-3.0530945-1.3238496-5.953857-3.6266074-7.9390131-1.7707407-1.5273844-2.7895184-3.7586449-2.788382-6.1069331v-3.6358998h1.6073397c.6613415 0 1.1974647-.54004431 1.1974647-1.2062227v-8.12235892c0-.66617839-.5361232-1.20622268-1.1974647-1.20622268h-30.76184147c-.66134149 0-1.19746469.54004429-1.19746469 1.20622268v8.12235892c0 .66617839.5361232 1.2062227 1.19746469 1.2062227h1.60733975v3.6358998c.00122845 2.3483084-1.01756608 4.579606-2.78838207 6.1069331-2.30260728 1.9852707-3.62766601 4.8859593-3.62660798 7.9390131v33.9272531c.00264227 3.6126295 2.90933402 6.5405801 6.49573338 6.5432411h27.38567529c.7560606-.001219 1.5060231-.1363037 2.2156518-.3990874.7006523.2626331 1.4420603.3977628 2.1896498.3990874h14.910146c3.4010123-.0057211 6.1950697-2.7069171 6.3404045-6.129679l4.4422518 4.3734188c2.5116873 2.4652772 6.5299661 2.4190393 8.9850908-.1033905l.2251234-.2315948c1.1779436-1.2140749 1.8288265-2.8498006 1.8098698-4.5473042-.0197978-1.6975037-.7078478-3.3177209-1.9131939-4.5041908zm-18.1610916-8.4780223.2251233-.2315948c1.5296356-1.5726332 4.0342496-1.6016147 5.5993449-.0647913l4.4750966 4.4058145-5.7587787 5.9359941-4.4750967-4.4058145c-1.5639546-1.5392629-1.5930582-4.0641817-.0650052-5.639608zm-52.52422266-17.7473267h35.58180796v24.2430082h-35.58180796zm24.21547306-23.19669608v-5.70991355h2.8308066v5.70991355zm-5.2257359 0v-5.70991355h2.8308066v5.70991355zm-5.2257359 0v-5.70991355h2.829438v5.70991355zm-5.2257359 0v-5.70991355h2.8308065v5.70991355zm23.4381474 0h-2.5352038v-5.70991355h2.5358881zm-28.36828058-5.70991355h2.53588808v5.70991355h-2.53588808zm-.82111865 19.69658253c2.30265133-1.9849423 3.62774239-4.8854498 3.62660735-7.9383238v-3.6358998h22.75867178v3.6358998c-.0009508 3.0528334 1.3241065 5.9532669 3.6266073 7.9383238 1.770816 1.5273271 2.7896105 3.7586247 2.7883832 6.1069331v.6892701h-35.581813v-.6892701c-.0023177-2.3473612 1.01435905-4.5784005 2.78291191-6.1069331zm-2.78701353 40.0348755v-4.1693949h30.92469666c-.9017485 1.1309658-1.3930202 2.5382298-1.3924803 3.9888061v.3232677c-.0004389 1.4503493.4908302 2.8573627 1.3924803 3.9881168h-26.82320903c-2.26398417-.002279-4.09884744-1.8502537-4.10148763-4.1307957zm31.92646146.1426789v-.3232677c.0022622-2.2017431 1.7734038-3.9861468 3.9591604-3.9888061h6.2576083v8.3001906h-6.2576083c-2.1854898-.0026585-3.9565212-1.7866428-3.9591604-3.9881168zm22.8284668 0c-.0026392 2.201474-1.7736706 3.9854583-3.9591604 3.9881168h-6.2576083v-8.3001906h6.2576083c2.1857566.0026593 3.9568981 1.787063 3.9591604 3.9888061zm14.3209934 2.623362-.2251233.2315948c-.7323384.7588885-1.7357015 1.1910179-2.7863293 1.2000192-1.0523544.0262488-2.0691903-.384208-2.8123314-1.1352278l-4.4750966-4.4058145 5.7587788-5.9359942 4.4750966 4.4058145c1.5635788 1.5394249 1.5926787 4.0640286.0650052 5.639608z"/></g></svg>