<svg height="73" viewBox="0 0 50 73" width="50" xmlns="http://www.w3.org/2000/svg"><g fill="#458bc9"><path d="m35.9049171 41.0702802h-5.2003109v-5.2010523c0-.6582177-.5336126-1.1918085-1.1918571-1.1918085h-8.2190466c-.6582445 0-1.1918571.5335908-1.1918571 1.1918085v5.2010523h-5.2003109c-.6582445 0-1.1918571.5335909-1.1918571 1.1918085v8.2177581c0 .6582176.5336126 1.1918085 1.1918571 1.1918085h5.2003109v5.2010523c0 .6582177.5336126 1.1918085 1.1918571 1.1918085h8.2190466c.6582445 0 1.1918571-.5335908 1.1918571-1.1918085v-5.2010523h5.2003109c.6582445 0 1.1918571-.5335909 1.1918571-1.1918085v-8.2177581c0-.6582176-.5336126-1.1918085-1.1918571-1.1918085zm-1.1918571 8.2177581h-5.2003109c-.6582445 0-1.1918571.5335908-1.1918571 1.1918085v5.2010523h-5.8353324v-5.2010523c0-.6582177-.5336126-1.1918085-1.1918571-1.1918085h-5.2003109v-5.8341411h5.2003109c.6582445 0 1.1918571-.5335908 1.1918571-1.1918085v-5.2010523h5.8353324v5.2010523c0 .6582177.5336126 1.1918085 1.1918571 1.1918085h5.2003109z"/><path d="m47.3658713 18.4473609c-.0930165-1.7734337-1.5461942-3.1633204-3.3074414-3.1633907h-8.3660489v-4.4996836c0-5.95599704-4.788419-10.7842866-10.6952331-10.7842866s-10.695233 4.82828956-10.695233 10.7842866v4.4968078h-8.36604892c-1.76143852-.0004135-3.21489386 1.3897388-3.3074414 3.1633907l-2.62389717 50.6219205c-.04746447.9149199.2799035 1.8093277.90544978 2.4737953.62554628.6644677 1.494337 1.0404443 2.40294231 1.0404443h43.374161c.9086053 0 1.777396-.3759766 2.4029423-1.0404443.6255463-.6644676.9529143-1.5588754.9054498-2.4737953zm-30.6843859-7.6630743c0-4.63244206 3.724326-8.38777822 8.3185146-8.38777822s8.3185146 3.75533616 8.3185146 8.38777822v4.4968078h-16.6370292zm30.6843859 59.1065178c-.1762337.1884303-.4219253.2949504-.6787908.2942942h-43.374161c-.25657233 0-.50191785-.1060955-.67860829-.2936818-.17669044-.1875862-.26921538-.4401146-.25591741-.6984756l2.63055198-50.6200032c.0253-.5014039.43566857-.8953355.93357501-.8953355h8.36604891v3.754849c0 .6617774.5320466 1.198254 1.1883593 1.198254.6563126 0 1.1883592-.5364766 1.1883592-1.198254v-3.754849h16.6370291v3.754849c0 .6617774.5320466 1.198254 1.1883592 1.198254.6563127 0 1.1883593-.5364766 1.1883593-1.198254v-3.754849h8.3660489c.4982739 0 .9092069.3935617.9345257.8953355l2.6267492 50.6190446c.0133257.2593307-.0810599.5125423-.2604883.6988218z"/></g></svg>