<svg enable-background="new 0 0 512.003 512.003" height="512" viewBox="0 0 512.003 512.003" width="512" xmlns="http://www.w3.org/2000/svg"><g fill="#458bc9"><path d="m497.003 241.001c-8.284 0-15 6.716-15 15 0 124.617-101.384 226-226 226-124.617 0-226-101.383-226-226s101.383-226 226-226c37.999 0 74.962 9.435 107.959 27.413l-18.753 18.753c-4.29 4.29-5.573 10.741-3.252 16.347 2.322 5.605 7.791 9.26 13.858 9.26h71.773c8.284 0 15-6.716 15-15v-71.773c0-6.067-3.654-11.536-9.26-13.858-5.607-2.323-12.058-1.039-16.347 3.252l-31.017 31.017c-39.289-23.197-83.959-35.41-129.962-35.41-68.38 0-132.668 26.629-181.02 74.98-48.352 48.353-74.98 112.64-74.98 181.02s26.628 132.667 74.98 181.019c48.353 48.353 112.64 74.982 181.02 74.982s132.667-26.629 181.019-74.982c48.353-48.352 74.98-112.639 74.98-181.019.002-8.285-6.714-15.001-14.998-15.001z"/><path d="m352.402 241.001h-81.399v-81.4c0-8.284-6.716-15-15-15s-15 6.716-15 15v96.4c0 8.284 6.716 15 15 15h96.399c8.284 0 15-6.716 15-15s-6.716-15-15-15z"/></g></svg>