<svg xmlns="http://www.w3.org/2000/svg" viewBox="0 0 175.75 138.7"><defs><style>.cls-1{fill:#99a3ad;}.cls-1,.cls-2{fill-rule:evenodd;}.cls-2{fill:#fff;}</style></defs><title>Asset 1</title><g id="Layer_2" data-name="Layer 2"><g id="Layer_1-2" data-name="Layer 1"><path class="cls-1" d="M50.62,63.78a58.75,58.75,0,0,1,3.85-16.35c.35-.86.7-1.57,1.06-2.43h73.14a59.31,59.31,0,0,0-17.76,19c-4.41,7.39-8.26,18.07-11.24,32.14-2.48,11.44-3.7,20.61-3.7,27.44v.86a40.9,40.9,0,0,1-11.44-3.34,58.84,58.84,0,0,1-10.88-5.77,35.88,35.88,0,0,0,3.14-14.93,38.35,38.35,0,0,0-3-15,40.54,40.54,0,0,0-8.25-12.3,41.4,41.4,0,0,0-12.3-8.25l-2.63-1.06Zm107.06-17c.15.15.15.51.35.66a59.37,59.37,0,0,1,4.2,22,53.59,53.59,0,0,1-4.4,21.66A51.34,51.34,0,0,1,146,109.13a59.57,59.57,0,0,1-18.07,12,52.59,52.59,0,0,1-16.55,4v-1.06c0-20.35,3.9-37.06,11.8-50.27,7.74-12.8,19.18-22,34.47-27Zm-9.16-14.63H64c.86-.86,1.57-1.72,2.43-2.63a54.5,54.5,0,0,1,18.12-12A56.23,56.23,0,0,1,106,13.36h.35a54.15,54.15,0,0,1,21.77,4.41A51,51,0,0,1,146,29.51c.92.91,1.62,1.77,2.49,2.63ZM66.61,126.19A69.45,69.45,0,0,0,133,133.38a72.35,72.35,0,0,0,22.17-15.29A65.24,65.24,0,0,0,170.33,96a63.93,63.93,0,0,0,5.42-26.57,64.58,64.58,0,0,0-5.42-26.68A68.31,68.31,0,0,0,155.2,20.4,65,65,0,0,0,133,5.47,64.61,64.61,0,0,0,106.35,0,66.28,66.28,0,0,0,79.42,5.47,70.18,70.18,0,0,0,57.1,20.4,70.67,70.67,0,0,0,42.37,42.72a65.49,65.49,0,0,0-5.11,19.14A37.09,37.09,0,0,0,19.13,67,39.36,39.36,0,0,0,5.26,81,37.78,37.78,0,0,0,0,100.38a37.19,37.19,0,0,0,5.26,19.13,37.66,37.66,0,0,0,13.87,13.87,37.12,37.12,0,0,0,19.19,5.32,36.26,36.26,0,0,0,19.13-5.32,32.33,32.33,0,0,0,9.16-7.19Z"/><path class="cls-2" d="M33.41,100.38a5.68,5.68,0,0,0,1.72,4.2,5.34,5.34,0,0,0,4.25,1.77,5.17,5.17,0,0,0,3.85-1.62,5.71,5.71,0,0,0,1.57-4,5.79,5.79,0,0,0-1.57-4.4,5.13,5.13,0,0,0-3.85-1.62,6.42,6.42,0,0,0-4.25,1.62,5.06,5.06,0,0,0-1.72,4ZM15.14,94.2a5,5,0,0,0-4.05,1.57A5.66,5.66,0,0,0,9.31,100a5.54,5.54,0,0,0,1.78,4.2,6.34,6.34,0,0,0,4.05,1.42,6.19,6.19,0,0,0,4-1.42,5.54,5.54,0,0,0,1.78-4.2,5.66,5.66,0,0,0-1.78-4.25,5.38,5.38,0,0,0-4-1.57ZM28.65,100V83.82h4.56v8.81h.2a5.2,5.2,0,0,1,2.07-1.57A6.49,6.49,0,0,1,39,90.15a9.94,9.94,0,0,1,7.18,3,9.6,9.6,0,0,1,3,7,11.07,11.07,0,0,1-2.43,7,9,9,0,0,1-7.24,3.34,11.09,11.09,0,0,1-8-3A11.76,11.76,0,0,1,28.65,100Zm-24.09.36a9.88,9.88,0,0,1,2.83-7.24c1.57-2.28,4.2-3.34,7.9-3.34A11.45,11.45,0,0,1,22,92.08c2.28,1.62,3.34,4.4,3.34,8.09v9.88h-4.2v-2.33a8.32,8.32,0,0,1-5.82,2.33C11.59,110.05,9,109,7,106.7a10.06,10.06,0,0,1-2.48-6.32Zm67.52,3.14a10.3,10.3,0,0,1-3.69,5.11,11.45,11.45,0,0,1-6.18,1.92,10,10,0,0,1-7.19-3A9.87,9.87,0,0,1,51.83,100,9.27,9.27,0,0,1,55,92.78a10,10,0,0,1,7.19-3,9.05,9.05,0,0,1,4.2,1.06,7.61,7.61,0,0,1,3.34,2.28,10.39,10.39,0,0,1,2.33,3.69H66.61A5.54,5.54,0,0,0,58.16,96a5.76,5.76,0,0,0-1.57,4,6.35,6.35,0,0,0,1.57,4.36A5.62,5.62,0,0,0,62.21,106a4.87,4.87,0,0,0,4.4-2.48Z"/></g></g></svg>