<svg class="brands__image brands__image--forbes" xmlns="http://www.w3.org/2000/svg" viewBox="0 0 399.08 100">
  <path d="M243.12 28.44a32.73 32.73 0 0 0-16.52 4.13c0-14.68 0-28 .46-32.57l-30.73 5.5v2.76l3.21.46c4.13.91 5.5 3.21 6.42 8.71.92 11 .46 69.73 0 79.36a119.64 119.64 0 0 0 25.69 3.21c24.31 0 39-15.14 39-39-.01-18.8-11.94-32.56-27.53-32.56zM232.57 95a20.54 20.54 0 0 1-5.51-.46c-.46-6.42-.92-33.48-.46-57.33a20.29 20.29 0 0 1 6.88-1.38c10.09 0 15.6 11.93 15.6 26.6 0 18.3-6.88 32.57-16.51 32.57zM37.16 8.72c-.46 8.71-.92 23.39-.92 39l11-.46c6.88 0 10.09-5.51 11.47-13.3h4.12v32.55h-4.11c-1.38-7.79-4.59-13.3-11.47-13.3l-11-.46c0 11.93.46 21.56.92 27.53.91 8.71 3.21 12.84 9.17 13.3l5.5.91v3.68H0v-3.68l4.59-.91c6-.46 8.25-4.59 9.17-13.3.92-14.23 1.38-44 0-60.55C12.84 11 10.55 7.34 4.59 6.42L0 6V1.84h80.73l.46 27.06-4.59 1.38C72 16.51 65.6 8.72 53.21 8.72zm69.72 18.8C83.94 27.52 71.1 44 71.1 63.76 71.1 84.4 82.57 100 105.5 100s35.78-16.52 35.78-36.24c0-20.64-11.46-36.24-34.4-36.24zm-.46 67.89c-9.17 0-13.76-14.22-13.76-31.65 0-17.89 2.75-31.65 12.84-31.65 9.64 0 14.22 14.22 14.22 31.65 0 17.89-2.72 31.65-13.3 31.65zm205.5-67.89c-23.39 0-35.32 17.89-35.32 36.7 0 21.1 14.68 35.78 35.32 35.78 12.85 0 22.94-6.42 27.53-12.84l-1.84-2.3c-4.58 3.21-8.25 5-15.59 5-16.52 0-24.78-12.39-24.32-29.36h42.67c0-18.76-9.18-32.98-28.45-32.98zm-14.22 28c.46-10.56 4.59-23.4 12.39-23.4s9.17 13.76 9.17 22.94zm101.38 21.1c0 14.21-11.47 23.39-29.36 23.39-8.71 0-18.81-1.83-24.31-4.13L345 75.69l3.21-.92c5 13.76 11.47 18.81 20.19 18.81 7.33 0 11.46-5 11.46-10.55s-3.21-8.72-14.68-12.85c-11-3.67-18.8-8.71-18.8-20.64s10.55-22 27.52-22c8.26 0 15.59 1.38 21.1 3.67l.46 17.89-3.26.9c-4.13-12.39-9.64-17.43-17.89-17.43-5.5 0-9.63 4.13-9.63 10.09s4.58 9.18 17.43 14.22C394 61.47 399.08 67 399.08 76.61zM200.92 29.36l-7.35 18.81c-9.17-6-19.26-3.22-21.55 0-.46 11-.46 28.44.45 37.15.46 5.5 1.84 8.26 6.43 8.72l5.5.45v3.68h-42.66v-3.68L145 94c4.13-.46 6-3.22 6.42-8.72.46-9.63.92-28.9 0-39.91-.46-6-2.29-8.25-6.42-8.71l-3.21-.46v-2.71l30.73-6-.52 16.09c7.36-16.52 21.12-18.81 28.92-14.22z" fill="#99a3ad" fill-rule="evenodd"></path>
</svg>