<svg viewBox="0 0 330.35 123.88" xmlns="http://www.w3.org/2000/svg"><g fill="#999fa6"><path d="m68.45 106.1a5 5 0 0 0 2.46-4.28c0-6.91 0-13.83 0-20.75a14.9 14.9 0 0 0 -.44-2.5l15.53-10.85a19.68 19.68 0 0 0 4 2.37 20.91 20.91 0 0 0 4.85.42c-.11 4.92-5.42 7.56-11.68 5.66v34.66a18.81 18.81 0 0 0 7.66-1.83c2.33-1.1 4.54-2.43 7.06-3.79a9.14 9.14 0 0 1 -.49 1.44c-3.54 6.38-8.89 10-16.21 10.57a27.12 27.12 0 0 1 -12.9-2 19.6 19.6 0 0 1 -11.81-13c-2.17-7.5-1.82-14.81 2.5-21.56 3.12-4.87 7.69-7.91 13.05-9.87a2.4 2.4 0 0 1 .58-.12 2.92 2.92 0 0 1 .55.15c-.36.37-.62.69-.93 1-9.75 7.68-10.76 19.29-6.82 29.18a38 38 0 0 0 3.04 5.1zm13.55 4.76v-1.51c0-10.47-.06-20.95 0-31.43a4.91 4.91 0 0 0 -2.09-4.57c-1.3.53-1.72 1.49-1.7 3 .08 6.15-.1 12.32.08 18.47a9.27 9.27 0 0 1 -4.29 8.53c-1.22.83-2.41 1.71-3.61 2.57l-1 .75c3.66 3.1 7.87 4.1 12.61 4.19z"/><path d="m95.63 75c0-.34 0-.82.15-1 1.86-1.92 3.76-3.82 5.7-5.66a1.35 1.35 0 0 1 1.21-.14 8.06 8.06 0 0 1 4.88 7.74v12.84 1.52l2.89-2.86c1.11-1.09 2.18-2.23 3.35-3.26a1.86 1.86 0 0 1 1.44-.37c4.55 1.1 7 4.2 7 8.87 0 4.12-.08 8.24 0 12.35.18 7.57-3 13.24-9.37 17.22-.84.53-1.7 1-2.57 1.53a3.69 3.69 0 0 1 -.77.15 6.24 6.24 0 0 1 .69-1.07 13.68 13.68 0 0 0 4.28-10.1c.12-6.35.08-12.71 0-19.07a4.71 4.71 0 0 0 -3.13-4.78c-.33-.13-.82.11-1.23.21-.1 0-.16.17-.26.24-2 1.35-2.5 3.18-2.38 5.54.2 4 0 8 .06 12 0 1.81.47 3.35 2.84 4-1.69 1.62-3.2 3.1-4.77 4.52a1.19 1.19 0 0 1 -1 0 7.21 7.21 0 0 1 -4.67-7.24q.06-15.18 0-30.35a7.27 7.27 0 0 0 -.51-2.9c-.73-1.63-1.55-1.7-2.79-.47-.2.2-.41.38-.61.57z"/><path d="m172.78 90.49a4.23 4.23 0 0 1 -.38-.31 3.23 3.23 0 0 1 -.38-.51c2-1.92 4-3.87 6-5.78a1.15 1.15 0 0 1 .94-.17c2.71.84 4.64 2.45 5.23 5.36.06.27.14.54.21.81 0 0 .06 0 .33.23 1.85-1.91 3.75-3.83 5.59-5.83a1.69 1.69 0 0 1 2-.48c4.51 1.37 6.66 4.18 6.68 8.9 0 4.92 0 9.84.06 14.76a4.76 4.76 0 0 0 1 2.53 1.07 1.07 0 0 0 1.89-.11c.3-.42.67-.78 1.06-1.24l.82.72a4.51 4.51 0 0 1 -.32.42c-1.78 1.78-3.6 3.53-5.35 5.33a1.11 1.11 0 0 1 -1.45.28c-3.74-1.63-5.31-4-5.32-8.11 0-4.52 0-9 0-13.56a5.06 5.06 0 0 0 -2.91-4.85 1.27 1.27 0 0 0 -1.57.22 6.2 6.2 0 0 0 -2.57 5.9c.24 3.9.11 7.83 0 11.75 0 1.92.54 3.37 2.68 4.14-1.62 1.61-3.13 3.13-4.68 4.61-.13.13-.52.1-.73 0-2.66-1.11-4.52-2.92-4.71-5.94-.15-2.35-.13-4.71-.15-7.07 0-3.2 0-6.4 0-9.6a7.46 7.46 0 0 0 -.24-2.12c-.54-1.72-1.89-2-3.14-.83-.15.16-.37.35-.59.55z"/><path d="m147.42 92.2c3.13-1.72 6.35-3.46 9.55-5.27 1.45-.82 2.82-1.81 4.29-2.62a2.55 2.55 0 0 1 1.73-.24c5 1.43 7.46 4.82 7.46 10 0 3.68-.24 7.38.1 11 .2 2.07-.6 2.69-2.17 3.53-3.84 2-7.57 4.3-11.3 6.54a2.32 2.32 0 0 1 -2.1.28c-4.95-1.56-7.31-4.75-7.32-10 0-3.39 0-6.79 0-10.19-.02-.99-.16-2.01-.24-3.03zm15.34 18.89c0-.36.05-.63.05-.9 0-5 0-10.08 0-15.12a6.79 6.79 0 0 0 -7.43-6.63 5.06 5.06 0 0 0 -.1.68c0 5.2-.06 10.4 0 15.6.12 3.89 3.37 6.63 7.48 6.37z"/><path d="m239.55 73.36c-1.17.25-1.43 2.1-3.1 1.64 2.34-2.39 4.51-4.63 6.72-6.81a1.32 1.32 0 0 1 1.14 0c3.57 1.56 5.07 4.41 5.06 8.2q0 14.86 0 29.74v1.55a3.5 3.5 0 0 0 .31 1.15c.75 1.52 1.77 1.67 3 .56.39-.35.76-1.35 1.67-.23l-4.88 4.84c-2 2-2.09 2-4.43.43a7 7 0 0 1 -3.29-6.28c0-10.19 0-20.38 0-30.57.01-1.87-.51-3.39-2.2-4.22z"/><path d="m255 92.44 13.87-8.56 6.42 10.47-5.85 3.77c-1.91 1.23-3.81 2.49-5.76 3.66a1.66 1.66 0 0 0 -.86 1.66 5.69 5.69 0 0 0 2.87 5.07 11.7 11.7 0 0 0 1.05.57c3.5 1.71 3.53 1.71 6.26-1a3.62 3.62 0 0 1 .78-.74 1 1 0 0 1 1 .09c-2.62 2.67-5.23 5.36-7.87 8a.83.83 0 0 1 -.73.14 58.67 58.67 0 0 1 -6.89-3 8.19 8.19 0 0 1 -4-7.32c-.09-3.2 0-6.4-.05-9.6-.08-1.09-.24-2.2-.24-3.21zm13.38 5.28-5.24-8.9-.2.1v12.22z"/><path d="m148.36 85c-.39 2.61-1.4 4.74-3.66 6-2.89 1.55-5.62 1-8.16-1.28 0 .48-.12.77-.12 1.07v15.35c0 1.41.22 2.7 1.63 3.49 1.63.91 1.83.91 3.14-.41.76-.76.76-.76 1.34-.11-2.05 2.09-4.07 4.19-6.14 6.24a1.41 1.41 0 0 1 -1.15.15c-4.42-1.31-6.39-3.94-6.42-8.64 0-4.24 0-8.48 0-12.71a10.84 10.84 0 0 0 -.32-3c-.53-1.82-1.63-2.06-2.93-.76-.28.28-.57.54-1 1l-.67-.78c2.3-2.28 4.49-4.49 6.74-6.65a1.39 1.39 0 0 1 1.16-.15 6.21 6.21 0 0 1 4.14 4.16c.12.33.2.68.44 1.48l5.43-6.14c1.88 2.5 3.91 3.27 6.55 1.69z"/><path d="m233.12 83.89c2.27 2.09 2.91 2.22 6 1.18.47 1.56-.83 4.33-2.87 5.71-3.44 2.33-6.52 1.71-9.27-1.79-.05.76-.08 1.14-.09 1.52v11.63c0 4.82 2.47 7.58 7.28 8.16a1.47 1.47 0 0 0 1-.42c1-1 2-2 3-3l.74.62-.44-.12q-3.76 4-7.55 8a1.08 1.08 0 0 1 -.73.29c-4.5-.08-9.45-4-10.52-8.33a17.72 17.72 0 0 1 -.38-3.79c-.06-3 0-5.92 0-8.87a17.83 17.83 0 0 0 -.22-2.12z"/><path d="m218.26 108.63c0 .34 0 .81-.18 1-1.84 1.89-3.72 3.75-5.62 5.57a1.3 1.3 0 0 1 -1.11.23 7.55 7.55 0 0 1 -5.32-7.58q0-7.44 0-14.87a4.14 4.14 0 0 0 -2.51-4l-1.84 2.39-.55-.28c.05-.33 0-.77.18-1 2.11-2.19 4.26-4.33 6.36-6.46a8.76 8.76 0 0 1 6 8.1v15.11a3.39 3.39 0 0 0 1.25 3c.66.5 1.24.67 1.81-.14a12.56 12.56 0 0 1 1-1.16z"/><path d="m130.81 1.69c-.58 2.9-3.72 5.64-7 6.26a15.68 15.68 0 0 1 -6.74-.59c-2.23-.53-4.43-1.43-6.81-.86a2.75 2.75 0 0 0 -2.23 1.6 1.6 1.6 0 0 0 .89 2.26c.39.22 1 .86.87 1.09a.92.92 0 0 1 -1.58.25 5.51 5.51 0 0 1 -1.57-2.29c-1.19-4.48 2.36-9 7.36-9.41a12.6 12.6 0 0 1 5.59 1c1.27.49 2.53 1 3.78 1.52a6.89 6.89 0 0 0 6.63-.52c.17-.1.34-.2.52-.29a1.17 1.17 0 0 1 .29-.02z"/><path d="m212 75-4.25 4.13-4.58-4.13 4.92-4.33z"/><path d="m27.14 15.85c2.28.63 4.26 1.08 6.17 1.73 4.33 1.48 7.46 4.14 8.17 9a11.88 11.88 0 0 1 -1.48 8.26 44.53 44.53 0 0 1 -4 5.42c-3.17 3.7-6.48 7.29-9.78 11-.27-.21-.49-.36-.69-.53-6.08-5.08-12.9-5.44-20.08-3a5.63 5.63 0 0 0 -4.05 4.15 3.42 3.42 0 0 0 1.72 4c.38.25.5.87.74 1.31-.53.11-1.27.48-1.56.26a5 5 0 0 1 -1.62-2c-1.68-3.96-.19-9.45 3.32-12.54a16.52 16.52 0 0 1 10.31-4c6-.41 11.6.91 16.29 5a2 2 0 0 0 .39.2c2.38-2.92 4.7-5.87 5.2-9.79s-1.21-7.48-4.87-9a51.12 51.12 0 0 0 -8.15-2.24c-.41-.1-1 .51-1.46.79l.11.38c1.18.26 2.37.45 3.53.78a33.65 33.65 0 0 1 4.76 1.59c3.23 1.51 4.6 4.12 4.26 7.7a9.66 9.66 0 0 1 -2.48 5.79 21 21 0 0 0 -.12-2.16 6.46 6.46 0 0 0 -3.18-4.44c-3.26-2.06-7-2.59-10.67-3.36-.26-.05-.66.33-.91.59-1.16 1.22-2.23 2.51-3.43 3.68a4.73 4.73 0 0 1 -4.18 1.37 2.53 2.53 0 0 1 -1.34-.79c-.12-.13.15-.92.35-1a2 2 0 0 1 1.52.09 1.8 1.8 0 0 0 2.59-.15c1.34-1.24 2.58-2.59 4-4.07a33 33 0 0 1 -4.22-1.08 26.25 26.25 0 0 1 -5.4-2.62 5.82 5.82 0 0 1 -1.78-7 13.12 13.12 0 0 1 1.28-2c1.95 3.79 5.41 4.75 8.88 5.67 1.31.34 2.65.57 4 .85s1.33.28 2.14-1.08c-1.11-.24-2.19-.45-3.24-.72-1.69-.45-3.42-.84-5.06-1.45-6.12-2.26-8.12-8.28-4.78-13.85 2.12-3.51 5.43-5.22 9.35-5.81a21.66 21.66 0 0 1 15.13 3.27c.33.21.67.4 1 .58 1.07-.53 1.2-2.2 2.86-1.93zm2.39-5.21a21.46 21.46 0 0 0 -8.47-6.59 12.41 12.41 0 0 0 -6.67-.91 4.51 4.51 0 0 0 -4 3.26 4.24 4.24 0 0 0 1.64 5 13.6 13.6 0 0 0 4 2c3.07.86 6.2 1.47 9.32 2.13a1.17 1.17 0 0 0 1-.38c1.09-1.46 2.14-3.01 3.18-4.51z"/><path d="m114.3 38.93a2.08 2.08 0 0 1 .38-.4 6.19 6.19 0 0 0 2.92-5.81c0-2.31 0-4.62 0-6.91-2.67-.75-4.16-.07-5.37 2.51a8.73 8.73 0 0 1 -.79-.89 5.11 5.11 0 0 1 3.88-7.94c2.46-.22 2.47-.22 2.2-2.66-.09-.83-.28-1.65-.45-2.6a105.54 105.54 0 0 0 25.59-13.11c2.5 3 5.6 4 9.65 2.66-.7 2.88-2 5-4.31 6.41s-4.87 1.25-7.45.28v8.94h5c-.95 2.05-1.78 3.9-2.68 5.71-.11.24-.55.39-.86.44a8.78 8.78 0 0 1 -1.48 0v23a4.37 4.37 0 0 1 0 1c-.05.17-.33.45-.44.42a.79.79 0 0 1 -.53-.46 3.79 3.79 0 0 1 -.05-1.07v-22.78h-3.8v3.71c0 2.44 0 4.88-.18 7.31a11 11 0 0 1 -4.34 8.31c-2.91 2.29-6 4.37-9 6.54l-1.94-1.54c-4.49-3.53-9.45-3.48-14.54-1.75a4.55 4.55 0 0 0 -3.25 4.91 2.76 2.76 0 0 0 1.66 2.68c.62.28 1.27.75.73 1.42a1.61 1.61 0 0 1 -1.63.11 5.35 5.35 0 0 1 -1.58-2.28c-2-6.54 1.86-12.89 8.89-14.45 5.66-1.26 11.65-.53 16.66 4.65v-34c-1.93.22-2.34.67-2.34 2.6 0 4.48-.11 9 0 13.43.16 5.32-2.23 8.83-7.1 10.77-1.09.44-2.2.83-3.3 1.24zm21.46-32.34v12.75h3.67c0-3 0-6 0-8.94a.87.87 0 0 0 -.22-.53c-1.13-1.09-2.27-2.16-3.45-3.28z"/><path d="m203.09 24.05c1.91-1.89 3.77-3.58 5.44-5.43a2.46 2.46 0 0 1 3.13-.69c4.12 1.54 6 4.2 6 8.92s0 9.68 0 14.51a2.88 2.88 0 0 0 1 2.58c.67.49 1.32.75 1.93-.13a11.72 11.72 0 0 1 1.09-1.2l.78.64a1.86 1.86 0 0 1 -.21.34c-1.81 1.8-3.64 3.59-5.44 5.41a1.12 1.12 0 0 1 -1.46.28c-3.7-1.58-5.28-4-5.29-8 0-4.36 0-8.71 0-13.07 0-2.32-.65-4.33-3-5.45a1.25 1.25 0 0 0 -1.56.24 6.08 6.08 0 0 0 -2.5 5.75c.24 3.86.12 7.75 0 11.62 0 2 .34 3.6 2.71 4.36-1.65 1.62-3.12 3.11-4.65 4.53-.19.18-.75.12-1.06 0a7 7 0 0 1 -4.59-6.92c0-5.31 0-10.63 0-15.95a3.44 3.44 0 0 0 -1.05-2.93c-.73-.61-1.39-.83-2.11.09-.3.39-.71 1.26-1.53.2 1.57-1.59 3.12-3.18 4.69-4.75 1.78-1.8 2-1.82 4.24-.49a6.5 6.5 0 0 1 3.21 4.68c.06.21.14.43.23.86z"/><path d="m80.37 44.76c-1.6 1.56-3 3-4.48 4.33a1.29 1.29 0 0 1 -1.12.21c-2.77-1.16-4.57-3.14-4.63-6.25-.1-5.2-.06-10.39-.1-15.59a9.5 9.5 0 0 0 -.13-2.27 4.05 4.05 0 0 0 -1-1.72 1.21 1.21 0 0 0 -2.09.07c-.3.41-.72 1.29-1.53.2l5-5.07c1.4-1.42 1.44-1.42 3.26-.53 2.38 1.12 3.45 2.64 4.14 5.86l2.25-2.19c1.08-1.07 2.24-2.07 3.21-3.23a2.33 2.33 0 0 1 3-.71c4 1.48 6 4.1 6.07 8.38v14.76a5.84 5.84 0 0 0 .21 1.77c.52 1.6 1.81 1.88 3 .73.42-.41.85-1.41 1.55-.27-2 2-3.86 4-5.82 5.9a1.21 1.21 0 0 1 -1 .17 7.75 7.75 0 0 1 -5.5-7.72c0-4.76 0-9.52-.08-14.28a4.72 4.72 0 0 0 -3.06-4.59c-.33-.14-.81.09-1.23.16 0 0 0 .06-.08.08-2.57 2.4-2.57 2.4-2.57 5.93 0 3.83.05 7.67 0 11.51-.06 2.01.44 3.6 2.73 4.36z"/><path d="m307.14 26.19c4.19-2.4 8.49-4.64 12.52-7.27a4.39 4.39 0 0 1 5-.22c3.49 1.82 5.46 4.56 5.44 8.6v9.83c0 1.35.14 2.7.21 4-4 2.33-8.25 4.47-12.13 7.11-2.18 1.48-3.88 1.21-5.89.12a9.11 9.11 0 0 1 -5-8.53c0-3.68 0-7.36 0-11 .04-.94-.08-1.83-.15-2.64zm7.86-3.85c0 5.62-.07 11.16 0 16.7a5.26 5.26 0 0 0 3.35 5c1 .42 2.05.65 3.07 1 .79.26 1.09 0 1.09-.84 0-5.07.07-10.14-.05-15.21-.03-4.09-3.19-6.82-7.46-6.65z"/><path d="m192.28 43.69c-1.83 1.8-3.66 3.65-5.56 5.42a1.42 1.42 0 0 1 -1.24.18 7.84 7.84 0 0 1 -5.23-5.63c-2.38 1.79-4.7 3.47-6.95 5.26a1.8 1.8 0 0 1 -2.26.18 8.27 8.27 0 0 1 -1.46-13.83 20.41 20.41 0 0 1 8.95-3.78l1.57-.32c0-2.67.49-5.5-2.41-7a18.29 18.29 0 0 0 -3.89-1.07c-1.68-.42-2.3 1.12-3.42 1.87l-.69-.6c2.24-2.24 4.42-4.44 6.63-6.62a1.14 1.14 0 0 1 .75-.28c5.1.16 9.88 3.19 10.6 8.69a24.81 24.81 0 0 1 .07 3.23c0 4-.05 8 0 12a5.37 5.37 0 0 0 1 2.68c.63.92 1.33.37 1.94-.27.45-.47.91-1.34 1.6-.11zm-12.16-11.5c-2.35.75-4.38 1.71-5.54 3.85a6.75 6.75 0 0 0 -.2 6.34 5.57 5.57 0 0 0 2.45 2.25c.4.21 1.32-.59 2-1a3.5 3.5 0 0 0 .87-.64 1.32 1.32 0 0 0 .42-.78c.01-3.21 0-6.56 0-10.02z"/><path d="m268.54 37.31a24 24 0 0 1 -2.48-1.05 23.23 23.23 0 0 1 -3.51-2.26 4.88 4.88 0 0 1 -1.6-3.87c0-1.78-.11-3.57-.16-5.29l12.37-7.17c1.18 1.09 2.61 2.3 4.54 2 1.74-.24 3.43-.79 5.51-1.28l-7.7 11.32c.66.25 1.29.48 1.91.73 3 1.25 4.28 3.09 4.32 6.35 0 2 .09 4 .14 6.16-2.06 1-4.34 2.16-6.6 3.33a30 30 0 0 0 -2.8 1.63c-1.41.92-2.51 1.82-4.44.45s-5.67-.22-7.04 1.64c-1.07 1.39-.94 2.31.32 3.44.27.24.27.79.39 1.2-.45.13-1.08.51-1.33.34a2.83 2.83 0 0 1 -1-1.47 6.28 6.28 0 0 1 1.24-5.51c2-2.82 4.14-5.58 6.22-8.37.55-.76 1.09-1.49 1.7-2.32zm-.07-15.2v4.59c0 3 .59 3.78 3.39 4.7a1 1 0 0 0 1.31-.4c1.33-1.9 2.7-3.77 4.05-5.65.52-.72 1-1.46 1.52-2.2-4.17 2.66-6.93 2.67-10.27-1.04zm2.88 13.24-6.21 8.47c3.17-1.48 6.1-1.7 8.86.92 0-2.44.08-4.69 0-6.93-.09-1.51-1.22-2.13-2.65-2.46z"/><path d="m44.37 24.28c2.18-2.19 4.32-4.34 6.48-6.47a1.22 1.22 0 0 1 .83-.37c4.8.14 9.29 2.86 10.38 7.64a14 14 0 0 1 .29 3v13.07a6.16 6.16 0 0 0 .98 2.85c.54.88 1.27.58 1.93-.14.35-.38.77-1.37 1.59-.24-1.89 1.9-3.75 3.8-5.67 5.64a1.35 1.35 0 0 1 -1.17 0 7.81 7.81 0 0 1 -5.14-5.59l-2.38 1.75-4.12 3.1c-1.62 1.23-1.81 1.24-3.54.08a8.24 8.24 0 0 1 -.45-13.49 20.29 20.29 0 0 1 8.77-3.63l1.7-.34c-.12-1.43-.13-2.83-.37-4.19a3.84 3.84 0 0 0 -2.39-2.95 18.09 18.09 0 0 0 -2.63-.78c-1.48-.38-2.83-.29-3.8 1.13-.35.51-.81.86-1.29-.07zm10.39 7.93a8.63 8.63 0 0 0 -5.2 3.25 6.83 6.83 0 0 0 -.38 7.38c1 2 2.33 2.18 4.08.95a5.63 5.63 0 0 0 1-.7 1.79 1.79 0 0 0 .52-1c0-3.21-.02-6.44-.02-9.88z"/><path d="m144.83 24.4c2.16-2.16 4.28-4.23 6.34-6.35a1.34 1.34 0 0 1 1.69-.35 6.47 6.47 0 0 1 3.92 4.1c.11.33.2.68.35 1.17l5.65-5.45c2.48 2.28 2.48 2.28 6.6 1.42-.48 2.44-1.42 4.49-3.53 5.75-2.94 1.76-5.73 1.25-8.35-1a4.75 4.75 0 0 0 -.19.74v15.83a3.55 3.55 0 0 0 2.48 3.68 1.4 1.4 0 0 0 2-.46c.3-.41.68-.77 1.17-1.31l.52.81c-2 2.09-4.09 4.22-6.19 6.28a1.43 1.43 0 0 1 -1.18.11c-4.35-1.31-6.29-3.9-6.34-8.58-.05-4.24 0-8.48 0-12.71a7.49 7.49 0 0 0 -.24-2.61 5.11 5.11 0 0 0 -1.65-2c-.16-.13-1 .6-1.53 1s-.96.99-1.52-.07z"/><path d="m285.91 26.4 14-8.63c1.47 1.87 3.57 2.42 6 1.13.43 1.91-1.12 4.82-3.35 6.08a6.4 6.4 0 0 1 -6.22.27 13.57 13.57 0 0 1 -2.57-2.15c0 .48-.08.86-.08 1.24v12c0 4.54 2.66 7.4 7.2 7.85a1.67 1.67 0 0 0 1.12-.46c1-.94 1.9-1.94 2.82-2.91.84.37.88.72.31 1.26-2.42 2.33-4.8 4.69-7.23 7a1.55 1.55 0 0 1 -1 .39 11.61 11.61 0 0 1 -10.63-9.34 16.32 16.32 0 0 1 -.15-2.62c0-2.64 0-5.28 0-7.92-.04-1.13-.13-2.27-.22-3.19z"/><path d="m242.55 40.61.55.57c-2.06 2.19-4.17 4.16-5.95 6.4-1.62 2-3.3 2.06-5.52 1.25-5.14-1.87-7.83-5.41-7.92-10.89-.05-2.95 0-5.91 0-8.87 0-.94-.15-1.88-.22-2.66l14-8.64c1.51 1.91 3.63 2.38 6.07 1.12.33 2.23-1.47 5.14-3.83 6.38-2.75 1.44-4.92.9-8.31-2.17a8.19 8.19 0 0 0 -.13 1.06v12.35a7.37 7.37 0 0 0 7.26 7.67 1.61 1.61 0 0 0 1.1-.51c.97-.94 1.87-1.96 2.9-3.06z"/><path d="m259.87 42.33.69.65c-2 2.09-4 4.13-6 6.13a1.34 1.34 0 0 1 -1.14.21 7.42 7.42 0 0 1 -5.23-7.26c0-4.92 0-9.83 0-14.75a4.53 4.53 0 0 0 -1.51-3.87c-.57-.47-1-.53-1.5.08a6.33 6.33 0 0 1 -1.2 1.17c-.22.15-.62.07-.93.09l-.07-.39c2.17-2.17 4.34-4.35 6.54-6.49a1.08 1.08 0 0 1 1-.13c3.21 1.79 5.31 4.26 5.26 8.19-.07 4.84 0 9.68 0 14.51a3.61 3.61 0 0 0 1.22 3.21c.65.48 1.23.72 1.8-.12a14 14 0 0 1 1.07-1.23z"/><path d="m254.09 8.89-4.35 4.11-4.47-4.09c1.52-1.58 3-3.13 4.5-4.71z"/></g></svg>