<svg class="brands__image brands__image--time" xmlns="http://www.w3.org/2000/svg" viewBox="0 0 327.72 100">
  <path d="M156.36 0s-3.69.08-5.83 0c-.09.9-1.12 9-2 15.56-1 6-9.09 50.92-11.83 64.35-.72 4-2.94 15.51-3.15 16.66-2.57.3-5.6.59-7.59.66-.26 0-.7.1-.91.1v2.32c.24 0 1.52.09 2.43 0 2.18-.07 8.37-.36 9.55-.36 4.45 0 7.41.29 11.53.38.06 0 1.19 0 1.68-.07v-2.26h-1.06c-1.16 0-5.45-.29-7.62-.59.26-1.54 4.05-24.77 5.86-34.07 3.46-17.2 5.85-29.39 5.85-29.39l.64 1.52 27.29 65.04h5s2.85-7 6.23-14.94c.08-.19.33-.76.67-1.57 3.54-8.2 21.1-49.84 21.1-49.84s.17.75.45 2.09c1.67 8.16 7.33 37.58 8.53 44.67.57 3.65 1.1 7.35 1.41 9.52.45 3.07.75 6.08.75 6.94-.55 0-6.11.53-8.21.62a8.86 8.86 0 0 0-.9 0v2.36h2.21c4.3-.08 8.43-.42 12.73-.42 4.82 0 12.65.43 17.67.46h1.57v-2.37c-.29 0-1.55-.06-2-.1-2.24-.18-6-.53-7-.59 0 0-.62-3.44-1.44-7.4-3.28-15.88-12.61-64.13-14-76C225.41 9.2 224 0 224 0h-5.62s-2.86 8.23-5.48 15.73c-1.78 5.13-4.2 11.46-6.05 16.31-9.13 24-19.36 46.32-19.36 46.32s-21.74-51.88-22.89-54.88S156.36 0 156.36 0zM.05 0v5.49L0 18.86h1.45L1.6 6.94l9-.07h24.3v89.8h-.21c-1.27.1-6.16.4-8.14.47h-.78v2.46h1.45c4.7-.06 11.06-.47 15.56-.47s11 .45 15 .5h1.24v-2.27h-.49c-1.27 0-8.3-.46-9-.56 0-1.1-.16-6.45-.16-6.57V6.91h26.27L82 7c0 .45.36 6.47.35 6.63 0 .44.24 4.92.23 6h1.5L84 6.16V.09c-5.54.15-19.74.34-41.79.33C23.31.41 5.09.25.05 0zm88.29 0v2.37c.75 0 5.15.43 6.22.48.85.11 2 .21 2.9.3v8c.15 19.55 0 62.76 0 78.05v7.27a18.4 18.4 0 0 1-3.07.31c-1.12.08-5.14.42-6 .44v2.36c.38 0 1.06.08 1.45.08 4.55 0 10.87-.56 15.53-.56s11 .58 14.71.58c.32 0 1.08-.08 1.4-.08v-2.28h-.32c-.14 0-4.92-.24-6.09-.36a31.82 31.82 0 0 1-3.27-.35v-1.94-5c0-15.43 0-61.23.06-78.74v-7.6c1-.07 5.24-.51 6.75-.64l2.87-.17V.06c-5.14 0-12 .4-17 .4C99.17.46 92.7.05 88.34 0zM326.6.11h-1.55l-22.56.14c-6.33 0-11.28.09-17.8.09-4.58 0-11 .23-14.93.22-6.31 0-11.46-.4-14.26-.41h-2.44v2.33a6.07 6.07 0 0 0 1.18.09c1.58.11 4.55.35 6.06.55.3 0 .81.13 2.22.29 0 .53.07 6.45.06 10v76.92s-.16 5.92-.16 6.39a76 76 0 0 1-9 .7H253v2.34h1.91c2.65 0 9.47-.42 16.43-.43 4.88 0 10.25.18 15.69.26 6.7.09 13.47.1 19.56.18 10.05.14 18.18.16 20.83.16 0 0 .32-18.63.32-20.13h-1.45c0 1.58-.59 7.48-.61 7.74-.19 2.22-.39 4.55-.54 5.7h-1.05c-1.65 0-6.92.16-7 .16h-23.56L277 93.27l-.11-4.58V53.14c3-.1 7.44-.26 10.18-.25 2.32 0 7.8-.13 10.87-.12 7.45 0 14.07.06 14.6.07 1.23 0 3.51.11 4.38.17 0 .31.13.8.14.94.44 2.72.69 4.61 1 7.28 0 .24.06.47.1.69h1.69v-1.55c0-2.09-.16-6.27-.16-10.91 0-3.21.17-8.12.19-10.48a12.42 12.42 0 0 0-.06-1.28h-1.55a11.79 11.79 0 0 1-.13 1.27c-.14 1.76-.64 4-1 6.38a4.2 4.2 0 0 0-.19.71c-.18.06-5 .32-5.47.31l-7.37.2-27.19-.1V7.26s3.45-.12 4.41-.11h16.8c9.51 0 18.74.07 18.77.09s2.86.06 2.92.11 3.59.16 4.45.19a5.78 5.78 0 0 1 .11.66c.39 4.13.71 9 .85 10.78v.69h1.45c0-2.55-.14-10.34-.16-15.3V.11z" fill="#99a3ad"></path>
</svg>