<svg class="brands__image brands__image--business-insider" xmlns="http://www.w3.org/2000/svg" viewBox="0 0 643.75 200">
  <path d="M49.9 200h15v-80h-15zm54.89-1.2h13.42v-50.48L174.66 200v-78.8h-13.37v49.61L104.79 120zm100.49-19.38a41.2 41.2 0 0 0 25.46 9c9.15 0 15.57-3.15 15.57-10.11 0-6.06-4.1-8.43-11.27-11.09l-11.6-4c-10.7-3.8-18.84-9.35-18.84-22.11 0-13.64 12.32-21.06 27.05-21.06a44.74 44.74 0 0 1 23.68 6.29v13.53c-6.69-4.94-14-8.34-23.39-8.34-8.09 0-14.13 3-14.13 9.31 0 5.69 3.79 8 10.47 10.25l12.93 4.54c12.53 4.41 18.28 11.24 18.28 22.48 0 14.13-12.43 21.94-28.75 21.94-10.73 0-19.85-3-25.46-6.79zM294.43 200h15v-80h-15zm85.19-12.11c16.88 0 25.9-10.82 25.9-27.91s-9-28-25.9-28h-16.68v55.91zM349.31 120h30.81c23.72 0 39.06 15.62 39.06 40s-15.34 40-39.06 40h-30.81zM494 120v12h-36.19v19.25h32.5v11.84h-32.5v24.82H494V200h-49.9v-80zm53.14 36.22H562c8.79 0 13.75-4.82 13.75-12.24s-5-12.25-13.75-12.25h-14.82v24.5zm0 11.32V200H534v-80h28.33c16.15 0 26.6 8.32 26.6 24 0 13.39-5.8 21.09-18.16 23.06l28.11 33h-15l-27.21-32.46h-9.41zM44.67 41.19c5.85-2.19 10.42-8.58 10.42-17.42C55.09 9 44.67 1.39 28 1.39H0v82.27h30.6c16.67 0 27.09-8.17 27.09-23.58 0-8.71-5.47-16.35-13.02-18.89zM13.15 36V13.46h14.72c9.25 0 14.2 3.35 14.2 11.11S37.12 36 27.87 36zm0 11.53h17.19c9.12 0 14.07 4.55 14.07 12s-4.95 12.08-14.07 12.08H13.16V47.48zM118.78 85c19.14 0 32-11.53 32-34V1.39h-13.51v48c0 15.81-6.51 23.18-18.49 23.18s-18.49-7.37-18.49-23.18v-48H86.75v49.44C86.75 73.47 99.77 85 118.78 85zm63.93-7.24c5.6 4 14.71 7.24 25.39 7.24 16.28 0 28.65-8.31 28.65-23.31 0-11.93-5.73-19.16-18.23-23.85L205.63 33c-6.64-2.4-10.42-4.82-10.42-10.85 0-6.7 6-9.91 14.06-9.91 9.38 0 16.67 3.61 23.32 8.84V6.75A42.3 42.3 0 0 0 209 .06c-14.7 0-26.94 7.94-26.94 22.37 0 13.53 8.07 19.43 18.75 23.44l11.59 4.29c7.16 2.81 11.2 5.36 11.2 11.8 0 7.36-6.38 10.71-15.5 10.71a39.6 39.6 0 0 1-25.39-9.51zM285.14 1.39h-13.53v82.27h13.53zm38.64 82.17h13.05V30l54.93 54.79V1.27h-13v52.6L323.78 0zM476.39 1.41v12.32h-35.17v19.8h31.54v12.18h-31.54v25.52h35.17v12.45H428V1.41zm31.53 76.3c5.6 4 14.71 7.23 25.39 7.23 16.28 0 28.65-8.3 28.65-23.31 0-11.92-5.73-19.16-18.23-23.85L530.84 33c-6.65-2.41-10.42-4.82-10.42-10.85 0-6.7 6-9.92 14.06-9.92 9.38 0 16.67 3.62 23.31 8.85V6.7A42.19 42.19 0 0 0 534.22 0c-14.71 0-27 7.91-27 22.37 0 13.54 8.08 19.43 18.75 23.45l11.6 4.29c7.16 2.81 11.2 5.36 11.2 11.79 0 7.37-6.38 10.72-15.5 10.72a39.6 39.6 0 0 1-25.39-9.51zm81.79 0c5.6 4 14.71 7.23 25.39 7.23 16.28 0 28.65-8.3 28.65-23.31 0-11.92-5.73-19.16-18.23-23.85L612.62 33c-6.63-2.41-10.41-4.82-10.41-10.85 0-6.7 6-9.92 14.06-9.92 9.37 0 16.67 3.62 23.31 8.85V6.7A42.17 42.17 0 0 0 616 0c-14.72 0-27 7.91-27 22.37 0 13.54 8.07 19.43 18.75 23.45l11.59 4.29c7.16 2.81 11.2 5.36 11.2 11.79 0 7.37-6.38 10.72-15.5 10.72a39.6 39.6 0 0 1-25.39-9.51z" fill="#99a3ad"></path>
</svg>