<svg id="Layer_1" data-name="Layer 1" xmlns="http://www.w3.org/2000/svg" viewBox="0 0 545 167"><defs><style>.cls-1{fill:#339fd7;}</style></defs><title>Artboard 1</title><g id="Layer_1-2" data-name="Layer 1-2"><circle class="cls-1" cx="2.5" cy="18.5" r="2.5"/><circle class="cls-1" cx="29.5" cy="18.5" r="2.5"/><circle class="cls-1" cx="56.5" cy="18.5" r="2.5"/><circle class="cls-1" cx="83.5" cy="18.5" r="2.5"/><circle class="cls-1" cx="110.5" cy="18.5" r="2.5"/><circle class="cls-1" cx="137.5" cy="18.5" r="2.5"/><circle class="cls-1" cx="164.5" cy="18.5" r="2.5"/><circle class="cls-1" cx="191.5" cy="18.5" r="2.5"/><circle class="cls-1" cx="218.5" cy="18.5" r="2.5"/><circle class="cls-1" cx="245.5" cy="18.5" r="2.5"/><circle class="cls-1" cx="272.5" cy="18.5" r="2.5"/><circle class="cls-1" cx="299.5" cy="18.5" r="2.5"/><circle class="cls-1" cx="326.5" cy="18.5" r="2.5"/><circle class="cls-1" cx="353.5" cy="18.5" r="2.5"/><circle class="cls-1" cx="380.5" cy="18.5" r="2.5"/><circle class="cls-1" cx="407.5" cy="18.5" r="2.5"/><circle class="cls-1" cx="434.5" cy="18.5" r="2.5"/><circle class="cls-1" cx="461.5" cy="18.5" r="2.5"/><circle class="cls-1" cx="488.5" cy="18.5" r="2.5"/><circle class="cls-1" cx="515.5" cy="18.5" r="2.5"/><circle class="cls-1" cx="542.5" cy="18.5" r="2.5"/><circle class="cls-1" cx="2.5" cy="45.5" r="2.5"/><circle class="cls-1" cx="29.5" cy="45.5" r="2.5"/><circle class="cls-1" cx="56.5" cy="45.5" r="2.5"/><circle class="cls-1" cx="83.5" cy="45.5" r="2.5"/><circle class="cls-1" cx="110.5" cy="45.5" r="2.5"/><circle class="cls-1" cx="137.5" cy="45.5" r="2.5"/><circle class="cls-1" cx="164.5" cy="45.5" r="2.5"/><circle class="cls-1" cx="191.5" cy="45.5" r="2.5"/><circle class="cls-1" cx="218.5" cy="45.5" r="2.5"/><circle class="cls-1" cx="245.5" cy="45.5" r="2.5"/><circle class="cls-1" cx="272.5" cy="45.5" r="2.5"/><circle class="cls-1" cx="299.5" cy="45.5" r="2.5"/><circle class="cls-1" cx="326.5" cy="45.5" r="2.5"/><circle class="cls-1" cx="353.5" cy="45.5" r="2.5"/><circle class="cls-1" cx="380.5" cy="45.5" r="2.5"/><circle class="cls-1" cx="407.5" cy="45.5" r="2.5"/><circle class="cls-1" cx="434.5" cy="45.5" r="2.5"/><circle class="cls-1" cx="461.5" cy="45.5" r="2.5"/><circle class="cls-1" cx="488.5" cy="45.5" r="2.5"/><circle class="cls-1" cx="515.5" cy="45.5" r="2.5"/><circle class="cls-1" cx="542.5" cy="45.5" r="2.5"/><circle class="cls-1" cx="2.5" cy="72.5" r="2.5"/><circle class="cls-1" cx="29.5" cy="72.5" r="2.5"/><circle class="cls-1" cx="56.5" cy="72.5" r="2.5"/><circle class="cls-1" cx="83.5" cy="72.5" r="2.5"/><circle class="cls-1" cx="110.5" cy="72.5" r="2.5"/><circle class="cls-1" cx="137.5" cy="72.5" r="2.5"/><circle class="cls-1" cx="164.5" cy="72.5" r="2.5"/><circle class="cls-1" cx="191.5" cy="72.5" r="2.5"/><circle class="cls-1" cx="218.5" cy="72.5" r="2.5"/><circle class="cls-1" cx="245.5" cy="72.5" r="2.5"/><circle class="cls-1" cx="272.5" cy="72.5" r="2.5"/><circle class="cls-1" cx="299.5" cy="72.5" r="2.5"/><circle class="cls-1" cx="326.5" cy="72.5" r="2.5"/><circle class="cls-1" cx="353.5" cy="72.5" r="2.5"/><circle class="cls-1" cx="380.5" cy="72.5" r="2.5"/><circle class="cls-1" cx="407.5" cy="72.5" r="2.5"/><circle class="cls-1" cx="434.5" cy="72.5" r="2.5"/><circle class="cls-1" cx="461.5" cy="72.5" r="2.5"/><circle class="cls-1" cx="488.5" cy="72.5" r="2.5"/><circle class="cls-1" cx="515.5" cy="72.5" r="2.5"/><circle class="cls-1" cx="542.5" cy="72.5" r="2.5"/><circle class="cls-1" cx="2.5" cy="99.5" r="2.5"/><circle class="cls-1" cx="29.5" cy="99.5" r="2.5"/><circle class="cls-1" cx="56.5" cy="99.5" r="2.5"/><circle class="cls-1" cx="83.5" cy="99.5" r="2.5"/><circle class="cls-1" cx="110.5" cy="99.5" r="2.5"/><circle class="cls-1" cx="137.5" cy="99.5" r="2.5"/><circle class="cls-1" cx="164.5" cy="99.5" r="2.5"/><circle class="cls-1" cx="191.5" cy="99.5" r="2.5"/><circle class="cls-1" cx="218.5" cy="99.5" r="2.5"/><circle class="cls-1" cx="245.5" cy="99.5" r="2.5"/><circle class="cls-1" cx="272.5" cy="99.5" r="2.5"/><circle class="cls-1" cx="299.5" cy="99.5" r="2.5"/><circle class="cls-1" cx="326.5" cy="99.5" r="2.5"/><circle class="cls-1" cx="353.5" cy="99.5" r="2.5"/><circle class="cls-1" cx="380.5" cy="99.5" r="2.5"/><circle class="cls-1" cx="407.5" cy="99.5" r="2.5"/><circle class="cls-1" cx="434.5" cy="99.5" r="2.5"/><circle class="cls-1" cx="461.5" cy="99.5" r="2.5"/><circle class="cls-1" cx="488.5" cy="99.5" r="2.5"/><circle class="cls-1" cx="515.5" cy="99.5" r="2.5"/><circle class="cls-1" cx="542.5" cy="99.5" r="2.5"/><circle class="cls-1" cx="2.5" cy="126.5" r="2.5"/><circle class="cls-1" cx="29.5" cy="126.5" r="2.5"/><circle class="cls-1" cx="56.5" cy="126.5" r="2.5"/><circle class="cls-1" cx="83.5" cy="126.5" r="2.5"/><circle class="cls-1" cx="110.5" cy="126.5" r="2.5"/><circle class="cls-1" cx="137.5" cy="126.5" r="2.5"/><circle class="cls-1" cx="164.5" cy="126.5" r="2.5"/><circle class="cls-1" cx="191.5" cy="126.5" r="2.5"/><circle class="cls-1" cx="218.5" cy="126.5" r="2.5"/><circle class="cls-1" cx="245.5" cy="126.5" r="2.5"/><circle class="cls-1" cx="272.5" cy="126.5" r="2.5"/><circle class="cls-1" cx="299.5" cy="126.5" r="2.5"/><circle class="cls-1" cx="326.5" cy="126.5" r="2.5"/><circle class="cls-1" cx="353.5" cy="126.5" r="2.5"/><circle class="cls-1" cx="380.5" cy="126.5" r="2.5"/><circle class="cls-1" cx="407.5" cy="126.5" r="2.5"/><circle class="cls-1" cx="434.5" cy="126.5" r="2.5"/><circle class="cls-1" cx="461.5" cy="126.5" r="2.5"/><circle class="cls-1" cx="488.5" cy="126.5" r="2.5"/><circle class="cls-1" cx="515.5" cy="126.5" r="2.5"/><circle class="cls-1" cx="542.5" cy="126.5" r="2.5"/><circle class="cls-1" cx="2.5" cy="153.5" r="2.5"/><circle class="cls-1" cx="29.5" cy="153.5" r="2.5"/><circle class="cls-1" cx="56.5" cy="153.5" r="2.5"/><circle class="cls-1" cx="83.5" cy="153.5" r="2.5"/><circle class="cls-1" cx="110.5" cy="153.5" r="2.5"/><circle class="cls-1" cx="137.5" cy="153.5" r="2.5"/><circle class="cls-1" cx="164.5" cy="153.5" r="2.5"/><circle class="cls-1" cx="191.5" cy="153.5" r="2.5"/><circle class="cls-1" cx="218.5" cy="153.5" r="2.5"/><circle class="cls-1" cx="245.5" cy="153.5" r="2.5"/><circle class="cls-1" cx="272.5" cy="153.5" r="2.5"/><circle class="cls-1" cx="299.5" cy="153.5" r="2.5"/><circle class="cls-1" cx="326.5" cy="153.5" r="2.5"/><circle class="cls-1" cx="353.5" cy="153.5" r="2.5"/><circle class="cls-1" cx="380.5" cy="153.5" r="2.5"/><circle class="cls-1" cx="407.5" cy="153.5" r="2.5"/><circle class="cls-1" cx="434.5" cy="153.5" r="2.5"/><circle class="cls-1" cx="461.5" cy="153.5" r="2.5"/><circle class="cls-1" cx="488.5" cy="153.5" r="2.5"/><circle class="cls-1" cx="515.5" cy="153.5" r="2.5"/><circle class="cls-1" cx="542.5" cy="153.5" r="2.5"/></g></svg>