<svg xmlns="http://www.w3.org/2000/svg" viewBox="0 0 516 144"><defs><style>.cls-1{fill:#339fd7;}</style></defs><title>Asset 3</title><g id="Layer_2" data-name="Layer 2"><g id="Layer_1-2" data-name="Layer 1"><path class="cls-1" d="M19,9H11V1A1,1,0,0,0,9,1V9H1a1,1,0,0,0,0,2H9v8a1,1,0,0,0,2,0V11h8a1,1,0,0,0,0-2Z"/><path class="cls-1" d="M50,9H42V1a1,1,0,0,0-2,0V9H32a1,1,0,0,0,0,2h8v8a1,1,0,0,0,2,0V11h8a1,1,0,0,0,0-2Z"/><path class="cls-1" d="M81,9H73V1a1,1,0,0,0-2,0V9H63a1,1,0,0,0,0,2h8v8a1,1,0,0,0,2,0V11h8a1,1,0,0,0,0-2Z"/><path class="cls-1" d="M112,9h-8V1a1,1,0,0,0-2,0V9H94a1,1,0,0,0,0,2h8v8a1,1,0,0,0,2,0V11h8a1,1,0,0,0,0-2Z"/><path class="cls-1" d="M143,9h-8V1a1,1,0,0,0-2,0V9h-8a1,1,0,0,0,0,2h8v8a1,1,0,0,0,2,0V11h8a1,1,0,0,0,0-2Z"/><path class="cls-1" d="M174,9h-8V1a1,1,0,0,0-2,0V9h-8a1,1,0,0,0,0,2h8v8a1,1,0,0,0,2,0V11h8a1,1,0,0,0,0-2Z"/><path class="cls-1" d="M205,9h-8V1a1,1,0,0,0-2,0V9h-8a1,1,0,0,0,0,2h8v8a1,1,0,0,0,2,0V11h8a1,1,0,0,0,0-2Z"/><path class="cls-1" d="M236,9h-8V1a1,1,0,0,0-2,0V9h-8a1,1,0,0,0,0,2h8v8a1,1,0,0,0,2,0V11h8a1,1,0,0,0,0-2Z"/><path class="cls-1" d="M267,9h-8V1a1,1,0,0,0-2,0V9h-8a1,1,0,0,0,0,2h8v8a1,1,0,0,0,2,0V11h8a1,1,0,0,0,0-2Z"/><path class="cls-1" d="M298,9h-8V1a1,1,0,0,0-2,0V9h-8a1,1,0,0,0,0,2h8v8a1,1,0,0,0,2,0V11h8a1,1,0,0,0,0-2Z"/><path class="cls-1" d="M329,9h-8V1a1,1,0,0,0-2,0V9h-8a1,1,0,0,0,0,2h8v8a1,1,0,0,0,2,0V11h8a1,1,0,0,0,0-2Z"/><path class="cls-1" d="M360,9h-8V1a1,1,0,0,0-2,0V9h-8a1,1,0,0,0,0,2h8v8a1,1,0,0,0,2,0V11h8a1,1,0,0,0,0-2Z"/><path class="cls-1" d="M391,9h-8V1a1,1,0,0,0-2,0V9h-8a1,1,0,0,0,0,2h8v8a1,1,0,0,0,2,0V11h8a1,1,0,0,0,0-2Z"/><path class="cls-1" d="M422,9h-8V1a1,1,0,0,0-2,0V9h-8a1,1,0,0,0,0,2h8v8a1,1,0,0,0,2,0V11h8a1,1,0,0,0,0-2Z"/><path class="cls-1" d="M453,9h-8V1a1,1,0,0,0-2,0V9h-8a1,1,0,0,0,0,2h8v8a1,1,0,0,0,2,0V11h8a1,1,0,0,0,0-2Z"/><path class="cls-1" d="M484,9h-8V1a1,1,0,0,0-2,0V9h-8a1,1,0,0,0,0,2h8v8a1,1,0,0,0,2,0V11h8a1,1,0,0,0,0-2Z"/><path class="cls-1" d="M19,40H11V32a1,1,0,0,0-2,0v8H1a1,1,0,0,0,0,2H9v8a1,1,0,0,0,2,0V42h8a1,1,0,0,0,0-2Z"/><path class="cls-1" d="M50,40H42V32a1,1,0,0,0-2,0v8H32a1,1,0,0,0,0,2h8v8a1,1,0,0,0,2,0V42h8a1,1,0,0,0,0-2Z"/><path class="cls-1" d="M81,40H73V32a1,1,0,0,0-2,0v8H63a1,1,0,0,0,0,2h8v8a1,1,0,0,0,2,0V42h8a1,1,0,0,0,0-2Z"/><path class="cls-1" d="M112,40h-8V32a1,1,0,0,0-2,0v8H94a1,1,0,0,0,0,2h8v8a1,1,0,0,0,2,0V42h8a1,1,0,0,0,0-2Z"/><path class="cls-1" d="M143,40h-8V32a1,1,0,0,0-2,0v8h-8a1,1,0,0,0,0,2h8v8a1,1,0,0,0,2,0V42h8a1,1,0,0,0,0-2Z"/><path class="cls-1" d="M174,40h-8V32a1,1,0,0,0-2,0v8h-8a1,1,0,0,0,0,2h8v8a1,1,0,0,0,2,0V42h8a1,1,0,0,0,0-2Z"/><path class="cls-1" d="M205,40h-8V32a1,1,0,0,0-2,0v8h-8a1,1,0,0,0,0,2h8v8a1,1,0,0,0,2,0V42h8a1,1,0,0,0,0-2Z"/><path class="cls-1" d="M236,40h-8V32a1,1,0,0,0-2,0v8h-8a1,1,0,0,0,0,2h8v8a1,1,0,0,0,2,0V42h8a1,1,0,0,0,0-2Z"/><path class="cls-1" d="M267,40h-8V32a1,1,0,0,0-2,0v8h-8a1,1,0,0,0,0,2h8v8a1,1,0,0,0,2,0V42h8a1,1,0,0,0,0-2Z"/><path class="cls-1" d="M298,40h-8V32a1,1,0,0,0-2,0v8h-8a1,1,0,0,0,0,2h8v8a1,1,0,0,0,2,0V42h8a1,1,0,0,0,0-2Z"/><path class="cls-1" d="M329,40h-8V32a1,1,0,0,0-2,0v8h-8a1,1,0,0,0,0,2h8v8a1,1,0,0,0,2,0V42h8a1,1,0,0,0,0-2Z"/><path class="cls-1" d="M360,40h-8V32a1,1,0,0,0-2,0v8h-8a1,1,0,0,0,0,2h8v8a1,1,0,0,0,2,0V42h8a1,1,0,0,0,0-2Z"/><path class="cls-1" d="M391,40h-8V32a1,1,0,0,0-2,0v8h-8a1,1,0,0,0,0,2h8v8a1,1,0,0,0,2,0V42h8a1,1,0,0,0,0-2Z"/><path class="cls-1" d="M422,40h-8V32a1,1,0,0,0-2,0v8h-8a1,1,0,0,0,0,2h8v8a1,1,0,0,0,2,0V42h8a1,1,0,0,0,0-2Z"/><path class="cls-1" d="M453,40h-8V32a1,1,0,0,0-2,0v8h-8a1,1,0,0,0,0,2h8v8a1,1,0,0,0,2,0V42h8a1,1,0,0,0,0-2Z"/><path class="cls-1" d="M484,40h-8V32a1,1,0,0,0-2,0v8h-8a1,1,0,0,0,0,2h8v8a1,1,0,0,0,2,0V42h8a1,1,0,0,0,0-2Z"/><path class="cls-1" d="M19,71H11V63a1,1,0,0,0-2,0v8H1a1,1,0,0,0,0,2H9v8a1,1,0,0,0,2,0V73h8a1,1,0,0,0,0-2Z"/><path class="cls-1" d="M50,71H42V63a1,1,0,0,0-2,0v8H32a1,1,0,0,0,0,2h8v8a1,1,0,0,0,2,0V73h8a1,1,0,0,0,0-2Z"/><path class="cls-1" d="M81,71H73V63a1,1,0,0,0-2,0v8H63a1,1,0,0,0,0,2h8v8a1,1,0,0,0,2,0V73h8a1,1,0,0,0,0-2Z"/><path class="cls-1" d="M112,71h-8V63a1,1,0,0,0-2,0v8H94a1,1,0,0,0,0,2h8v8a1,1,0,0,0,2,0V73h8a1,1,0,0,0,0-2Z"/><path class="cls-1" d="M143,71h-8V63a1,1,0,0,0-2,0v8h-8a1,1,0,0,0,0,2h8v8a1,1,0,0,0,2,0V73h8a1,1,0,0,0,0-2Z"/><path class="cls-1" d="M174,71h-8V63a1,1,0,0,0-2,0v8h-8a1,1,0,0,0,0,2h8v8a1,1,0,0,0,2,0V73h8a1,1,0,0,0,0-2Z"/><path class="cls-1" d="M205,71h-8V63a1,1,0,0,0-2,0v8h-8a1,1,0,0,0,0,2h8v8a1,1,0,0,0,2,0V73h8a1,1,0,0,0,0-2Z"/><path class="cls-1" d="M236,71h-8V63a1,1,0,0,0-2,0v8h-8a1,1,0,0,0,0,2h8v8a1,1,0,0,0,2,0V73h8a1,1,0,0,0,0-2Z"/><path class="cls-1" d="M267,71h-8V63a1,1,0,0,0-2,0v8h-8a1,1,0,0,0,0,2h8v8a1,1,0,0,0,2,0V73h8a1,1,0,0,0,0-2Z"/><path class="cls-1" d="M298,71h-8V63a1,1,0,0,0-2,0v8h-8a1,1,0,0,0,0,2h8v8a1,1,0,0,0,2,0V73h8a1,1,0,0,0,0-2Z"/><path class="cls-1" d="M329,71h-8V63a1,1,0,0,0-2,0v8h-8a1,1,0,0,0,0,2h8v8a1,1,0,0,0,2,0V73h8a1,1,0,0,0,0-2Z"/><path class="cls-1" d="M360,71h-8V63a1,1,0,0,0-2,0v8h-8a1,1,0,0,0,0,2h8v8a1,1,0,0,0,2,0V73h8a1,1,0,0,0,0-2Z"/><path class="cls-1" d="M391,71h-8V63a1,1,0,0,0-2,0v8h-8a1,1,0,0,0,0,2h8v8a1,1,0,0,0,2,0V73h8a1,1,0,0,0,0-2Z"/><path class="cls-1" d="M422,71h-8V63a1,1,0,0,0-2,0v8h-8a1,1,0,0,0,0,2h8v8a1,1,0,0,0,2,0V73h8a1,1,0,0,0,0-2Z"/><path class="cls-1" d="M453,71h-8V63a1,1,0,0,0-2,0v8h-8a1,1,0,0,0,0,2h8v8a1,1,0,0,0,2,0V73h8a1,1,0,0,0,0-2Z"/><path class="cls-1" d="M484,71h-8V63a1,1,0,0,0-2,0v8h-8a1,1,0,0,0,0,2h8v8a1,1,0,0,0,2,0V73h8a1,1,0,0,0,0-2Z"/><path class="cls-1" d="M19,102H11V94a1,1,0,0,0-2,0v8H1a1,1,0,0,0,0,2H9v8a1,1,0,0,0,2,0v-8h8a1,1,0,0,0,0-2Z"/><path class="cls-1" d="M50,102H42V94a1,1,0,0,0-2,0v8H32a1,1,0,0,0,0,2h8v8a1,1,0,0,0,2,0v-8h8a1,1,0,0,0,0-2Z"/><path class="cls-1" d="M81,102H73V94a1,1,0,0,0-2,0v8H63a1,1,0,0,0,0,2h8v8a1,1,0,0,0,2,0v-8h8a1,1,0,0,0,0-2Z"/><path class="cls-1" d="M112,102h-8V94a1,1,0,0,0-2,0v8H94a1,1,0,0,0,0,2h8v8a1,1,0,0,0,2,0v-8h8a1,1,0,0,0,0-2Z"/><path class="cls-1" d="M143,102h-8V94a1,1,0,0,0-2,0v8h-8a1,1,0,0,0,0,2h8v8a1,1,0,0,0,2,0v-8h8a1,1,0,0,0,0-2Z"/><path class="cls-1" d="M174,102h-8V94a1,1,0,0,0-2,0v8h-8a1,1,0,0,0,0,2h8v8a1,1,0,0,0,2,0v-8h8a1,1,0,0,0,0-2Z"/><path class="cls-1" d="M205,102h-8V94a1,1,0,0,0-2,0v8h-8a1,1,0,0,0,0,2h8v8a1,1,0,0,0,2,0v-8h8a1,1,0,0,0,0-2Z"/><path class="cls-1" d="M236,102h-8V94a1,1,0,0,0-2,0v8h-8a1,1,0,0,0,0,2h8v8a1,1,0,0,0,2,0v-8h8a1,1,0,0,0,0-2Z"/><path class="cls-1" d="M267,102h-8V94a1,1,0,0,0-2,0v8h-8a1,1,0,0,0,0,2h8v8a1,1,0,0,0,2,0v-8h8a1,1,0,0,0,0-2Z"/><path class="cls-1" d="M298,102h-8V94a1,1,0,0,0-2,0v8h-8a1,1,0,0,0,0,2h8v8a1,1,0,0,0,2,0v-8h8a1,1,0,0,0,0-2Z"/><path class="cls-1" d="M329,102h-8V94a1,1,0,0,0-2,0v8h-8a1,1,0,0,0,0,2h8v8a1,1,0,0,0,2,0v-8h8a1,1,0,0,0,0-2Z"/><path class="cls-1" d="M360,102h-8V94a1,1,0,0,0-2,0v8h-8a1,1,0,0,0,0,2h8v8a1,1,0,0,0,2,0v-8h8a1,1,0,0,0,0-2Z"/><path class="cls-1" d="M391,102h-8V94a1,1,0,0,0-2,0v8h-8a1,1,0,0,0,0,2h8v8a1,1,0,0,0,2,0v-8h8a1,1,0,0,0,0-2Z"/><path class="cls-1" d="M422,102h-8V94a1,1,0,0,0-2,0v8h-8a1,1,0,0,0,0,2h8v8a1,1,0,0,0,2,0v-8h8a1,1,0,0,0,0-2Z"/><path class="cls-1" d="M453,102h-8V94a1,1,0,0,0-2,0v8h-8a1,1,0,0,0,0,2h8v8a1,1,0,0,0,2,0v-8h8a1,1,0,0,0,0-2Z"/><path class="cls-1" d="M484,102h-8V94a1,1,0,0,0-2,0v8h-8a1,1,0,0,0,0,2h8v8a1,1,0,0,0,2,0v-8h8a1,1,0,0,0,0-2Z"/><path class="cls-1" d="M19,133H11v-8a1,1,0,0,0-2,0v8H1a1,1,0,0,0,0,2H9v8a1,1,0,0,0,2,0v-8h8a1,1,0,0,0,0-2Z"/><path class="cls-1" d="M50,133H42v-8a1,1,0,0,0-2,0v8H32a1,1,0,0,0,0,2h8v8a1,1,0,0,0,2,0v-8h8a1,1,0,0,0,0-2Z"/><path class="cls-1" d="M81,133H73v-8a1,1,0,0,0-2,0v8H63a1,1,0,0,0,0,2h8v8a1,1,0,0,0,2,0v-8h8a1,1,0,0,0,0-2Z"/><path class="cls-1" d="M112,133h-8v-8a1,1,0,0,0-2,0v8H94a1,1,0,0,0,0,2h8v8a1,1,0,0,0,2,0v-8h8a1,1,0,0,0,0-2Z"/><path class="cls-1" d="M143,133h-8v-8a1,1,0,0,0-2,0v8h-8a1,1,0,0,0,0,2h8v8a1,1,0,0,0,2,0v-8h8a1,1,0,0,0,0-2Z"/><path class="cls-1" d="M174,133h-8v-8a1,1,0,0,0-2,0v8h-8a1,1,0,0,0,0,2h8v8a1,1,0,0,0,2,0v-8h8a1,1,0,0,0,0-2Z"/><path class="cls-1" d="M205,133h-8v-8a1,1,0,0,0-2,0v8h-8a1,1,0,0,0,0,2h8v8a1,1,0,0,0,2,0v-8h8a1,1,0,0,0,0-2Z"/><path class="cls-1" d="M236,133h-8v-8a1,1,0,0,0-2,0v8h-8a1,1,0,0,0,0,2h8v8a1,1,0,0,0,2,0v-8h8a1,1,0,0,0,0-2Z"/><path class="cls-1" d="M267,133h-8v-8a1,1,0,0,0-2,0v8h-8a1,1,0,0,0,0,2h8v8a1,1,0,0,0,2,0v-8h8a1,1,0,0,0,0-2Z"/><path class="cls-1" d="M298,133h-8v-8a1,1,0,0,0-2,0v8h-8a1,1,0,0,0,0,2h8v8a1,1,0,0,0,2,0v-8h8a1,1,0,0,0,0-2Z"/><path class="cls-1" d="M329,133h-8v-8a1,1,0,0,0-2,0v8h-8a1,1,0,0,0,0,2h8v8a1,1,0,0,0,2,0v-8h8a1,1,0,0,0,0-2Z"/><path class="cls-1" d="M360,133h-8v-8a1,1,0,0,0-2,0v8h-8a1,1,0,0,0,0,2h8v8a1,1,0,0,0,2,0v-8h8a1,1,0,0,0,0-2Z"/><path class="cls-1" d="M391,133h-8v-8a1,1,0,0,0-2,0v8h-8a1,1,0,0,0,0,2h8v8a1,1,0,0,0,2,0v-8h8a1,1,0,0,0,0-2Z"/><path class="cls-1" d="M422,133h-8v-8a1,1,0,0,0-2,0v8h-8a1,1,0,0,0,0,2h8v8a1,1,0,0,0,2,0v-8h8a1,1,0,0,0,0-2Z"/><path class="cls-1" d="M453,133h-8v-8a1,1,0,0,0-2,0v8h-8a1,1,0,0,0,0,2h8v8a1,1,0,0,0,2,0v-8h8a1,1,0,0,0,0-2Z"/><path class="cls-1" d="M484,133h-8v-8a1,1,0,0,0-2,0v8h-8a1,1,0,0,0,0,2h8v8a1,1,0,0,0,2,0v-8h8a1,1,0,0,0,0-2Z"/><path class="cls-1" d="M515,9h-8V1a1,1,0,0,0-2,0V9h-8a1,1,0,0,0,0,2h8v8a1,1,0,0,0,2,0V11h8a1,1,0,0,0,0-2Z"/><path class="cls-1" d="M515,40h-8V32a1,1,0,0,0-2,0v8h-8a1,1,0,0,0,0,2h8v8a1,1,0,0,0,2,0V42h8a1,1,0,0,0,0-2Z"/><path class="cls-1" d="M515,71h-8V63a1,1,0,0,0-2,0v8h-8a1,1,0,0,0,0,2h8v8a1,1,0,0,0,2,0V73h8a1,1,0,0,0,0-2Z"/><path class="cls-1" d="M515,102h-8V94a1,1,0,0,0-2,0v8h-8a1,1,0,0,0,0,2h8v8a1,1,0,0,0,2,0v-8h8a1,1,0,0,0,0-2Z"/><path class="cls-1" d="M515,133h-8v-8a1,1,0,0,0-2,0v8h-8a1,1,0,0,0,0,2h8v8a1,1,0,0,0,2,0v-8h8a1,1,0,0,0,0-2Z"/></g></g></svg>