<svg fill="none" height="100" viewBox="0 0 224 100" width="224" xmlns="http://www.w3.org/2000/svg"><g fill="#3090d7"><path d="m174.756 62.7598c-10.267 0-18.62 8.3528-18.62 18.62 0 10.2673 8.353 18.6201 18.62 18.6201s18.62-8.3528 18.62-18.6201c0-10.2672-8.357-18.62-18.62-18.62zm0 29.7918c-6.16 0-11.172-5.0124-11.172-11.1722s5.012-11.1718 11.172-11.1718c6.159 0 11.172 5.0125 11.172 11.1718s-5.013 11.1722-11.172 11.1722z"/><path d="m48.1399 62.7598c-10.2673 0-18.6201 8.3528-18.6201 18.62 0 10.2673 8.3528 18.6201 18.6201 18.6201 10.2669 0 18.6201-8.3528 18.6201-18.6201-.0004-10.2672-8.3572-18.62-18.6201-18.62zm0 29.7918c-6.1593 0-11.1722-5.0124-11.1722-11.1722s5.0125-11.1718 11.1722-11.1718c6.1593 0 11.1718 5.0125 11.1718 11.1718s-5.0125 11.1722-11.1718 11.1722z"/><path d="m219.444 50.6868v-17.7187c0-.119-.142-.8195-.216-1.0614-.075-.2459-.164-.469-.283-.6926-.056-.1007-15.023-22.65704-15.023-22.65704-.57-.85263-1.467-1.43761-2.484-1.60892-93.293-15.65942-117.2051-.06321-118.2962.69657l-28.9209 21.69229-47.33178 3.6385c-1.34084.1042-2.52127.9237-3.08707 2.1377-.14167.2977-1.54528 3.4524-2.61063 9.0232l-.97948 7.4479c-.58847 7.8205-.100693 18.2177 3.38131 30.8084.43939 1.5936 1.92887 2.7074 3.58269 2.7074h11.17176c2.0667 0 3.7205-1.6983 3.724-3.7649 0-.0188.0039-.0371.0039-.0597.0558-14.3487 11.701-25.9673 26.0644-25.9673 14.3971 0 26.068 11.6709 26.068 26.068-.2681 2.2605 1.5156 3.7239 3.7239 3.7239h67.0321c2.067 0 3.72-1.6983 3.724-3.7649 0-.0222.004-.041.004-.0632.06-14.3487 11.701-25.9599 26.064-25.9599 14.397 0 26.068 11.6709 26.068 26.068-.268 2.2606 1.516 3.7239 3.724 3.7239h11.172c1.3 0 2.547-.6704 3.191-1.7985 8.238-14.5353 2.358-28.8612.533-32.6187zm-100.548-23.3013c0 1.0279-.834 1.8622-1.862 1.8622l-44.707.0039c-1.7876 0-2.5474-2.2789-1.1172-3.3517l16.1511-12.1177c.0558-.0449.1007-.0745.1639-.1115.8453-.4843 8.5503-4.56571 29.3712-5.8355 1.069-.06713 2 .79334 2 1.86567zm38.8 1.8622-29.494.0039c-1.028 0-1.862-.8343-1.862-1.8622v-18.05033c0-1.02393.797-1.86218 1.821-1.86959 5.809-.04097 12.364.12292 19.748.56972.637.03705 1.226.39101 1.538.94941 1.661 2.97159 7.15 12.67649 9.876 17.49149.708 1.2406-.2 2.7637-1.627 2.7676zm47.585-.0039-34.733.0039c-.667 0-1.285-.3575-1.617-.9385l-9.388-16.4301c-.748-1.3073.265-2.92711 1.765-2.78544 10.688 1.01304 22.784 2.55094 36.491 4.80414.51.0854.98.3796 1.27.8116l7.761 11.6413c.823 1.2362-.063 2.8931-1.549 2.8931z"/></g></svg>