<svg xmlns="http://www.w3.org/2000/svg" viewBox="0 0 182.84 43.09"><defs><style>.cls-1{fill:#254e89;}.cls-2{fill:#0088ce;}.cls-3{fill:#d0103a;}</style></defs><title>Asset 1</title><g id="Layer_2" data-name="Layer 2"><g id="Layer_1-2" data-name="Layer 1"><path class="cls-1" d="M75,2.16a2.71,2.71,0,0,0-2.71,2.71V22.08L57,3.28A3,3,0,0,0,51.56,5.2V28.86a2.71,2.71,0,0,0,5.42,0V11.65l15.31,18.8a3,3,0,0,0,5.41-1.92V4.87A2.71,2.71,0,0,0,75,2.16Z"/><path class="cls-1" d="M97.7,10.35a12.88,12.88,0,0,0-6.18-1.47,12.75,12.75,0,0,0-6.14,1.47,10.73,10.73,0,0,0-4.26,4.08,11.36,11.36,0,0,0-1.54,5.92,11.5,11.5,0,0,0,1.54,5.95,10.71,10.71,0,0,0,4.26,4.1,12.75,12.75,0,0,0,6.14,1.47A12.88,12.88,0,0,0,97.7,30.4,10.71,10.71,0,0,0,102,26.3a11.59,11.59,0,0,0,1.54-5.95A11.46,11.46,0,0,0,102,14.43,10.73,10.73,0,0,0,97.7,10.35ZM96.31,25.44a6.41,6.41,0,0,1-4.79,1.93,6.32,6.32,0,0,1-4.77-1.93,7,7,0,0,1-1.87-5.09,7,7,0,0,1,1.87-5.08,6.33,6.33,0,0,1,4.77-1.94,6.42,6.42,0,0,1,4.79,1.94,7,7,0,0,1,1.89,5.08A7,7,0,0,1,96.31,25.44Z"/><path class="cls-1" d="M137.22,9.13a2.17,2.17,0,0,0-2.05,1.44l-5.57,15.2-5.3-14.56a3.16,3.16,0,0,0-5.93,0L113,25.69l-5.41-15.11a2.19,2.19,0,0,0-2.06-1.45h-.29a2.19,2.19,0,0,0-2,2.94l6.4,17.43a3.14,3.14,0,0,0,3,2.07h.65a3.17,3.17,0,0,0,3-2l5.11-13.42,5,13.41a3.17,3.17,0,0,0,3,2.05h.64a3.15,3.15,0,0,0,3-2.07l6.43-17.43A2.18,2.18,0,0,0,137.22,9.13Z"/><path class="cls-1" d="M164.12,27.78,160,21.91a9.71,9.71,0,0,0,4.65-3.57,10.06,10.06,0,0,0,1.61-5.72A10.1,10.1,0,0,0,164.75,7a9.68,9.68,0,0,0-4.35-3.61,16.12,16.12,0,0,0-6.66-1.26h-8.91a3.19,3.19,0,0,0-3.19,3.19V28.84a2.73,2.73,0,1,0,5.46,0V23h6.64a10.69,10.69,0,0,0,1.13,0l5.3,7.58a2.38,2.38,0,0,0,2,1A2.41,2.41,0,0,0,164.12,27.78ZM158.91,17a8.32,8.32,0,0,1-5.42,1.53H147.1V6.78h6.39a8.38,8.38,0,0,1,5.42,1.51,5.28,5.28,0,0,1,1.85,4.33A5.34,5.34,0,0,1,158.91,17Z"/><path class="cls-1" d="M182.37,39.48l-6-7.86L182,24.26a2.25,2.25,0,1,0-3.58-2.71L173.58,28l-4.83-6.45a2.24,2.24,0,0,0-1.8-.9h-.2a2.24,2.24,0,0,0-1.79,3.6l5.63,7.45-6,7.78a2.24,2.24,0,0,0,1.78,3.61h.12a2.29,2.29,0,0,0,1.8-.9l5.12-6.88,5.09,6.87a2.24,2.24,0,0,0,1.8.91h.25A2.24,2.24,0,0,0,182.37,39.48Z"/><path class="cls-2" d="M16.69,0l-.51,0-.51,0A7.09,7.09,0,0,0,9.91,10.13l6.27,13.52,6.27-13.52A7.09,7.09,0,0,0,16.69,0Z"/><path class="cls-2" d="M31.69,24,25.41,10.52,19.14,24A7.09,7.09,0,0,0,24.9,34.15l.51,0,.51,0A7.1,7.1,0,0,0,31.69,24Z"/><path class="cls-3" d="M35.16,0l-.51,0-.52,0a7.09,7.09,0,0,0-5.76,10.11l6.28,13.52,6.27-13.52A7.09,7.09,0,0,0,35.16,0Z"/><path class="cls-3" d="M6.94,10.52.67,24A7.09,7.09,0,0,0,6.43,34.15l.51,0,.52,0A7.09,7.09,0,0,0,13.22,24Z"/></g></g></svg>