<?xml version="1.0" encoding="UTF-8"?>
<svg width="24px" height="24px" viewBox="0 0 24 24" version="1.1" xmlns="http://www.w3.org/2000/svg" xmlns:xlink="http://www.w3.org/1999/xlink">
    <title>ICO-Fax</title>
    <g id="How-to-send-Rx" stroke="none" stroke-width="1" fill="none" fill-rule="evenodd">
        <g id="Homepage-D" transform="translate(-430.000000, -1785.000000)">
            <g id="How-To-Send-Rx" transform="translate(395.000000, 1401.000000)">
                <g id="Group-22" transform="translate(0.000000, 155.000000)">
                    <g id="Group-18" transform="translate(0.000000, 46.000000)">
                        <g id="Group-27" transform="translate(25.000000, 110.000000)">
                            <g id="ICO-Fax" transform="translate(10.000000, 73.000000)">
                                <rect id="Rectangle-Copy-3" x="0" y="0" width="24" height="24"></rect>
                                <g id="Group-13-Copy" transform="translate(1.280000, 0.960000)" fill="#192D3E" fill-rule="nonzero">
                                    <path d="M6.63668687,0 C6.35561585,0 6.12782633,0.22798043 6.12764452,0.509042356 L6.12764452,10.8089797 L5.18196845,10.8089797 C4.67006248,10.0952113 3.82738579,9.62771412 2.88457335,9.62771412 L2.8126647,9.62771412 C1.27326498,9.62771412 0,10.8741611 0,12.4043336 L0,19.6233805 C0,21.153553 1.27326498,22.4 2.8126647,22.4 L2.88457335,22.4 C3.82952214,22.4 4.67415336,21.9301847 5.18551389,21.2135527 L18.6040686,21.2135527 C19.8258339,21.2135527 20.9621906,20.2707402 20.9621906,19.0095661 L20.9621906,13.0182389 C20.9621906,11.8017918 19.9508331,10.8090706 18.7272951,10.8090706 L17.8648912,10.8090706 L17.8648912,0.509133264 L17.8650688,0.509133264 C17.8648912,0.228062248 17.6370884,0 17.3560265,0 L6.63668687,0 Z M7.14572923,1.01794835 L16.8470338,1.01794835 L16.8470338,10.8087978 L7.14572923,10.8087978 L7.14572923,1.01794835 Z M2.8126647,10.645617 L2.88457335,10.645617 C3.8774764,10.645617 4.67910788,11.4382485 4.67910788,12.4041518 L4.67910788,19.6231987 C4.67910788,20.5892838 3.87724912,21.3817335 2.88457335,21.3817335 L2.8126647,21.3817335 C1.81976165,21.3817335 1.01813017,20.5891019 1.01813017,19.6231987 L1.01813017,12.4041518 C1.01813017,11.4382485 1.81998892,10.645617 2.8126647,10.645617 Z M5.63546569,11.8268825 L18.7276587,11.8268825 C19.4045182,11.8268825 19.9444695,12.3646975 19.9444695,13.0179208 L19.9444695,19.0092479 C19.9444695,19.6177442 19.2832462,20.1951498 18.6044777,20.1951498 L5.63682932,20.1951498 C5.67660181,20.0103145 5.69755168,19.8190884 5.69755168,19.6228805 L5.69755168,12.4038336 C5.69755168,12.2060348 5.67624499,12.0128541 5.63576115,11.8266098 L5.63546569,11.8268825 Z" id="Shape"></path>
                                    <path d="M7.3557734,12.9766483 C7.07470239,12.9766483 6.84673105,13.2044514 6.84673105,13.4856906 L6.84673105,16.033266 C6.84673105,16.314337 7.07471148,16.5421266 7.3557734,16.5423084 L17.5975292,16.5423084 C17.8787775,16.5421308 18.1065716,16.314328 18.1065716,16.033266 L18.1065716,13.4856906 C18.1065716,13.2044423 17.8787684,12.9766483 17.5975292,12.9766483 L7.3557734,12.9766483 Z M7.86481576,13.994733 L17.088396,13.994733 L17.088396,15.5241782 L7.86481576,15.5241782 L7.86481576,13.994733 Z" id="Shape"></path>
                                    <path d="M8.60622034,2.82739188 C8.4700348,2.8256163 8.33899923,2.87852793 8.24205437,2.97423189 C8.14528678,3.06993586 8.09077802,3.20026234 8.09077802,3.33644787 C8.09077802,3.47263341 8.14528678,3.60313716 8.24205437,3.69866385 C8.33899923,3.79436781 8.4700348,3.84727658 8.60622034,3.84550386 L15.3861791,3.84550386 C15.5221873,3.84727944 15.6534002,3.79436781 15.750345,3.69866385 C15.8471126,3.60313716 15.9016214,3.47263341 15.9016214,3.33644787 C15.9016214,3.20026234 15.8471126,3.06993586 15.750345,2.97423189 C15.6534002,2.87852793 15.5221873,2.82561916 15.3861791,2.82739188 L8.60622034,2.82739188 Z" id="Path"></path>
                                    <path d="M8.60622034,4.80987981 C8.4700348,4.80810423 8.33899923,4.86101586 8.24205437,4.95671983 C8.14528678,5.05242379 8.09077802,5.18275027 8.09077802,5.3189358 C8.09077802,5.45512134 8.14528678,5.58562509 8.24205437,5.68115178 C8.33899923,5.77685574 8.4700348,5.82976451 8.60622034,5.82799179 L15.3861791,5.82799179 C15.5221873,5.82976737 15.6534002,5.77685574 15.750345,5.68115178 C15.8471126,5.58562509 15.9016214,5.45512134 15.9016214,5.3189358 C15.9016214,5.18275027 15.8471126,5.05242379 15.750345,4.95671983 C15.6534002,4.86101586 15.5221873,4.80810709 15.3861791,4.80987981 L8.60622034,4.80987981 Z" id="Path"></path>
                                    <path d="M8.60622034,6.79486773 C8.46968026,6.79255951 8.33775833,6.84511742 8.24045438,6.94081684 C8.1429777,7.0365208 8.08810985,7.16737909 8.08810985,7.30391917 C8.08810985,7.44045925 8.14297316,7.57149482 8.24045438,7.66719878 C8.33775379,7.76290274 8.46968026,7.81545697 8.60622034,7.81297062 L15.3861791,7.81297062 C15.5227191,7.81545638 15.6544638,7.7628982 15.751945,7.66719878 C15.8494217,7.57149482 15.9042895,7.44045925 15.9042895,7.30391917 C15.9042895,7.16737909 15.8494262,7.0365208 15.751945,6.94081684 C15.6544683,6.84511287 15.5227191,6.79255865 15.3861791,6.79486773 L8.60622034,6.79486773 Z" id="Path"></path>
                                    <path d="M8.60622034,8.78031018 C8.46968026,8.77782443 8.33793561,8.83038261 8.24045438,8.92608202 C8.1429777,9.02178599 8.08810985,9.15264428 8.08810985,9.28918436 C8.08810985,9.42590171 8.14297316,9.55676 8.24045438,9.65246397 C8.33793561,9.74816793 8.46968026,9.80072215 8.60622034,9.79823581 L15.3861791,9.79823581 C15.5227191,9.80072161 15.6544638,9.74816338 15.751945,9.65246397 C15.8494217,9.55676 15.9042895,9.42590171 15.9042895,9.28918436 C15.9042895,9.15264428 15.8494262,9.02178599 15.751945,8.92608202 C15.6544683,8.83037806 15.5227191,8.77782384 15.3861791,8.78031018 L8.60622034,8.78031018 Z" id="Path"></path>
                                    <path d="M2.84852811,11.7052924 C2.28834971,11.7052924 1.82598888,12.167835 1.82598888,12.7278316 C1.82598888,13.28801 2.28853152,13.7503708 2.84852811,13.7503708 C3.40870652,13.7503708 3.87124916,13.2878282 3.87124916,12.7278316 C3.87124916,12.1676532 3.40870652,11.7052924 2.84852811,11.7052924 Z M2.87580381,12.7451103 C2.88635081,12.7451103 2.88595981,12.7451103 2.88595981,12.7552663 C2.88595981,12.7658133 2.88635041,12.7654223 2.87580381,12.7654223 C2.86486581,12.7654223 2.86564781,12.7658129 2.86564781,12.7552663 C2.86564781,12.7447193 2.86486651,12.7451103 2.87580381,12.7451103 Z" id="Shape"></path>
                                </g>
                            </g>
                        </g>
                    </g>
                </g>
            </g>
        </g>
    </g>
</svg>