<?xml version="1.0" encoding="UTF-8"?>
<svg width="24px" height="24px" viewBox="0 0 24 24" version="1.1" xmlns="http://www.w3.org/2000/svg" xmlns:xlink="http://www.w3.org/1999/xlink">
    <title>ICO-App</title>
    <g id="How-to-send-Rx" stroke="none" stroke-width="1" fill="none" fill-rule="evenodd">
        <g id="Homepage-D-2" transform="translate(-430.000000, -1827.000000)">
            <g id="How-To-Send-Rx" transform="translate(395.000000, 1401.000000)">
                <g id="Group-22" transform="translate(0.000000, 155.000000)">
                    <g id="Group-18" transform="translate(0.000000, 46.000000)">
                        <g id="Group-27" transform="translate(25.000000, 110.000000)">
                            <g id="ICO-App" transform="translate(10.000000, 115.000000)">
                                <rect id="Rectangle-Copy-4" x="0" y="0" width="24" height="24"></rect>
                                <path d="M17,1 C20.3137085,1 23,3.6862915 23,7 L23,17 C23,20.3137085 20.3137085,23 17,23 L7,23 C3.6862915,23 1,20.3137085 1,17 L1,7 C1,3.6862915 3.6862915,1 7,1 L17,1 Z M17,2 L7,2 C4.23857625,2 2,4.23857625 2,7 L2,7 L2,17 C2,19.7614237 4.23857625,22 7,22 L7,22 L17,22 C19.7614237,22 22,19.7614237 22,17 L22,17 L22,7 C22,4.23857625 19.7614237,2 17,2 L17,2 Z" id="Combined-Shape" fill="#192D3E"></path>
                                <g id="Group-14" transform="translate(4.500000, 5.750000)" fill="#192D3E">
                                    <path d="M9.16666667,12.5294416 C10.5473785,12.5294416 11.6666667,11.4101534 11.6666667,10.0294416 C11.6666667,8.64872968 9.36414931,4 9.16666667,4 C8.96918403,4 6.66666667,8.64872968 6.66666667,10.0294416 C6.66666667,11.4101534 7.78595479,12.5294416 9.16666667,12.5294416 Z" id="Oval" opacity="0.699999988"></path>
                                    <path d="M12.5,8.52944155 C13.8807119,8.52944155 15,7.41015343 15,6.02944155 C15,4.64872968 12.6974826,0 12.5,0 C12.3025174,0 10,4.64872968 10,6.02944155 C10,7.41015343 11.1192881,8.52944155 12.5,8.52944155 Z" id="Oval-Copy-2" transform="translate(12.500000, 4.264721) scale(1, -1) translate(-12.500000, -4.264721) "></path>
                                    <path d="M2.5,12.5294416 C3.88071187,12.5294416 5,11.4101534 5,10.0294416 C5,8.64872968 2.69748264,4 2.5,4 C2.30251736,4 0,8.64872968 0,10.0294416 C0,11.4101534 1.11928813,12.5294416 2.5,12.5294416 Z" id="Oval-Copy"></path>
                                    <path d="M5.83333333,8.52944155 C7.21404521,8.52944155 8.33333333,7.41015343 8.33333333,6.02944155 C8.33333333,4.64872968 6.03081597,0 5.83333333,0 C5.63585069,0 3.33333333,4.64872968 3.33333333,6.02944155 C3.33333333,7.41015343 4.45262146,8.52944155 5.83333333,8.52944155 Z" id="Oval-Copy-3" opacity="0.699999988" transform="translate(5.833333, 4.264721) scale(1, -1) translate(-5.833333, -4.264721) "></path>
                                </g>
                            </g>
                        </g>
                    </g>
                </g>
            </g>
        </g>
    </g>
</svg>