<?xml version="1.0" encoding="UTF-8"?>
<svg width="36px" height="36px" viewBox="0 0 36 36" version="1.1" xmlns="http://www.w3.org/2000/svg" xmlns:xlink="http://www.w3.org/1999/xlink">
    <title>ICO-New-Rx</title>
    <g id="How-to-send-Rx" stroke="none" stroke-width="1" fill="none" fill-rule="evenodd">
        <g id="Homepage-D" transform="translate(-989.000000, -1622.000000)">
            <g id="How-To-Send-Rx" transform="translate(395.000000, 1401.000000)">
                <g id="Group-22" transform="translate(0.000000, 155.000000)">
                    <g id="Group-18" transform="translate(0.000000, 46.000000)">
                        <g id="ICO-New-Rx" transform="translate(594.000000, 20.000000)">
                            <rect id="Rectangle-Copy-6" x="0" y="0" width="36" height="36"></rect>
                            <g id="Group-25" transform="translate(2.171053, 3.671053)" fill="#192D3E" opacity="0.246056">
                                <path d="M25.2039474,17.3289474 C25.8252677,17.3289474 26.3289474,17.832627 26.3289474,18.4539474 L26.3289474,22.2029474 L30.0789474,22.2039474 C30.7002677,22.2039474 31.2039474,22.707627 31.2039474,23.3289474 C31.2039474,23.9502677 30.7002677,24.4539474 30.0789474,24.4539474 L26.3289474,24.4539474 L26.3289474,28.2039474 C26.3289474,28.8252677 25.8252677,29.3289474 25.2039474,29.3289474 C24.582627,29.3289474 24.0789474,28.8252677 24.0789474,28.2039474 L24.0789474,24.4529474 L20.3289474,24.4539474 C19.707627,24.4539474 19.2039474,23.9502677 19.2039474,23.3289474 C19.2039474,22.707627 19.707627,22.2039474 20.3289474,22.2039474 L24.0789474,22.2029474 L24.0789474,18.4539474 C24.0789474,17.832627 24.582627,17.3289474 25.2039474,17.3289474 Z" id="Combined-Shape"></path>
                                <path d="M26.2666108,2.23068042 C23.2923703,-0.743560141 18.4453284,-0.743560141 15.4709189,2.23068042 L2.23068042,15.4709189 C-0.743560141,18.4451595 -0.743560141,23.2872194 2.23068042,26.2666108 C3.72029169,27.7562221 5.67331131,28.4987056 7.62599317,28.4987056 C9.57901279,28.4987056 11.5365922,27.7562221 13.0213059,26.2666108 L26.2615444,13.0263723 C29.2453267,10.047572 29.2453267,5.20542763 26.2664921,2.23068042 L26.2666108,2.23068042 Z M11.6930601,24.9282321 C9.45640548,27.1648867 5.81061124,27.1648867 3.57395666,24.9282321 C1.33730209,22.6915776 1.33730209,19.0457833 3.57395666,16.8091287 L8.78983378,11.5932516 C9.61741624,15.6694381 12.8327507,18.8848401 16.9089372,19.712355 L11.6930601,24.9282321 Z M18.6062716,18.0100386 C14.213434,17.8160877 10.6764833,14.2837728 10.4871682,9.89093524 L16.8092976,3.5688058 C17.9300737,2.44802975 19.4006014,1.89021715 20.8712981,1.89021715 C22.3417414,1.89021715 23.8125225,2.44831684 24.9332986,3.5688058 C27.1699531,5.80546038 27.1699531,9.45125462 24.9332986,11.6879092 L18.6062716,18.0100386 Z" id="Shape" fill-rule="nonzero"></path>
                            </g>
                        </g>
                    </g>
                </g>
            </g>
        </g>
    </g>
</svg>