<?xml version="1.0" encoding="UTF-8"?>
<svg width="24px" height="24px" viewBox="0 0 24 24" version="1.1" xmlns="http://www.w3.org/2000/svg" xmlns:xlink="http://www.w3.org/1999/xlink">
    <title>ICO-Call-Text</title>
    <g id="How-to-send-Rx" stroke="none" stroke-width="1" fill="none" fill-rule="evenodd">
        <g id="Homepage-D-2" transform="translate(-430.000000, -1785.000000)">
            <g id="How-To-Send-Rx" transform="translate(395.000000, 1401.000000)">
                <g id="Group-22" transform="translate(0.000000, 155.000000)">
                    <g id="Group-18" transform="translate(0.000000, 46.000000)">
                        <g id="Group-27" transform="translate(25.000000, 110.000000)">
                            <g id="ICO-Call-Text" transform="translate(10.000000, 73.000000)">
                                <rect id="Rectangle" x="0" y="0" width="24" height="24"></rect>
                                <g id="noun-call-message-information-1586822" transform="translate(1.000000, 1.000000)" fill="#192D3E" fill-rule="nonzero">
                                    <path d="M12.363847,21.9998583 C11.8266867,21.9998583 11.2835545,21.931988 10.7416403,21.795706 C6.80762496,20.8053462 1.19439449,15.1919979 0.203916857,11.2587683 C-0.194199363,9.6747899 -0.00695547819,8.08279649 0.744455982,6.65526716 C1.0687441,6.04015737 1.6468868,5.62868286 2.33106679,5.52448823 C3.01186792,5.42503972 3.67872143,5.64266191 4.16413798,6.12808632 L5.77699389,7.74094223 C6.40149377,8.36544211 6.58210566,9.31957736 6.22681453,10.1165563 C6.04019142,10.5361636 5.80186387,10.8934192 5.51776455,11.1775185 C5.17996886,11.5153142 5.33989112,12.1336575 5.53326527,12.5936147 C5.82808658,13.2933139 6.41758383,14.1151628 7.15150379,14.848297 C7.88479513,15.582217 8.70664404,16.1717103 9.40618606,16.4665355 C9.86614329,16.6592956 10.4844748,16.8196775 10.8216537,16.4826503 C11.1063462,16.1979578 11.4636372,15.9596341 11.8838339,15.7722252 C12.678809,15.4190832 13.634948,15.5989526 14.2586621,16.2228317 L15.871518,17.8356876 C16.3577204,18.3218899 16.5779356,18.99059 16.4751161,19.6693874 C16.3710629,20.3535674 15.9588184,20.9317062 15.3437086,21.2553696 C14.4048961,21.7493904 13.3950489,21.9998583 12.3637106,21.9998583 L12.363847,21.9998583 Z M2.65473021,6.5317148 C2.59825216,6.5317148 2.54192734,6.535705 2.48544929,6.5444531 C2.12816228,6.59816913 1.82672862,6.81441228 1.65762843,7.13595016 C1.01702003,8.35190781 0.864617696,9.65457646 1.20442892,11.0068279 C2.10623111,14.5876737 7.41210313,19.8932314 10.9933025,20.7953086 C12.3463398,21.1364793 13.6474761,20.9833147 14.8628052,20.3426985 C15.1850974,20.1728046 15.4005941,19.8713867 15.4550487,19.5140918 C15.5081518,19.1629457 15.393966,18.8171822 15.1421191,18.5647106 L13.5292632,16.9518546 C13.204975,16.6281794 12.7127968,16.534251 12.3031689,16.7141243 C11.9983721,16.8497934 11.7451462,17.0176953 11.5497616,17.2123098 C10.3445298,18.4175415 8.1052096,17.260655 6.42135833,15.5779628 C5.58540463,14.7413804 4.93206656,13.8234697 4.58290454,12.9936451 C3.97930644,11.5608118 4.45199333,10.7845382 4.78763599,10.4488916 C4.98162581,10.2541356 5.14952375,10.0010747 5.28456424,9.69685936 C5.46719558,9.28723144 5.37189207,8.79442855 5.04760395,8.4701365 L3.4349052,6.85743775 C3.22341996,6.64595251 2.94610979,6.5317148 2.65466342,6.5317148 L2.65473021,6.5317148 Z" id="Shape"></path>
                                    <path d="M11.8908065,12.1213875 C11.7605082,12.1213875 11.628214,12.0945142 11.5012906,12.0388019 C11.1467696,11.8836415 10.9259021,11.545999 10.9259021,11.1584908 L10.9259021,10.1802714 L10.1470354,10.1802714 C9.0767224,10.1802714 8.20591929,9.30946828 8.20591929,8.23915523 L8.20591929,1.94111615 C8.20591929,0.870803108 9.0767224,0 10.1470354,0 L20.0588838,0 C21.1291969,0 22,0.870803108 22,1.94111615 L22,8.23915523 C22,9.30946828 21.1291969,10.1802714 20.0588838,10.1802714 L14.3631463,10.1802714 L12.538208,11.8643191 C12.3555766,12.0334468 12.1258298,12.1213875 11.8908418,12.1213875 L11.8908065,12.1213875 Z M10.1470394,1.03124398 C9.64547501,1.03124398 9.2372615,1.43949679 9.2372615,1.94102186 L9.2372615,8.23906094 C9.2372615,8.7406253 9.6455143,9.14883881 10.1470394,9.14883881 L11.4415752,9.14883881 C11.7262678,9.14883881 11.9572443,9.37981537 11.9572443,9.66450795 L11.9572443,10.9966434 L13.8118066,9.28572196 C13.9071141,9.19778122 14.0320416,9.14866987 14.1615698,9.14866987 L20.0588603,9.14866987 C20.5604246,9.14866987 20.9686381,8.74041707 20.9686381,8.238892 L20.9686381,1.94085291 C20.9686381,1.43928855 20.5603853,1.03107504 20.0588603,1.03107504 L10.1470394,1.03124398 Z" id="Shape"></path>
                                    <path d="M19.1207825,5.50037652 L11.51481,5.50037652 C11.2301174,5.50037652 10.9991409,5.26939996 10.9991409,4.98470738 C10.9991409,4.7000148 11.2301174,4.46903824 11.51481,4.46903824 L19.1207825,4.46903824 C19.4054751,4.46903824 19.6364516,4.7000148 19.6364516,4.98470738 C19.6364516,5.26939996 19.4054751,5.50037652 19.1207825,5.50037652 Z" id="Path"></path>
                                    <path d="M15.1026886,3.60958968 L11.5144957,3.60958968 C11.2298031,3.60958968 10.9988266,3.37861312 10.9988266,3.09392054 C10.9988266,2.80922796 11.2298031,2.5782514 11.5144957,2.5782514 L15.1026886,2.5782514 C15.3873811,2.5782514 15.6183577,2.80922796 15.6183577,3.09392054 C15.6183577,3.37861312 15.3873811,3.60958968 15.1026886,3.60958968 L15.1026886,3.60958968 Z" id="Path"></path>
                                    <path d="M19.1207825,7.73513923 L17.3266861,7.73513923 C17.0419935,7.73513923 16.8110169,7.50416268 16.8110169,7.2194701 C16.8110169,6.93477751 17.0419935,6.70380096 17.3266861,6.70380096 L19.1207825,6.70380096 C19.4054751,6.70380096 19.6364516,6.93477751 19.6364516,7.2194701 C19.6364516,7.50416268 19.4054751,7.73513923 19.1207825,7.73513923 Z" id="Path"></path>
                                </g>
                            </g>
                        </g>
                    </g>
                </g>
            </g>
        </g>
    </g>
</svg>