<?xml version="1.0" encoding="UTF-8"?>
<svg width="24px" height="24px" viewBox="0 0 24 24" version="1.1" xmlns="http://www.w3.org/2000/svg" xmlns:xlink="http://www.w3.org/1999/xlink">
    <title>ICO-Text</title>
    <g id="How-to-send-Rx" stroke="none" stroke-width="1" fill="none" fill-rule="evenodd">
        <g id="Homepage-D" transform="translate(-430.000000, -1827.000000)">
            <g id="How-To-Send-Rx" transform="translate(395.000000, 1401.000000)">
                <g id="Group-22" transform="translate(0.000000, 155.000000)">
                    <g id="Group-18" transform="translate(0.000000, 46.000000)">
                        <g id="Group-27" transform="translate(25.000000, 110.000000)">
                            <g id="ICO-Text" transform="translate(10.000000, 115.000000)">
                                <rect id="Rectangle-Copy-4" x="0" y="0" width="24" height="24"></rect>
                                <g id="noun-message-text-205245" transform="translate(2.000000, 2.000000)" fill="#192D3E" fill-rule="nonzero">
                                    <path d="M1.05257934,18.516049 L4.83161528,14.7371033 L16.8420815,14.7371033 C18.0000451,14.7371033 18.9474207,13.7897277 18.9474207,12.6317641 L18.9474207,3.15800871 C18.9474207,2.00004511 18.0000451,1.05266957 16.8420815,1.05266957 L3.15791848,1.05266957 C1.99995489,1.05266957 1.05257934,2.00004511 1.05257934,3.15800871 L1.05257934,18.5158685 M1.05257934,20.0000902 L0,20.0000902 L0,3.15791848 C0,1.41050685 1.41050685,0 3.15791848,0 L16.8420815,0 C18.5894932,0 20,1.41050685 20,3.15791848 L20,12.6316739 C20,14.3790856 18.5894932,15.7895924 16.8420815,15.7895924 L5.26289671,15.7895924 L1.05239889,20.0000902 M4.21031737,4.21049782 L15.7895022,4.21049782 L15.7895022,5.26325762 L4.21031737,5.26325762 L4.21031737,4.21049782 M4.21031737,7.3684163 L15.7895022,7.3684163 L15.7895022,8.4211761 L4.21031737,8.4211761 L4.21031737,7.3684163 M4.21031737,10.5263348 L12.6315837,10.5263348 L12.6315837,11.5790946 L4.21031737,11.5790946 L4.21031737,10.5263348 Z" id="Shape"></path>
                                </g>
                            </g>
                        </g>
                    </g>
                </g>
            </g>
        </g>
    </g>
</svg>