<?xml version="1.0" encoding="UTF-8"?>
<svg width="24px" height="24px" viewBox="0 0 24 24" version="1.1" xmlns="http://www.w3.org/2000/svg" xmlns:xlink="http://www.w3.org/1999/xlink">
    <title>ICO-Web@2x</title>
    <g id="How-to-send-Rx" stroke="none" stroke-width="1" fill="none" fill-rule="evenodd">
        <g id="Homepage-D" transform="translate(-430.000000, -1743.000000)">
            <g id="How-To-Send-Rx" transform="translate(395.000000, 1401.000000)">
                <g id="Group-22" transform="translate(0.000000, 155.000000)">
                    <g id="Group-18" transform="translate(0.000000, 46.000000)">
                        <g id="Group-27" transform="translate(25.000000, 110.000000)">
                            <g id="ICO-Web" transform="translate(10.000000, 31.000000)">
                                <rect id="Rectangle" x="0" y="0" width="24" height="24"></rect>
                                <g id="Group-12" transform="translate(0.640000, 0.960000)" fill="#192D3E" fill-rule="nonzero">
                                    <path d="M17.7519262,16.2678577 L22.4,15.1198018 L10.0239367,10.0237757 L15.1199628,22.399839 L16.2959688,17.7517652 L19.7680365,21.223833 C19.9641325,21.419929 20.2719391,21.419929 20.44009,21.223833 L21.224094,20.439829 C21.42019,20.243733 21.42019,19.9359264 21.224094,19.7677755 L17.7519262,16.2678577 Z" id="Path"></path>
                                    <path d="M12.4878993,18.5078691 C12.5718848,18.3959535 12.6558702,18.283843 12.7119255,18.1719274 L12.1238225,16.7439701 C11.4798692,18.087927 10.6958652,18.871931 10.0238117,18.871931 C9.32380816,18.871931 8.51190401,18.0318767 7.86775072,16.6318695 C7.55973914,15.9879162 7.30779785,15.2598125 7.139797,14.4478584 C8.06380172,14.5878991 9.04370673,14.6439544 10.0517119,14.6439544 C10.471634,14.6439544 10.8917662,14.6439544 11.2837682,14.6160247 L10.8077907,13.4400187 L10.0517369,13.4400187 C8.9597313,13.4400187 7.89567586,13.3560333 6.88767071,13.1880624 C6.71969985,12.1800573 6.63571442,11.1160018 6.63571442,10.0239962 C6.63571442,8.93199066 6.71969985,7.86793522 6.88767071,6.85993007 C7.89567586,6.69195921 8.9597313,6.60797378 10.0517369,6.60797378 C11.1437425,6.60797378 12.2077979,6.69195921 13.2158031,6.85993007 C13.3837739,7.86793522 13.4677593,8.93199066 13.4677593,10.0239962 L13.4677593,10.75195 L14.6437654,11.2279274 C14.671695,10.8359354 14.671695,10.4160232 14.671695,9.99587109 C14.671695,8.98786594 14.6156397,8.00776093 14.475599,7.08395621 C15.259603,7.28005221 15.9875067,7.5320035 16.6596102,7.81190993 C18.0596173,8.45586322 18.8996716,9.26796737 18.8996716,9.96797095 C18.8996716,10.6679745 18.1156676,11.4519785 16.7996609,12.0679817 L18.2276182,12.6560847 C18.3395337,12.5720993 18.4516443,12.516044 18.5635599,12.4320585 C18.5356302,12.5439741 18.5075046,12.6560847 18.4516443,12.7400701 L19.57155,13.1881174 C19.9074918,12.1801123 20.1036028,11.0881067 20.1036028,9.94005081 C20.0479375,4.4800229 15.5678296,0 10.0240512,0 C4.4800229,0 0,4.4801229 0,10.0240512 C0,15.5680796 4.4801229,20.0481025 10.0240512,20.0481025 C11.1721071,20.0481025 12.2641127,19.8520065 13.2721178,19.5160498 L12.8240706,18.396144 C12.71196,18.4240737 12.6000444,18.4520043 12.4881288,18.5080596 L12.4878993,18.5078691 Z M16.2678187,3.77979382 C17.3318741,4.84384926 18.087728,6.13175584 18.5078801,7.55991314 C17.4719248,6.80385928 15.9879672,6.21595627 14.2238582,5.82395427 C13.8597963,4.05989525 13.2437532,2.57588767 12.4878993,1.53993237 C13.8879065,1.95965952 15.1758131,2.71573838 16.2678187,3.77979382 Z M10.0237867,1.20363065 C10.7237903,1.20363065 11.5356945,2.04368495 12.1798478,3.4436921 C12.4878593,4.08764539 12.7398006,4.81574912 12.9078015,5.62770327 C11.9837968,5.48766255 11.0038917,5.43160726 9.9958866,5.43160726 C8.98788144,5.43160726 8.00777643,5.48766255 7.08397171,5.62770327 C7.28006771,4.84369926 7.532019,4.11579554 7.81192543,3.4436921 C8.48382887,2.04368495 9.29593302,1.20363065 10.0238367,1.20363065 L10.0237867,1.20363065 Z M3.77975482,3.77979382 C4.84381026,2.71573838 6.13171684,1.95988452 7.55987414,1.53973237 C6.80382028,2.57568767 6.21591727,4.05964525 5.82391527,5.82375427 C4.05985625,6.18781613 2.57584867,6.80385928 1.53989337,7.55971314 C1.95962052,6.15970599 2.71569938,4.8717994 3.77975482,3.77979382 L3.77975482,3.77979382 Z M3.4436181,7.86771472 C4.08757139,7.55970314 4.81567512,7.30776185 5.62762927,7.139761 C5.48758855,8.06376572 5.43153326,9.04367073 5.43153326,10.0516759 C5.43153326,11.059681 5.48758855,12.039786 5.62762927,12.9635908 C4.84362526,12.7674948 4.11572154,12.5155435 3.4436181,12.235637 C2.04361095,11.5916838 1.20355665,10.7795796 1.20355665,10.079576 C1.20355665,9.37977245 2.04361095,8.51161801 3.4436181,7.86766472 L3.4436181,7.86771472 Z M3.77975482,16.2677577 C2.71569938,15.2037022 1.95984552,13.9157956 1.53969337,12.4876383 C2.57564867,13.2436922 4.05960625,13.8315952 5.82371527,14.2235972 C6.18777713,15.9876562 6.80382028,17.4716638 7.55967414,18.5076191 C6.15966699,18.087892 4.84366026,17.3318131 3.77975482,16.2677577 L3.77975482,16.2677577 Z" id="Shape"></path>
                                </g>
                            </g>
                        </g>
                    </g>
                </g>
            </g>
        </g>
    </g>
</svg>