<?xml version="1.0" encoding="UTF-8"?>
<svg width="24px" height="24px" viewBox="0 0 24 24" version="1.1" xmlns="http://www.w3.org/2000/svg" xmlns:xlink="http://www.w3.org/1999/xlink">
    <title>ICO-Doctor</title>
    <g id="How-to-send-Rx" stroke="none" stroke-width="1" fill="none" fill-rule="evenodd">
        <g id="Homepage-D" transform="translate(-417.000000, -1663.000000)">
            <g id="How-To-Send-Rx" transform="translate(395.000000, 1401.000000)">
                <g id="Group-22" transform="translate(0.000000, 155.000000)">
                    <g id="Group-18" transform="translate(0.000000, 46.000000)">
                        <g id="Group-26" transform="translate(22.000000, 37.000000)">
                            <g id="ICO-Doctor" transform="translate(0.000000, 24.000000)">
                                <rect id="Rectangle-Copy-6" x="0" y="0" width="24" height="24"></rect>
                                <g id="Group-17" transform="translate(3.200000, 0.640000)" fill="#192D3E" stroke="#192D3E">
                                    <path d="M8.8885475,22.4 C5.14019914,22.4 2.81496109,21.5798529 1.52460082,20.8917062 C0.477115865,20.3334882 -0.126596921,19.1667736 0.0224402011,17.98906 C0.261219886,16.1009157 0.745137355,14.555073 1.50170349,13.2645764 C2.55954676,11.4600483 3.61023462,10.5557398 5.24950666,10.0406179 C5.96613875,9.81594466 6.55465479,10.1058365 7.00006249,10.9033568 L8.88875194,13.7604809 L10.7933877,10.8772566 C11.2227673,10.1052893 11.8115696,9.81484749 12.5279291,10.0403454 C14.1674737,10.5559715 15.217889,11.4597076 16.2757322,13.2643038 C17.0320258,14.5548685 17.5159364,16.1006431 17.7549955,17.9887874 C17.9038009,19.1664328 17.3000609,20.3331747 16.2528349,20.8914336 C14.9617932,21.5798529 12.6362825,22.4 8.88888823,22.4 L8.8885475,22.4 Z M5.69627729,10.773469 C5.62227665,10.773469 5.55466136,10.7944984 5.49236834,10.8141976 C4.04901844,11.2680691 3.15724899,12.0429531 2.20080821,13.6745246 C1.50094024,14.8686615 1.05137559,16.3133744 0.826695484,18.0907801 C0.719418741,18.9367548 1.15305748,19.7747564 1.90559613,20.1756642 C3.11465722,20.8201288 5.30789487,21.5883481 8.88792054,21.5883481 C12.4679462,21.5883481 14.661252,20.8201288 15.870245,20.1756642 C16.6225178,19.7745043 17.0558635,18.9370274 16.9491456,18.0907801 C16.7244723,16.3131018 16.2748668,14.8687297 15.5750329,13.6745246 C14.6191373,12.0430213 13.7268227,11.2681237 12.2834727,10.8141976 C12.0835572,10.7511086 11.8343988,10.6725817 11.4845874,11.2984149 L9.22586069,14.7195903 C9.07546063,14.9469214 8.69931737,14.9469214 8.54918309,14.7195903 L6.30647084,11.3242426 C6.05491363,10.8762317 5.85872571,10.7734799 5.69554812,10.7734799 L5.69627729,10.773469 Z" id="Shape" stroke-width="0.5" fill-rule="nonzero"></path>
                                    <path d="M8.8885475,10.1022227 C6.10304573,10.1022227 3.83689098,7.83606793 3.83689098,5.05111134 C3.83689098,2.26615475 6.10304573,0 8.8885475,0 C11.6735041,0 13.9396588,2.26615475 13.9396588,5.05111134 C13.9396588,7.83606793 11.6735041,10.1022227 8.8885475,10.1022227 Z M8.8885475,0.811083595 C6.55077042,0.811083595 4.64824716,2.71306168 4.64824716,5.05083875 C4.64824716,7.38861583 6.55022525,9.29059391 8.8885475,9.29059391 C11.2268697,9.29059391 13.1283027,7.38861583 13.1283027,5.05083875 C13.1283027,2.71306168 11.2263246,0.811083595 8.8885475,0.811083595 L8.8885475,0.811083595 Z" id="Shape" stroke-width="0.5" fill-rule="nonzero"></path>
                                    <path d="M13.0598233,13.8027755 L13.0596108,15.4717755 L14.7294207,15.4723729 L14.7294207,16.221988 L13.0596108,16.2217755 L13.0598233,17.8915854 L12.3102082,17.8915854 L12.3096108,16.2217755 L10.6406108,16.221988 L10.6406108,15.4723729 L12.3096108,15.4717755 L12.3102082,13.8027755 L13.0598233,13.8027755 Z" id="Combined-Shape" stroke-width="0.2"></path>
                                </g>
                            </g>
                        </g>
                    </g>
                </g>
            </g>
        </g>
    </g>
</svg>