<?xml version="1.0" encoding="UTF-8"?>
<svg width="18px" height="18px" viewBox="0 0 18 18" version="1.1" xmlns="http://www.w3.org/2000/svg" xmlns:xlink="http://www.w3.org/1999/xlink">
    <title>ICO-Star</title>
    <g id="How-to-send-Rx" stroke="none" stroke-width="1" fill="none" fill-rule="evenodd">
        <g id="Homepage-D" transform="translate(-951.000000, -1730.000000)">
            <g id="How-To-Send-Rx" transform="translate(395.000000, 1401.000000)">
                <g id="Group-22" transform="translate(0.000000, 155.000000)">
                    <g id="Group-18" transform="translate(0.000000, 46.000000)">
                        <g id="Group-27" transform="translate(25.000000, 110.000000)">
                            <g id="ICO-Star" transform="translate(531.000000, 18.000000)">
                                <rect id="Rectangle" x="0" y="0" width="18" height="18"></rect>
                                <circle id="Oval" fill="#FFFFFF" cx="9" cy="9" r="7.27272727"></circle>
                                <path d="M9,1 C6.87824373,1 4.84345826,1.84285112 3.34318326,3.34318326 C1.84285112,4.84340112 1,6.87830087 1,9 C1,10.4042185 1.3696545,11.7838087 2.07176377,12.9999714 C2.77398733,14.2161342 3.78380869,15.2259555 5.00002857,15.9282362 C6.21619131,16.6303455 7.59578146,17 9,17 C10.4042185,17 11.7838087,16.6303455 12.9999714,15.9282362 C14.2161342,15.2260127 15.2259555,14.2161913 15.9282362,12.9999714 C16.6303455,11.7838087 17,10.4042185 17,9 C17,7.59578146 16.6303455,6.21619131 15.9282362,5.00002857 C15.2260127,3.78386583 14.2161913,2.77404447 12.9999714,2.07176377 C11.7838087,1.3696545 10.4042185,1 9,1 Z M9,2.77118735 L10.4996464,6.90258641 L14.8921865,7.05213963 L11.426497,9.75503461 L12.6415454,13.9787187 L9.00014286,11.5177934 L5.35874029,13.9787187 L6.57378876,9.75503461 L3.10809923,7.05213963 L7.50063928,6.90258641 L9,2.77118735 Z" id="Shape" fill="#008ED8" fill-rule="nonzero"></path>
                            </g>
                        </g>
                    </g>
                </g>
            </g>
        </g>
    </g>
</svg>